# converted from roof_radar_quaternius_V7XQDxF8JC.glb by gltf2obj.py (node transforms baked, V flipped)
mtllib radar_dish.mtl
o Roof_Radar
g Roof_Radar
usemtl Atlas
v 0.29392 0.38138 -0.62029
v 0.35257 0 -0.78142
v 0.10743 0 -0.82465
v 0.45792 0.38138 -0.5256
v 0.10743 0.38138 -0.65317
v -0.07907 0.38138 -0.62028
v 0.56814 0 -0.65696
v 0.72815 0 -0.46627
v 0.45792 0.38138 -0.5256
v 0.57965 0.38138 -0.38053
v 0.56814 0 -0.65696
v 0.81329 0 -0.23236
v 0.64441 0.38138 -0.20258
v 0.64441 0.38138 -0.01321
v 0.81329 0 0.01657
v 0.57965 0.38138 0.16474
v 0.72815 0 0.25048
v 0.45792 0.38138 0.30981
v 0.56814 0 0.44116
v 0.35257 0 0.56563
v 0.45792 0.38138 0.30981
v 0.29392 0.38138 0.40449
v 0.56814 0 0.44116
v 0.10743 0 0.60885
v 0.10743 0.38138 0.43738
v -0.07907 0.38138 0.40449
v -0.13772 0 0.56563
v -0.24307 0.38138 0.30981
v -0.35329 0 0.44116
v -0.24307 0.38138 0.30981
v -0.5133 0 0.25048
v -0.35329 0 0.44116
v -0.36479 0.38138 0.16474
v -0.59843 0 0.01657
v -0.42956 0.38138 -0.01321
v -0.59843 0 -0.23236
v -0.42956 0.38138 -0.20258
v -0.36479 0.38138 -0.38053
v -0.5133 0 -0.46627
v -0.24307 0.38138 -0.5256
v -0.35329 0 -0.65696
v 0.60441 0.38138 -0.02026
v 0.54447 0.38138 0.14443
v 0.57965 0.38138 0.16474
v 0.64441 0.38138 -0.20258
v 0.60441 0.38138 -0.19553
v 0.45792 0.38138 0.30981
v 0.64441 0.38138 -0.01321
v -0.24307 0.38138 -0.5256
v -0.13772 0 -0.78142
v -0.35329 0 -0.65696
v -0.35329 0 -0.65696
v -0.59843 0 -0.23236
v -0.5133 0 -0.46627
v -0.13772 0 0.56563
v -0.5133 0 0.25048
v 0.81329 0 0.01657
v -0.35329 0 0.44116
v 0.35257 0 -0.78142
v 0.56814 0 -0.65696
v -0.13772 0 -0.78142
v 0.10743 0 0.60885
v 0.56814 0 0.44116
v 0.35257 0 0.56563
v 0.10743 0 -0.82465
v 0.81329 0 -0.23236
v 0.72815 0 -0.46627
v 0.72815 0 0.25048
v -0.59843 0 0.01657
v 0.43181 0.4764 0.27869
v 0.28003 0.4764 0.36632
v 0.28003 0.38138 0.36632
v 0.43181 0.38138 0.27869
v 0.10743 0.38138 0.39676
v 0.10743 0.4764 0.39676
v -0.21696 0.38138 0.27869
v -0.07907 0.38138 0.40449
v -0.06518 0.38138 0.36632
v -0.24307 0.38138 0.30981
v 0.10743 0.38138 0.39676
v 0.10743 0.38138 0.43738
v -0.32962 0.38138 0.14443
v -0.36479 0.38138 0.16474
v -0.36479 0.38138 -0.38053
v -0.21696 0.38138 -0.49448
v -0.24307 0.38138 -0.5256
v -0.38956 0.38138 -0.19553
v -0.32962 0.38138 -0.36022
v -0.06518 0.38138 -0.58212
v -0.07907 0.38138 -0.62028
v 0.57965 0.38138 -0.38053
v 0.54447 0.38138 -0.36022
v 0.43181 0.38138 -0.49448
v 0.28003 0.38138 0.36632
v 0.29392 0.38138 0.40449
v 0.43181 0.38138 0.27869
v -0.42956 0.38138 -0.01321
v -0.42956 0.38138 -0.20258
v -0.38956 0.38138 -0.02026
v 0.28003 0.38138 -0.58212
v 0.45792 0.38138 -0.5256
v 0.29392 0.38138 -0.62029
v 0.10743 0.38138 -0.65317
v 0.10743 0.38138 -0.61255
v 0.10743 0.4764 0.4805
v 0.28003 0.4764 0.36632
v 0.30867 0.4764 0.44501
v 0.10743 0.4764 0.39676
v 0.43181 0.4764 0.27869
v 0.48564 0.4764 0.34284
v -0.09382 0.4764 0.44501
v -0.06518 0.4764 0.36632
v 0.10743 0.4764 -0.61255
v 0.28003 0.38138 -0.58212
v 0.10743 0.38138 -0.61255
v 0.28003 0.4764 -0.58212
v 0.43181 0.38138 -0.49448
v -0.06518 0.4764 -0.58212
v -0.06518 0.38138 -0.58212
v -0.32962 0.4764 -0.36022
v -0.21696 0.38138 -0.49448
v -0.32962 0.38138 -0.36022
v -0.21696 0.4764 -0.49448
v -0.38956 0.4764 -0.19553
v -0.06518 0.4764 0.36632
v -0.06518 0.38138 0.36632
v 0.43181 0.4764 -0.49448
v -0.21696 0.38138 -0.49448
v -0.21696 0.4764 -0.49448
v -0.21696 0.4764 0.27869
v -0.21696 0.38138 0.27869
v 0.54447 0.4764 -0.36022
v 0.43181 0.38138 -0.49448
v 0.43181 0.4764 -0.49448
v 0.54447 0.38138 -0.36022
v 0.60441 0.4764 -0.19553
v 0.60441 0.38138 -0.19553
v 0.60441 0.4764 -0.02026
v 0.60441 0.38138 -0.02026
v -0.21696 0.4764 0.27869
v -0.32962 0.38138 0.14443
v -0.21696 0.38138 0.27869
v -0.32962 0.4764 0.14443
v -0.38956 0.38138 -0.02026
v 0.54447 0.4764 0.14443
v 0.54447 0.38138 0.14443
v -0.38956 0.4764 -0.02026
v -0.38956 0.38138 -0.19553
v 0.43181 0.4764 0.27869
v 0.43181 0.38138 0.27869
v -0.09382 0.70458 0.44501
v -0.27079 0.4764 0.34284
v -0.09382 0.4764 0.44501
v -0.27079 0.70458 0.34284
v 0.30867 0.4764 -0.66081
v 0.43181 0.4764 -0.49448
v 0.28003 0.4764 -0.58212
v 0.48564 0.4764 -0.55863
v 0.61699 0.4764 -0.40209
v 0.54447 0.4764 -0.36022
v 0.10743 0.4764 -0.69629
v -0.09382 0.4764 -0.66081
v -0.21696 0.4764 -0.49448
v -0.27079 0.4764 -0.55863
v -0.06518 0.4764 -0.58212
v 0.10743 0.4764 -0.61255
v -0.27079 0.4764 0.34284
v -0.21696 0.4764 0.27869
v 0.68688 0.4764 -0.21007
v 0.60441 0.4764 -0.19553
v 0.68688 0.4764 -0.00572
v 0.60441 0.4764 -0.02026
v -0.32962 0.4764 0.14443
v -0.40214 0.4764 0.1863
v -0.38956 0.4764 -0.02026
v 0.61699 0.4764 0.1863
v 0.54447 0.4764 0.14443
v -0.47203 0.4764 -0.00572
v -0.38956 0.4764 -0.19553
v -0.47203 0.4764 -0.21007
v -0.40214 0.4764 -0.40209
v -0.32962 0.4764 -0.36022
v 0.30867 0.4764 -0.66081
v 0.10743 0.70458 -0.69629
v 0.30867 0.70458 -0.66081
v 0.48564 0.4764 -0.55863
v 0.48564 0.70458 -0.55863
v 0.68688 0.70458 -0.21007
v 0.61699 0.4764 -0.40209
v 0.61699 0.70458 -0.40209
v 0.68688 0.4764 -0.21007
v 0.48564 0.4764 -0.55863
v 0.48564 0.70458 -0.55863
v 0.68688 0.70458 -0.00572
v 0.68688 0.4764 -0.00572
v -0.27079 0.70458 0.34284
v -0.40214 0.4764 0.1863
v -0.27079 0.4764 0.34284
v -0.40214 0.70458 0.1863
v -0.47203 0.4764 -0.00572
v 0.61699 0.70458 0.1863
v 0.61699 0.4764 0.1863
v -0.47203 0.70458 -0.00572
v -0.47203 0.4764 -0.21007
v 0.48564 0.70458 0.34284
v 0.48564 0.4764 0.34284
v -0.47203 0.70458 -0.21007
v -0.40214 0.4764 -0.40209
v -0.40214 0.70458 -0.40209
v -0.27079 0.4764 -0.55863
v 0.48564 0.70458 0.34284
v 0.30867 0.70458 0.44501
v 0.30867 0.4764 0.44501
v 0.48564 0.4764 0.34284
v 0.10743 0.70458 0.4805
v 0.10743 0.4764 0.4805
v -0.27079 0.70458 -0.55863
v -0.27079 0.4764 -0.55863
v -0.27079 0.70458 -0.55863
v -0.09382 0.4764 -0.66081
v -0.09382 0.70458 -0.66081
v 0.10743 0.4764 -0.69629
v 0.26402 0.82241 -0.53812
v 0.10743 0.70458 -0.69629
v 0.10743 0.82241 -0.56573
v 0.30867 0.70458 -0.66081
v -0.09382 0.70458 -0.66081
v -0.04917 0.82241 -0.53812
v 0.40172 0.82241 -0.45862
v 0.48564 0.70458 -0.55863
v 0.50393 0.82241 -0.33682
v 0.61699 0.70458 -0.40209
v 0.55831 0.82241 -0.1874
v 0.68688 0.70458 -0.21007
v 0.55831 0.82241 -0.02839
v 0.68688 0.70458 -0.00572
v 0.50393 0.82241 0.12102
v 0.61699 0.70458 0.1863
v 0.40172 0.82241 0.24283
v 0.48564 0.70458 0.34284
v 0.26402 0.82241 0.32233
v 0.30867 0.70458 0.44501
v 0.10743 0.70458 0.4805
v 0.10743 0.82241 0.34994
v -0.04916 0.82241 0.32233
v -0.09382 0.70458 0.44501
v -0.18687 0.82241 0.24283
v -0.28907 0.82241 0.12102
v -0.40214 0.70458 0.1863
v -0.27079 0.70458 0.34284
v -0.47203 0.70458 -0.00572
v -0.34346 0.82241 -0.02839
v -0.47203 0.70458 -0.21007
v -0.34346 0.82241 -0.1874
v -0.40214 0.70458 -0.40209
v -0.28907 0.82241 -0.33682
v -0.27079 0.70458 -0.55863
v -0.18687 0.82241 -0.45862
v -0.28907 0.82241 0.12102
v -0.28907 0.82241 -0.33682
v -0.34346 0.82241 -0.02839
v 0.10743 0.82241 0.34994
v -0.04917 0.82241 -0.53812
v -0.18687 0.82241 -0.45862
v 0.10743 0.82241 -0.56573
v 0.50393 0.82241 -0.33682
v -0.34346 0.82241 -0.1874
v -0.18687 0.82241 0.24283
v -0.04916 0.82241 0.32233
v 0.55831 0.82241 -0.1874
v 0.26402 0.82241 -0.53812
v 0.40172 0.82241 0.24283
v 0.55831 0.82241 -0.02839
v 0.26402 0.82241 0.32233
v 0.50393 0.82241 0.12102
v 0.40172 0.82241 -0.45862
v 0.02947 1.40247 -0.06097
v 0.02947 0.6923 -0.06097
v -0.00885 0.6923 -0.07342
v -0.00885 1.40247 -0.07342
v -0.02731 1.44495 -0.03364
v -0.00885 1.44495 -0.03964
v 0.00962 1.44495 -0.03364
v -0.04717 0.6923 -0.06097
v 0.05316 1.40247 -0.02838
v 0.05316 0.6923 -0.02838
v 0.02947 0.6923 -0.06097
v 0.02947 1.40247 -0.06097
v 0.02103 1.44495 0.00148
v 0.05316 1.40247 0.01192
v 0.00962 1.44495 -0.03364
v 0.05316 0.6923 0.01192
v 0.00962 1.44495 0.01718
v 0.02947 1.40247 0.04452
v 0.02947 0.6923 0.04452
v -0.00885 1.40247 0.05697
v 0.02947 1.40247 0.04452
v 0.00962 1.44495 0.01718
v -0.02731 1.44495 0.01718
v -0.04717 1.40247 0.04452
v 0.02947 0.6923 0.04452
v -0.00885 0.6923 0.05697
v -0.04717 0.6923 0.04452
v -0.04717 1.40247 0.04452
v -0.07085 0.6923 0.01192
v -0.04717 0.6923 0.04452
v -0.07085 1.40247 0.01192
v -0.07085 0.6923 -0.02838
v -0.02731 1.44495 0.01718
v -0.03872 1.44495 0.00148
v -0.07085 1.40247 -0.02838
v -0.04717 0.6923 -0.06097
v -0.03872 1.44495 -0.01794
v -0.02731 1.44495 -0.03364
v -0.04717 1.40247 -0.06097
v -0.04717 1.40247 -0.06097
v -0.04717 0.6923 0.04452
v -0.04717 0.6923 -0.06097
v 0.02947 0.6923 0.04452
v -0.00885 0.6923 0.05697
v -0.00885 0.6923 -0.07342
v 0.05316 0.6923 -0.02838
v 0.05316 0.6923 0.01192
v 0.02947 0.6923 -0.06097
v -0.07085 0.6923 -0.02838
v -0.07085 0.6923 0.01192
v -0.02731 1.88079 0.01718
v -0.03872 1.88079 0.00148
v 0.20459 1.26744 -0.26473
v 0.20459 0.73335 -0.26473
v 0.17736 0.73335 -0.25588
v 0.23182 1.26744 -0.25588
v 0.17736 1.26744 -0.25588
v 0.24865 1.26744 -0.20409
v 0.24865 0.73335 -0.23272
v 0.24865 1.26744 -0.23272
v 0.24865 0.73335 -0.20409
v 0.23182 0.73335 -0.25588
v 0.23182 1.26744 -0.25588
v 0.23182 1.26744 -0.18092
v 0.23182 0.73335 -0.18092
v 0.20459 1.26744 -0.17207
v 0.23182 0.73335 -0.18092
v 0.23182 1.26744 -0.18092
v 0.20459 0.73335 -0.17207
v 0.17736 1.26744 -0.18092
v 0.17736 0.73335 -0.18092
v 0.17736 1.26744 -0.18092
v 0.16053 0.73335 -0.20409
v 0.17736 0.73335 -0.18092
v 0.16053 1.26744 -0.20409
v 0.16053 0.73335 -0.23272
v 0.16053 1.26744 -0.23272
v 0.17736 0.73335 -0.25588
v 0.17736 1.26744 -0.25588
v 0.2436 1.12811 -0.16471
v 0.16558 1.12811 -0.16471
v 0.20459 1.12811 -0.15204
v 0.26771 1.12811 -0.23891
v 0.2436 1.12811 -0.2721
v 0.20459 1.12811 -0.28477
v 0.14147 1.12811 -0.23891
v 0.14147 1.12811 -0.19789
v 0.26771 1.12811 -0.19789
v 0.16558 1.12811 -0.2721
v 0.2436 1.05875 -0.16471
v 0.26771 1.05875 -0.23891
v 0.26771 1.05875 -0.19789
v 0.2436 1.05875 -0.2721
v 0.16558 1.05875 -0.16471
v 0.20459 1.05875 -0.28477
v 0.20459 1.05875 -0.15204
v 0.14147 1.05875 -0.23891
v 0.16558 1.05875 -0.2721
v 0.14147 1.05875 -0.19789
v 0.26771 1.12811 -0.23891
v 0.2436 1.05875 -0.2721
v 0.2436 1.12811 -0.2721
v 0.26771 1.05875 -0.23891
v 0.26771 1.12811 -0.19789
v 0.26771 1.05875 -0.19789
v 0.16558 1.12811 -0.2721
v 0.16558 1.05875 -0.2721
v 0.14147 1.12811 -0.23891
v 0.14147 1.05875 -0.23891
v 0.16558 1.12811 -0.16471
v 0.16558 1.05875 -0.16471
v 0.20459 1.12811 -0.15204
v 0.20459 1.05875 -0.15204
v 0.2436 1.12811 -0.16471
v 0.2436 1.12811 -0.16471
v 0.2436 1.05875 -0.16471
v 0.16558 1.05875 -0.2721
v 0.16558 1.12811 -0.2721
v 0.20459 1.05875 -0.28477
v 0.20459 1.12811 -0.28477
v 0.2436 1.05875 -0.2721
v 0.14147 1.12811 -0.19789
v 0.14147 1.05875 -0.19789
v 0.16558 1.12811 -0.16471
v 0.16558 1.05875 -0.16471
v 0.2436 1.12811 -0.2721
v 0.2436 1.05875 -0.16471
v 0.20459 0.73335 -0.17207
v 0.16053 0.73335 -0.20409
v 0.24865 0.73335 -0.20409
v 0.23182 0.73335 -0.18092
v 0.17736 0.73335 -0.25588
v 0.20459 0.73335 -0.26473
v 0.17736 0.73335 -0.18092
v 0.24865 0.73335 -0.23272
v 0.23182 0.73335 -0.25588
v 0.16053 0.73335 -0.23272
v 0.23182 0.73335 -0.25588
v 0.00962 1.88079 0.01718
v 0.02103 1.44495 -0.01794
v 0.02103 1.88079 0.00148
v 0.02103 1.88079 -0.01794
v -0.00885 1.44495 0.02318
v 0.00962 1.88079 -0.03364
v -0.00885 1.88079 -0.03964
v -0.03872 1.88079 -0.01794
v -0.02731 1.88079 -0.03364
v 0.00962 1.88079 0.01718
v -0.02731 1.88079 0.01718
v -0.00885 1.88079 0.02318
v 0.02103 1.88079 -0.01794
v -0.03872 1.88079 -0.01794
v -0.03872 1.88079 0.00148
v 0.02103 1.88079 0.00148
v -0.00885 1.88079 -0.03964
v 0.00962 1.88079 -0.03364
v -0.02731 1.88079 -0.03364
v -0.02731 1.88079 -0.03364
v -0.00885 1.88079 0.02318
v 0.00962 1.88079 0.01718
v 0.00962 1.88079 -0.03364
v -0.02731 1.88079 0.01718
v 0.22095 1.28503 -0.24092
v 0.20459 1.26744 -0.26473
v 0.20459 1.28503 -0.24623
v 0.24865 1.26744 -0.23272
v 0.23182 1.26744 -0.25588
v 0.17736 1.26744 -0.25588
v 0.18823 1.28503 -0.24092
v 0.23106 1.28503 -0.227
v 0.23106 1.28503 -0.2098
v 0.24865 1.26744 -0.23272
v 0.23106 1.28503 -0.227
v 0.24865 1.26744 -0.20409
v 0.24865 1.26744 -0.20409
v 0.22095 1.28503 -0.19589
v 0.23182 1.26744 -0.18092
v 0.23106 1.28503 -0.2098
v 0.22095 1.28503 -0.19589
v 0.20459 1.26744 -0.17207
v 0.23182 1.26744 -0.18092
v 0.20459 1.28503 -0.19057
v 0.17736 1.26744 -0.18092
v 0.20459 1.26744 -0.17207
v 0.20459 1.28503 -0.19057
v 0.18823 1.28503 -0.19589
v 0.16053 1.26744 -0.20409
v 0.17812 1.28503 -0.2098
v 0.16053 1.26744 -0.20409
v 0.17812 1.28503 -0.227
v 0.16053 1.26744 -0.23272
v 0.17812 1.28503 -0.2098
v 0.16053 1.26744 -0.23272
v 0.17812 1.28503 -0.227
v 0.23106 1.28503 -0.2098
v 0.17812 1.28503 -0.2098
v 0.20459 1.28503 -0.19057
v 0.22095 1.28503 -0.19589
v 0.17812 1.28503 -0.227
v 0.18823 1.28503 -0.19589
v 0.20459 1.28503 -0.24623
v 0.23106 1.28503 -0.227
v 0.22095 1.28503 -0.24092
v 0.18823 1.28503 -0.24092
v -0.36409 1.61222 0.28932
v -0.25365 1.45338 0.50194
v -0.47109 1.55533 0.42868
v -0.19671 1.53374 0.34571
v -0.00638 1.38203 0.64255
v -0.28662 1.42216 0.61371
v -0.53305 1.5377 0.53069
v -0.48832 1.73245 0.20293
v -0.00638 1.41797 0.52739
v -0.1815 1.75038 0.10869
v -0.09956 1.71196 0.1363
v -0.24796 1.48288 0.51623
v -0.35586 1.63807 0.3085
v -0.46041 1.58249 0.44465
v -0.00638 1.41318 0.65359
v -0.00638 1.44829 0.54108
v -0.19234 1.5614 0.36359
v -0.47724 1.75554 0.22409
v -0.61809 1.7351 0.33499
v -0.28017 1.45239 0.62542
v -0.00638 1.53477 0.38272
v -0.17747 1.77305 0.13202
v -0.70199 2.1215 0.05733
v -0.79473 1.95037 0.26758
v -0.70199 1.92229 0.20048
v -0.47724 2.19707 -0.09318
v -0.61809 2.3087 -0.07718
v -0.79473 2.17614 0.10535
v -0.61809 1.7351 0.33499
v -0.47724 1.75554 0.22409
v -0.54182 2.05297 0.01036
v -0.69964 2.3883 -0.0471
v 0.50818 1.56527 0.54431
v 0.60533 1.7351 0.33499
v 0.44765 1.58249 0.44465
v 0.78197 1.95037 0.26758
v 0.68923 1.92229 0.20048
v 0.68688 1.73822 0.42003
v 0.46448 1.75554 0.22409
v 0.3431 1.63807 0.3085
v 0.26741 1.45239 0.62542
v -0.35586 2.31453 -0.17759
v -0.46041 2.46131 -0.18684
v -0.52094 2.56125 -0.17137
v 0.2352 1.48288 0.51623
v 0.17958 1.5614 0.36359
v 0.26741 2.67413 -0.25249
v -0.00638 2.59551 -0.28327
v 0.2352 2.56091 -0.25841
v -0.00638 2.71334 -0.28066
v 0.17958 2.39121 -0.23268
v -0.19234 2.39121 -0.23268
v -0.00638 2.41783 -0.25182
v -0.28017 2.67413 -0.25249
v -0.24796 2.56091 -0.25841
v 0.3431 2.31453 -0.17759
v 0.44765 2.46131 -0.18684
v 0.60533 2.3087 -0.07718
v 0.68688 2.3883 -0.0471
v 0.50818 2.56125 -0.17137
v -0.52094 1.56527 0.54431
v 0.68923 2.1215 0.05733
v 0.78197 2.17614 0.10535
v -0.69964 1.73822 0.42003
v 0.46448 2.19707 -0.09318
v 0.78197 1.95037 0.26758
v -0.70199 1.92229 0.20048
v -0.79473 1.95037 0.26758
v 0.68923 1.92229 0.20048
v 0.52906 2.05297 0.01036
v 0.52906 1.89963 0.12055
v -0.35586 1.63807 0.3085
v -0.23689 1.83056 0.0907
v -0.17747 1.77305 0.13202
v -0.00638 1.92938 0.00015
v -0.54182 1.89963 0.12055
v -0.26851 1.9011 0.04001
v -0.09742 1.73552 0.15899
v 0.25575 1.97617 -0.01393
v 0.25575 1.9011 0.04001
v -0.26851 1.97617 -0.01393
v 0.52906 1.89963 0.12055
v 0.16471 1.77305 0.13202
v 0.08466 1.73552 0.15899
v 0.16471 2.10422 -0.10595
v -0.09742 2.14175 -0.13292
v -0.00638 2.15479 -0.14229
v 0.08466 2.14175 -0.13292
v -0.23689 2.04671 -0.06463
v -0.17747 2.10422 -0.10595
v -0.09742 1.73552 0.15899
v -0.00638 1.72248 0.16836
v 0.22413 2.04671 -0.06463
v 0.46448 1.75554 0.22409
v 0.22413 1.83056 0.0907
v 0.3431 1.63807 0.3085
v 0.16471 1.77305 0.13202
v 0.70561 1.90313 0.17877
v 0.70561 2.10704 0.03225
v 0.80053 1.93188 0.24745
v 0.54167 2.03689 -0.01583
v 0.47556 2.18438 -0.12181
v 0.61973 2.29864 -0.10544
v 0.80053 2.16296 0.08139
v 0.08466 1.73552 0.15899
v -0.00638 1.72248 0.16836
v -0.63249 1.71153 0.31645
v -0.81329 1.93188 0.24745
v -0.71837 1.90313 0.17877
v -0.71596 1.71473 0.40348
v 0.35133 2.30461 -0.20821
v 0.7032 2.38011 -0.07464
v 0.45833 2.45484 -0.21767
v -0.00638 2.59219 -0.31638
v -0.28662 2.67267 -0.28487
v -0.00638 2.7128 -0.31371
v 0.18395 2.38309 -0.2646
v -0.00638 2.41034 -0.28418
v -0.19672 2.38309 -0.2646
v -0.25365 2.55679 -0.29093
v 0.27386 2.67267 -0.28487
v 0.24089 2.55679 -0.29093
v -0.36409 2.30461 -0.20821
v -0.47109 2.45484 -0.21767
v -0.53305 2.55713 -0.20184
v 0.52029 2.55713 -0.20184
v 0.24089 1.45338 0.50194
v -0.00638 1.50649 0.3653
v 0.18395 1.53374 0.34571
v -0.71596 2.38011 -0.07464
v 0.27386 1.42216 0.61371
v 0.45833 1.55533 0.42868
v 0.35133 1.61222 0.28932
v -0.63249 2.29864 -0.10544
v -0.48832 2.18438 -0.12181
v -0.81329 2.16296 0.08139
v 0.52029 1.5377 0.53069
v 0.61973 1.71153 0.31645
v 0.7032 1.71473 0.40348
v -0.71837 2.10703 0.03225
v -0.55443 2.03689 -0.01583
v -0.81329 1.93188 0.24745
v 0.80053 1.93188 0.24745
v -0.71837 1.90313 0.17877
v -0.48832 1.73245 0.20293
v -0.63249 1.71153 0.31645
v -0.55443 1.87994 0.09695
v 0.70561 1.90313 0.17877
v 0.47556 1.73245 0.20293
v 0.54167 1.87994 0.09695
v -0.36409 1.61222 0.28932
v -0.24232 1.80924 0.0664
v -0.1815 1.75038 0.10869
v -0.00638 1.91038 -0.02628
v -0.09956 1.71196 0.1363
v -0.27468 1.88144 0.01451
v 0.26192 1.95828 -0.0407
v 0.22956 2.03048 -0.09258
v 0.54167 1.87994 0.09695
v -0.27468 1.95828 -0.0407
v -0.24232 2.03048 -0.09258
v 0.0868 1.71196 0.1363
v 0.16874 1.75038 0.10869
v 0.16874 2.08934 -0.13488
v 0.0868 2.12776 -0.16248
v -0.09956 2.12776 -0.16248
v -0.00638 2.14111 -0.17207
v -0.1815 2.08934 -0.13488
v -0.00638 1.69862 0.14589
v 0.26192 1.88144 0.01451
v 0.47556 1.73245 0.20293
v 0.22956 1.80924 0.0664
v 0.35133 1.61222 0.28932
v 0.16874 1.75038 0.10869
v 0.0868 1.71196 0.1363
v -0.00638 1.69862 0.14589
v -0.81329 2.16296 0.08139
v -0.81329 1.93188 0.24745
v -0.79473 2.17614 0.10535
v -0.69964 1.73822 0.42003
v -0.79473 1.95037 0.26758
v 0.52029 1.5377 0.53069
v 0.7032 1.71473 0.40348
v 0.50818 1.56527 0.54431
v 0.68688 1.73822 0.42003
v -0.71596 2.38011 -0.07464
v -0.69964 2.3883 -0.0471
v 0.27386 1.42216 0.61371
v 0.26741 1.45239 0.62542
v -0.00638 1.41318 0.65359
v 0.27386 2.67267 -0.28487
v -0.00638 2.71334 -0.28066
v 0.26741 2.67413 -0.25249
v -0.00638 2.7128 -0.31371
v 0.52029 2.55713 -0.20184
v -0.28662 2.67267 -0.28487
v -0.53305 2.55713 -0.20184
v -0.71596 2.38011 -0.07464
v -0.52094 2.56125 -0.17137
v -0.69964 2.3883 -0.0471
v -0.00638 1.38203 0.64255
v -0.28662 1.42216 0.61371
v 0.50818 2.56125 -0.17137
v 0.7032 2.38011 -0.07464
v -0.28017 2.67413 -0.25249
v -0.28017 1.45239 0.62542
v -0.53305 1.5377 0.53069
v 0.68688 2.3883 -0.0471
v -0.52094 1.56527 0.54431
v -0.71596 1.71473 0.40348
v 0.68688 2.3883 -0.0471
v 0.80053 2.16296 0.08139
v 0.7032 2.38011 -0.07464
v 0.78197 2.17614 0.10535
v 0.80053 1.93188 0.24745
v -0.69964 1.73822 0.42003
v 0.78197 1.95037 0.26758
v 0.68688 1.73822 0.42003
v 0.7032 1.71473 0.40348
v -0.71596 1.71473 0.40348
v -0.09259 1.90537 -0.00721
v -0.08219 1.88217 0.00946
v -0.00638 1.91467 -0.02031
v -0.06265 1.86326 0.02306
v 0.06943 1.88217 0.00946
v 0.07983 1.90537 -0.00721
v 0.07983 1.93006 -0.02495
v -0.09259 1.93006 -0.02495
v 0.04989 1.86326 0.02306
v -0.08219 1.95326 -0.04162
v 0.02356 1.85091 0.03193
v 0.02356 1.98452 -0.06408
v -0.00638 1.98881 -0.06716
v -0.03632 1.98452 -0.06408
v -0.06265 1.97218 -0.05521
v -0.00638 1.84662 0.03501
v 0.04989 1.97218 -0.05521
v -0.03632 1.85091 0.03193
v 0.06943 1.95326 -0.04162
v -0.09259 1.93006 -0.02495
v -0.09259 1.77582 -0.1875
v -0.09259 1.90537 -0.00721
v -0.08219 1.82371 -0.22191
v -0.09259 1.80051 -0.20524
v -0.08392 1.78005 -0.2311
v -0.08392 1.75784 -0.21514
v -0.08219 1.88217 0.00946
v -0.07457 1.73697 -0.20014
v -0.08219 1.75262 -0.17083
v -0.07457 1.80092 -0.24609
v 0.04989 1.86326 0.02306
v 0.04989 1.73371 -0.15724
v 0.06943 1.88217 0.00946
v 0.07983 1.77582 -0.1875
v 0.07983 1.90537 -0.00721
v 0.06943 1.75262 -0.17083
v 0.04423 1.71996 -0.18792
v -0.08219 1.95326 -0.04162
v -0.05699 1.81793 -0.25832
v -0.06265 1.84262 -0.2355
v 0.02356 1.85091 0.03193
v -0.00638 1.71707 -0.14528
v 0.02356 1.72136 -0.14836
v 0.04989 1.86326 0.02306
v 0.02055 1.70886 -0.17994
v 0.04989 1.73371 -0.15724
v -0.00638 1.705 -0.17717
v 0.04423 1.71996 -0.18792
v -0.06265 1.97218 -0.05521
v -0.00638 1.84662 0.03501
v -0.03632 1.85091 0.03193
v -0.03632 1.72136 -0.14836
v -0.00638 1.98881 -0.06716
v -0.03632 1.85497 -0.24437
v -0.03632 1.98452 -0.06408
v 0.02356 1.85497 -0.24437
v -0.00638 1.85926 -0.24745
v -0.06265 1.84262 -0.2355
v -0.06265 1.97218 -0.05521
v -0.06265 1.86326 0.02306
v -0.06265 1.73371 -0.15724
v 0.06943 1.95326 -0.04162
v 0.04989 1.84262 -0.2355
v 0.04989 1.97218 -0.05521
v 0.06943 1.82371 -0.22191
v 0.04423 1.81793 -0.25831
v 0.07983 1.93006 -0.02495
v 0.07983 1.80051 -0.20524
v -0.03331 1.70886 -0.17994
v 0.07116 1.75784 -0.21514
v 0.06181 1.80092 -0.24609
v 0.04989 1.97218 -0.05521
v 0.04989 1.84262 -0.2355
v 0.02356 1.98452 -0.06408
v -0.05699 1.71996 -0.18792
v -0.06265 1.73371 -0.15724
v -0.06265 1.86326 0.02306
v 0.06181 1.73697 -0.20014
v 0.01512 1.75113 -0.25441
v 0.04748 1.74655 -0.23801
v 0.01512 1.74497 -0.24998
v -0.00638 1.74729 -0.25325
v 0.01253 1.75692 -0.25856
v 0.04748 1.76197 -0.24909
v 0.00766 1.76164 -0.26196
v -0.02529 1.73918 -0.24582
v -0.05374 1.73205 -0.22759
v -0.02789 1.74497 -0.24998
v -0.02042 1.73447 -0.24243
v -0.01385 1.73139 -0.24022
v 0.04098 1.73205 -0.22759
v 0.01253 1.73918 -0.24582
v -0.06024 1.74655 -0.23801
v -0.02789 1.75113 -0.25441
v 0.00766 1.73447 -0.24243
v -0.02529 1.75692 -0.25856
v -0.04153 1.78828 -0.268
v -0.02042 1.76164 -0.26196
v 0.00109 1.73139 -0.24022
v 0.00109 1.76471 -0.26417
v 0.01232 1.796 -0.27354
v -0.00638 1.76578 -0.26494
v -0.01385 1.76471 -0.26417
v -0.00638 1.79868 -0.27546
v -0.02508 1.796 -0.27354
v -0.00638 1.73032 -0.23945
v -0.00638 1.83289 -0.26906
v 0.02356 1.85497 -0.24437
v 0.02055 1.82903 -0.26629
v -0.03331 1.82903 -0.26629
v -0.03632 1.85497 -0.24437
v -0.00638 1.85926 -0.24745
v 0.04989 1.84262 -0.2355
v 0.04423 1.81793 -0.25831
v 0.02877 1.78828 -0.268
v 0.06181 1.80092 -0.24609
v 0.04098 1.77647 -0.25951
v 0.07116 1.78005 -0.2311
v 0.04098 1.77647 -0.25951
v 0.04748 1.76197 -0.24909
v 0.04748 1.74655 -0.23801
v 0.04098 1.73205 -0.22759
v 0.02877 1.72024 -0.2191
v 0.06181 1.73697 -0.20014
v 0.01232 1.71253 -0.21356
v 0.01253 1.73918 -0.24582
v 0.04098 1.73205 -0.22759
v 0.00766 1.73447 -0.24243
v 0.00109 1.73139 -0.24022
v -0.00638 1.70985 -0.21164
v -0.00638 1.73032 -0.23945
v -0.02508 1.71253 -0.21356
v -0.01385 1.73139 -0.24022
v -0.04153 1.72024 -0.2191
v -0.05699 1.71996 -0.18792
v -0.02042 1.73447 -0.24243
v -0.07457 1.73697 -0.20014
v -0.05374 1.73205 -0.22759
v -0.02529 1.73918 -0.24582
v -0.06024 1.76197 -0.24909
v -0.06024 1.74655 -0.23801
v -0.05374 1.73205 -0.22759
v -0.06024 1.76197 -0.24909
v -0.07457 1.80092 -0.24609
v -0.05374 1.77647 -0.25951
v -0.08392 1.78005 -0.2311
v -0.05699 1.81793 -0.25832
v -0.06265 1.84262 -0.2355
v 0.00988 2.46633 0.75358
v 0.00988 1.92609 -0.01531
v 0.00988 2.47442 0.74777
v 0.00403 1.91146 -0.00479
v 0.00988 1.91801 -0.00949
v 0.00403 2.45979 0.75828
v -0.02179 2.45964 0.77428
v -0.01491 2.45979 0.75828
v -0.00544 2.45533 0.77738
v -0.03189 2.47093 0.76617
v -0.02077 2.46633 0.75358
v -0.00544 2.45729 0.76007
v 0.00403 2.45979 0.75828
v 0.0109 2.45964 0.77428
v -0.02882 2.46685 0.80089
v 0.00403 2.48096 0.74307
v 0.00403 1.93264 -0.02001
v -0.00544 2.48346 0.74127
v -0.00544 1.93514 -0.0218
v -0.01491 1.93264 -0.02001
v -0.01491 2.48096 0.74307
v -0.02077 1.91801 -0.00949
v -0.02077 2.46633 0.75358
v -0.02077 1.92609 -0.01531
v -0.01491 1.91146 -0.00479
v -0.01491 2.45979 0.75828
v -0.01491 2.48096 0.74307
v -0.01491 1.93264 -0.02001
v -0.02077 2.47442 0.74777
v -0.00544 2.45729 0.76007
v -0.00544 1.90897 -0.003
v 0.00403 2.45979 0.75828
v -0.01491 2.45979 0.75828
v -0.01491 1.91146 -0.00479
v 0.00403 1.91146 -0.00479
v 0.00403 2.48096 0.74307
v 0.00403 1.93264 -0.02001
v 0.021 2.48488 0.75614
v 0.03237 2.48299 0.78929
v 0.021 2.47093 0.76617
v 0.03237 2.50295 0.77495
v 0.0109 2.45964 0.77428
v 0.00988 2.47442 0.74777
v 0.0109 2.49617 0.74803
v 0.01793 2.5191 0.76335
v 0.00988 2.46633 0.75358
v -0.01491 2.48096 0.74307
v -0.02179 2.49617 0.74803
v -0.00544 2.48346 0.74127
v -0.02077 2.47442 0.74777
v -0.03189 2.48488 0.75614
v -0.02882 2.5191 0.76335
v -0.00544 2.50048 0.74493
v 0.0109 2.49617 0.74803
v 0.00403 2.48096 0.74307
v 0.01793 2.5191 0.76335
v -0.00544 2.52526 0.75892
v 0.021 2.47093 0.76617
v 0.00988 2.46633 0.75358
v 0.021 2.48488 0.75614
v 0.00988 2.47442 0.74777
v -0.02077 2.47442 0.74777
v -0.03189 2.47093 0.76617
v -0.03189 2.48488 0.75614
v -0.02077 2.46633 0.75358
v -0.04326 2.50295 0.77495
v -0.02179 2.49617 0.74803
v -0.04326 2.48299 0.78929
v -0.02882 2.46685 0.80089
v -0.01741 2.50162 0.82238
v -0.04326 2.48299 0.78929
v -0.02481 2.5201 0.80909
v -0.04326 2.50295 0.77495
v -0.02481 2.50988 0.81644
v -0.02179 2.45964 0.77428
v -0.02882 2.46685 0.80089
v 0.01793 2.46685 0.80089
v 0.01793 2.46685 0.80089
v -0.00544 2.46068 0.80532
v -0.02882 2.5191 0.76335
v -0.01741 2.50162 0.82238
v -0.01741 2.52837 0.80315
v -0.02481 2.5201 0.80909
v -0.02481 2.50988 0.81644
v -0.00544 2.53152 0.80088
v 0.00652 2.50162 0.82238
v 0.00652 2.52837 0.80315
v 0.01392 2.5201 0.80909
v -0.00544 2.49846 0.82465
v 0.01392 2.50988 0.81644
v 0.03237 2.48299 0.78929
v 0.00652 2.50162 0.82238
v 0.01793 2.46685 0.80089
v 0.01392 2.5201 0.80909
v 0.01392 2.50988 0.81644
v 0.01793 2.5191 0.76335
v -0.00544 2.53152 0.80088
v 0.00652 2.52837 0.80315
v -0.00544 2.52526 0.75892
v -0.02882 2.5191 0.76335
v -0.01741 2.52837 0.80315
v -0.01741 2.52837 0.80315
v -0.02882 2.5191 0.76335
v -0.00544 2.49846 0.82465
v 0.01793 2.46685 0.80089
v 0.00652 2.50162 0.82238
v -0.02882 2.46685 0.80089
v -0.00544 2.46068 0.80532
v 0.00652 2.52837 0.80315
v 0.03237 2.50295 0.77495
v 0.01793 2.5191 0.76335
v -0.01741 2.50162 0.82238
vt 0.0491 0.9836
vt 0.0492 0.9836
vt 0.0492 0.9837
vt 0.0491 0.9836
vt 0.0491 0.9837
vt 0.0491 0.9837
vt 0.0492 0.9835
vt 0.0495 0.9837
vt 0.0494 0.9837
vt 0.0494 0.9837
vt 0.0495 0.9838
vt 0.0495 0.9837
vt 0.0494 0.9836
vt 0.0494 0.9836
vt 0.0495 0.9836
vt 0.0494 0.9836
vt 0.0495 0.9835
vt 0.0494 0.9835
vt 0.0495 0.9835
vt 0.0495 0.9836
vt 0.0496 0.9835
vt 0.0496 0.9836
vt 0.0495 0.9835
vt 0.0495 0.9836
vt 0.0496 0.9836
vt 0.0496 0.9836
vt 0.0495 0.9837
vt 0.0496 0.9837
vt 0.0495 0.9837
vt 0.0499 0.9835
vt 0.0498 0.9835
vt 0.0498 0.9835
vt 0.0499 0.9835
vt 0.0498 0.9836
vt 0.0499 0.9836
vt 0.0498 0.9836
vt 0.0499 0.9836
vt 0.0499 0.9837
vt 0.0498 0.9837
vt 0.0499 0.9837
vt 0.0498 0.9837
vt 0.0499 0.9835
vt 0.0499 0.9834
vt 0.0499 0.9834
vt 0.0498 0.9835
vt 0.0498 0.9835
vt 0.0499 0.9834
vt 0.0499 0.9835
vt 0.0491 0.9837
vt 0.0492 0.9837
vt 0.0492 0.9838
vt 0.0149 0.9841
vt 0.0148 0.9841
vt 0.0149 0.9841
vt 0.0147 0.9842
vt 0.0147 0.9841
vt 0.0148 0.9844
vt 0.0147 0.9842
vt 0.015 0.9843
vt 0.015 0.9843
vt 0.015 0.9842
vt 0.0147 0.9843
vt 0.0147 0.9844
vt 0.0147 0.9843
vt 0.015 0.9842
vt 0.0149 0.9844
vt 0.0149 0.9844
vt 0.0148 0.9844
vt 0.0148 0.9841
vt 0.0155 0.9848
vt 0.0155 0.9849
vt 0.0155 0.9849
vt 0.0155 0.9848
vt 0.0155 0.9849
vt 0.0155 0.9849
vt 0.0499 0.9833
vt 0.0499 0.9833
vt 0.0499 0.9833
vt 0.0499 0.9832
vt 0.0499 0.9833
vt 0.05 0.9833
vt 0.0499 0.9832
vt 0.0499 0.9832
vt 0.0498 0.9832
vt 0.0497 0.9833
vt 0.0497 0.9833
vt 0.0498 0.9832
vt 0.0498 0.9833
vt 0.0497 0.9833
vt 0.0497 0.9833
vt 0.0498 0.9835
vt 0.0498 0.9835
vt 0.0498 0.9834
vt 0.0499 0.9834
vt 0.05 0.9834
vt 0.0499 0.9834
vt 0.0498 0.9832
vt 0.0498 0.9832
vt 0.0498 0.9832
vt 0.0497 0.9834
vt 0.0498 0.9834
vt 0.0497 0.9834
vt 0.0497 0.9834
vt 0.0497 0.9834
vt 0.0153 0.9846
vt 0.0152 0.9846
vt 0.0153 0.9846
vt 0.0152 0.9846
vt 0.0152 0.9845
vt 0.0152 0.9845
vt 0.0152 0.9847
vt 0.0152 0.9846
vt 0.0155 0.9849
vt 0.0156 0.9849
vt 0.0156 0.9849
vt 0.0155 0.9849
vt 0.0156 0.9848
vt 0.0155 0.9849
vt 0.0156 0.9849
vt 0.0149 0.9848
vt 0.0149 0.9848
vt 0.0149 0.9848
vt 0.0149 0.9848
vt 0.0149 0.9849
vt 0.0155 0.9849
vt 0.0155 0.9849
vt 0.0155 0.9848
vt 0.0156 0.985
vt 0.0155 0.985
vt 0.0155 0.985
vt 0.0155 0.985
vt 0.0149 0.9848
vt 0.0149 0.9848
vt 0.0149 0.9848
vt 0.0149 0.9848
vt 0.0149 0.9849
vt 0.0149 0.9849
vt 0.0149 0.9849
vt 0.0149 0.9849
vt 0.0149 0.985
vt 0.0149 0.9849
vt 0.0149 0.985
vt 0.0149 0.9849
vt 0.0149 0.9849
vt 0.0149 0.9849
vt 0.0149 0.9849
vt 0.0149 0.9849
vt 0.0149 0.9849
vt 0.0149 0.985
vt 0.0149 0.985
vt 0.0152 0.9849
vt 0.0152 0.9849
vt 0.0152 0.9849
vt 0.0152 0.9849
vt 0.015 0.9845
vt 0.015 0.9845
vt 0.015 0.9845
vt 0.015 0.9845
vt 0.0151 0.9845
vt 0.0151 0.9845
vt 0.015 0.9846
vt 0.015 0.9846
vt 0.015 0.9846
vt 0.015 0.9847
vt 0.015 0.9846
vt 0.015 0.9846
vt 0.0152 0.9847
vt 0.0152 0.9847
vt 0.0151 0.9845
vt 0.0151 0.9845
vt 0.0152 0.9845
vt 0.0152 0.9845
vt 0.0152 0.9847
vt 0.0152 0.9847
vt 0.0151 0.9847
vt 0.0152 0.9845
vt 0.0152 0.9845
vt 0.0151 0.9847
vt 0.0151 0.9847
vt 0.0151 0.9847
vt 0.015 0.9847
vt 0.015 0.9847
vt 0.0148 0.9848
vt 0.0147 0.9849
vt 0.0147 0.9848
vt 0.0148 0.9848
vt 0.0147 0.9848
vt 0.015 0.9845
vt 0.0149 0.9844
vt 0.015 0.9844
vt 0.0149 0.9845
vt 0.0149 0.9844
vt 0.015 0.9844
vt 0.015 0.9845
vt 0.0149 0.9845
vt 0.015 0.9846
vt 0.0149 0.9847
vt 0.0149 0.9846
vt 0.015 0.9847
vt 0.0149 0.9847
vt 0.015 0.9846
vt 0.0149 0.9846
vt 0.015 0.9847
vt 0.0149 0.9847
vt 0.015 0.9846
vt 0.0149 0.9846
vt 0.015 0.9847
vt 0.0149 0.9848
vt 0.015 0.9848
vt 0.0149 0.9848
vt 0.0152 0.9847
vt 0.0152 0.9848
vt 0.0152 0.9848
vt 0.0152 0.9847
vt 0.0152 0.9848
vt 0.0152 0.9848
vt 0.015 0.9848
vt 0.0148 0.985
vt 0.0147 0.985
vt 0.0148 0.9849
vt 0.0147 0.9849
vt 0.0148 0.9849
vt 0.0153 0.9842
vt 0.0153 0.9841
vt 0.0153 0.9841
vt 0.0153 0.9841
vt 0.0153 0.9841
vt 0.0154 0.9841
vt 0.0153 0.9842
vt 0.0153 0.9842
vt 0.0153 0.9842
vt 0.0153 0.9842
vt 0.0153 0.9843
vt 0.0153 0.9843
vt 0.0153 0.9843
vt 0.0153 0.9843
vt 0.0154 0.9843
vt 0.0153 0.9843
vt 0.0154 0.9843
vt 0.0154 0.9843
vt 0.0154 0.9843
vt 0.0154 0.9843
vt 0.0155 0.9843
vt 0.0155 0.9843
vt 0.0155 0.9843
vt 0.0155 0.9843
vt 0.0155 0.9842
vt 0.0155 0.9842
vt 0.0155 0.9842
vt 0.0155 0.9842
vt 0.0155 0.9841
vt 0.0155 0.9842
vt 0.0155 0.9841
vt 0.0155 0.9841
vt 0.0154 0.9841
vt 0.0154 0.9841
vt 0.0154 0.9841
vt 0.0154 0.9841
vt 0.0155 0.9842
vt 0.0154 0.9841
vt 0.0155 0.9842
vt 0.0155 0.9843
vt 0.0154 0.9841
vt 0.0154 0.9841
vt 0.0153 0.9841
vt 0.0153 0.9842
vt 0.0155 0.9841
vt 0.0155 0.9842
vt 0.0155 0.9843
vt 0.0153 0.9843
vt 0.0153 0.9842
vt 0.0154 0.9843
vt 0.0153 0.9843
vt 0.0154 0.9843
vt 0.0154 0.9843
vt 0.0153 0.9842
vt 0.0148 0.9849
vt 0.0148 0.9848
vt 0.0149 0.9848
vt 0.0149 0.9849
vt 0.0149 0.985
vt 0.0149 0.985
vt 0.0149 0.985
vt 0.0149 0.9848
vt 0.0148 0.9849
vt 0.0148 0.9851
vt 0.0148 0.9851
vt 0.0148 0.9849
vt 0.0148 0.9849
vt 0.0148 0.9849
vt 0.0148 0.9849
vt 0.0148 0.9851
vt 0.0148 0.9849
vt 0.0148 0.9849
vt 0.0148 0.9851
vt 0.0152 0.9849
vt 0.0152 0.9849
vt 0.0152 0.9849
vt 0.0152 0.9849
vt 0.0152 0.9849
vt 0.0152 0.9847
vt 0.0152 0.9847
vt 0.0152 0.9847
vt 0.0148 0.9849
vt 0.0148 0.9848
vt 0.0148 0.9848
vt 0.0148 0.9849
vt 0.0148 0.9848
vt 0.0148 0.985
vt 0.0148 0.985
vt 0.0148 0.9849
vt 0.0148 0.9848
vt 0.0148 0.985
vt 0.0148 0.985
vt 0.0148 0.9849
vt 0.0149 0.9849
vt 0.0154 0.9844
vt 0.0154 0.9844
vt 0.0154 0.9844
vt 0.0154 0.9844
vt 0.0154 0.9844
vt 0.0154 0.9844
vt 0.0154 0.9844
vt 0.0154 0.9844
vt 0.0154 0.9844
vt 0.0154 0.9844
vt 0.0148 0.9851
vt 0.0148 0.9851
vt 0.0156 0.9848
vt 0.0156 0.985
vt 0.0156 0.985
vt 0.0156 0.9848
vt 0.0156 0.9848
vt 0.0149 0.985
vt 0.015 0.9848
vt 0.015 0.985
vt 0.0149 0.9848
vt 0.015 0.9848
vt 0.015 0.985
vt 0.0149 0.985
vt 0.0149 0.9848
vt 0.015 0.985
vt 0.015 0.9848
vt 0.015 0.985
vt 0.015 0.9848
vt 0.015 0.985
vt 0.015 0.9848
vt 0.0149 0.985
vt 0.0149 0.9848
vt 0.0149 0.9848
vt 0.0149 0.985
vt 0.0149 0.9848
vt 0.0149 0.985
vt 0.0149 0.9848
vt 0.0149 0.985
vt 0.0153 0.9844
vt 0.0153 0.9844
vt 0.0153 0.9844
vt 0.0153 0.9844
vt 0.0153 0.9844
vt 0.0153 0.9844
vt 0.0153 0.9844
vt 0.0153 0.9844
vt 0.0153 0.9844
vt 0.0153 0.9844
vt 0.0153 0.9844
vt 0.0153 0.9844
vt 0.0153 0.9844
vt 0.0153 0.9844
vt 0.0153 0.9844
vt 0.0153 0.9844
vt 0.0153 0.9844
vt 0.0153 0.9844
vt 0.0153 0.9844
vt 0.0153 0.9844
vt 0.0154 0.9844
vt 0.0154 0.9844
vt 0.0154 0.9844
vt 0.0154 0.9844
vt 0.0154 0.9844
vt 0.0154 0.9844
vt 0.0154 0.9844
vt 0.0154 0.9844
vt 0.0154 0.9844
vt 0.0154 0.9844
vt 0.0154 0.9844
vt 0.0154 0.9844
vt 0.0154 0.9844
vt 0.0154 0.9844
vt 0.0154 0.9844
vt 0.0154 0.9844
vt 0.0154 0.9844
vt 0.0154 0.9844
vt 0.0154 0.9844
vt 0.0154 0.9844
vt 0.0154 0.9844
vt 0.0154 0.9844
vt 0.0154 0.9844
vt 0.0154 0.9844
vt 0.0154 0.9844
vt 0.0154 0.9844
vt 0.0154 0.9844
vt 0.0154 0.9844
vt 0.0154 0.9844
vt 0.0154 0.9844
vt 0.0154 0.9844
vt 0.0154 0.9844
vt 0.0154 0.9844
vt 0.0154 0.9844
vt 0.0154 0.9844
vt 0.0154 0.9844
vt 0.0154 0.9844
vt 0.0154 0.9844
vt 0.0156 0.985
vt 0.0148 0.9848
vt 0.0148 0.9849
vt 0.0148 0.9848
vt 0.0148 0.9848
vt 0.0152 0.9849
vt 0.0149 0.9851
vt 0.0149 0.9851
vt 0.0148 0.9851
vt 0.0148 0.9851
vt 0.0154 0.9844
vt 0.0154 0.9844
vt 0.0154 0.9844
vt 0.0154 0.9844
vt 0.0154 0.9844
vt 0.0154 0.9844
vt 0.0154 0.9844
vt 0.0154 0.9844
vt 0.0154 0.9844
vt 0.0154 0.9844
vt 0.0149 0.9851
vt 0.0152 0.985
vt 0.0152 0.985
vt 0.0148 0.9848
vt 0.0152 0.985
vt 0.0154 0.9844
vt 0.0154 0.9844
vt 0.0154 0.9844
vt 0.0154 0.9843
vt 0.0154 0.9844
vt 0.0154 0.9844
vt 0.0154 0.9844
vt 0.0154 0.9844
vt 0.0149 0.985
vt 0.015 0.985
vt 0.0149 0.985
vt 0.0149 0.985
vt 0.0154 0.9843
vt 0.0154 0.9844
vt 0.0154 0.9843
vt 0.0154 0.9844
vt 0.015 0.985
vt 0.015 0.985
vt 0.015 0.985
vt 0.015 0.985
vt 0.0154 0.9844
vt 0.0154 0.9844
vt 0.0154 0.9844
vt 0.0154 0.9844
vt 0.0154 0.9844
vt 0.0154 0.9844
vt 0.0149 0.985
vt 0.0149 0.985
vt 0.0149 0.985
vt 0.0149 0.985
vt 0.0154 0.9844
vt 0.0154 0.9844
vt 0.0154 0.9844
vt 0.0154 0.9844
vt 0.0154 0.9844
vt 0.0154 0.9844
vt 0.0154 0.9844
vt 0.0154 0.9844
vt 0.0154 0.9844
vt 0.0154 0.9844
vt 0.0154 0.9844
vt 0.0154 0.9844
vt 0.0156 0.9846
vt 0.0155 0.9846
vt 0.0156 0.9845
vt 0.0156 0.9846
vt 0.0155 0.9846
vt 0.0155 0.9846
vt 0.0155 0.9845
vt 0.0156 0.9845
vt 0.0155 0.9846
vt 0.0156 0.9846
vt 0.0156 0.9846
vt 0.0156 0.9843
vt 0.0156 0.9843
vt 0.0156 0.9844
vt 0.0155 0.9843
vt 0.0156 0.9843
vt 0.0156 0.9843
vt 0.0156 0.9844
vt 0.0156 0.9844
vt 0.0155 0.9843
vt 0.0156 0.9843
vt 0.0157 0.9843
vt 0.0148 0.9844
vt 0.0148 0.9844
vt 0.0149 0.9844
vt 0.0148 0.9845
vt 0.0148 0.9845
vt 0.0148 0.9844
vt 0.0149 0.9844
vt 0.0149 0.9845
vt 0.0148 0.9845
vt 0.0147 0.9844
vt 0.0156 0.9841
vt 0.0156 0.9841
vt 0.0156 0.9841
vt 0.0156 0.9841
vt 0.0156 0.9841
vt 0.0156 0.9841
vt 0.0156 0.9841
vt 0.0156 0.9842
vt 0.0155 0.9842
vt 0.0147 0.9845
vt 0.0147 0.9845
vt 0.0147 0.9845
vt 0.0156 0.9842
vt 0.0156 0.9842
vt 0.0147 0.9847
vt 0.0147 0.9846
vt 0.0147 0.9847
vt 0.0147 0.9846
vt 0.0147 0.9846
vt 0.0147 0.9846
vt 0.0147 0.9846
vt 0.0147 0.9845
vt 0.0147 0.9845
vt 0.0147 0.9847
vt 0.0147 0.9847
vt 0.0148 0.9847
vt 0.0147 0.9848
vt 0.0147 0.9847
vt 0.0156 0.9844
vt 0.0148 0.9848
vt 0.0148 0.9848
vt 0.0156 0.9844
vt 0.0148 0.9847
vt 0.0148 0.9848
vt 0.0156 0.9844
vt 0.0156 0.9844
vt 0.0149 0.9848
vt 0.0148 0.9847
vt 0.0149 0.9847
vt 0.0149 0.9845
vt 0.0149 0.9845
vt 0.0149 0.9846
vt 0.0148 0.9846
vt 0.0149 0.9845
vt 0.0149 0.9845
vt 0.0149 0.9846
vt 0.0148 0.9847
vt 0.0149 0.9847
vt 0.0148 0.9845
vt 0.0157 0.9841
vt 0.0157 0.9842
vt 0.0156 0.9842
vt 0.0148 0.9846
vt 0.0148 0.9846
vt 0.0148 0.9846
vt 0.0148 0.9846
vt 0.0148 0.9845
vt 0.0148 0.9846
vt 0.0156 0.9843
vt 0.0156 0.9843
vt 0.0148 0.9847
vt 0.0149 0.9847
vt 0.0149 0.9846
vt 0.0149 0.9847
vt 0.0149 0.9846
vt 0.0152 0.9841
vt 0.0151 0.9841
vt 0.0152 0.9841
vt 0.0151 0.9841
vt 0.0151 0.9841
vt 0.0151 0.9841
vt 0.0151 0.9841
vt 0.0149 0.9846
vt 0.0149 0.9846
vt 0.0156 0.9845
vt 0.0156 0.9845
vt 0.0156 0.9845
vt 0.0156 0.9845
vt 0.0151 0.9842
vt 0.0151 0.9841
vt 0.015 0.9841
vt 0.015 0.9843
vt 0.015 0.9843
vt 0.015 0.9843
vt 0.0151 0.9842
vt 0.0151 0.9843
vt 0.0151 0.9843
vt 0.015 0.9843
vt 0.015 0.9842
vt 0.015 0.9842
vt 0.0151 0.9843
vt 0.015 0.9844
vt 0.015 0.9844
vt 0.015 0.9841
vt 0.0155 0.9847
vt 0.0156 0.9846
vt 0.0156 0.9847
vt 0.0151 0.9844
vt 0.0155 0.9847
vt 0.0156 0.9847
vt 0.0156 0.9847
vt 0.0151 0.9844
vt 0.0151 0.9844
vt 0.0151 0.9844
vt 0.0155 0.9848
vt 0.0156 0.9848
vt 0.0156 0.9848
vt 0.0151 0.9844
vt 0.0151 0.9844
vt 0.0152 0.9845
vt 0.0156 0.9848
vt 0.0152 0.9844
vt 0.0152 0.9844
vt 0.0152 0.9844
vt 0.0152 0.9844
vt 0.0156 0.9848
vt 0.0156 0.9848
vt 0.0156 0.9848
vt 0.0153 0.9843
vt 0.0152 0.9843
vt 0.0152 0.9843
vt 0.0152 0.9843
vt 0.0152 0.9843
vt 0.0152 0.9843
vt 0.0152 0.9842
vt 0.0151 0.9842
vt 0.0152 0.9841
vt 0.0152 0.9843
vt 0.0151 0.9843
vt 0.0156 0.9847
vt 0.0156 0.9847
vt 0.0151 0.9842
vt 0.0151 0.9842
vt 0.0151 0.9843
vt 0.0151 0.9843
vt 0.0151 0.9843
vt 0.0156 0.9846
vt 0.0152 0.9842
vt 0.0152 0.9841
vt 0.0152 0.9842
vt 0.0153 0.9842
vt 0.0152 0.9842
vt 0.0152 0.9842
vt 0.0152 0.9843
vt 0.015 0.9845
vt 0.015 0.9845
vt 0.015 0.9845
vt 0.015 0.9846
vt 0.015 0.9845
vt 0.0153 0.9848
vt 0.0153 0.9847
vt 0.0153 0.9848
vt 0.0153 0.9847
vt 0.015 0.9844
vt 0.015 0.9844
vt 0.0153 0.9848
vt 0.0153 0.9848
vt 0.0153 0.9849
vt 0.0154 0.9849
vt 0.0154 0.9849
vt 0.0155 0.9849
vt 0.0154 0.9849
vt 0.0155 0.985
vt 0.0154 0.9848
vt 0.0155 0.9848
vt 0.0155 0.9847
vt 0.0155 0.9848
vt 0.0155 0.9847
vt 0.0153 0.9849
vt 0.0153 0.9849
vt 0.0155 0.985
vt 0.0155 0.985
vt 0.0155 0.9848
vt 0.0153 0.9849
vt 0.0153 0.985
vt 0.0155 0.985
vt 0.0153 0.985
vt 0.0153 0.985
vt 0.015 0.9848
vt 0.015 0.9847
vt 0.015 0.9848
vt 0.015 0.9847
vt 0.015 0.9847
vt 0.0153 0.985
vt 0.015 0.9847
vt 0.015 0.9846
vt 0.015 0.9846
vt 0.015 0.9846
vt 0.0154 0.9843
vt 0.0154 0.9843
vt 0.0154 0.9844
vt 0.0154 0.9843
vt 0.0154 0.9844
vt 0.0154 0.9844
vt 0.0154 0.9844
vt 0.0154 0.9843
vt 0.0154 0.9844
vt 0.0154 0.9844
vt 0.0154 0.9844
vt 0.0154 0.9844
vt 0.0154 0.9844
vt 0.0154 0.9844
vt 0.0154 0.9844
vt 0.0154 0.9844
vt 0.0154 0.9844
vt 0.0154 0.9844
vt 0.0154 0.9844
vt 0.0153 0.9844
vt 0.0153 0.9844
vt 0.0153 0.9844
vt 0.0153 0.9844
vt 0.0153 0.9844
vt 0.0153 0.9844
vt 0.0153 0.9844
vt 0.0153 0.9844
vt 0.0153 0.9844
vt 0.0153 0.9844
vt 0.0153 0.9844
vt 0.0153 0.9844
vt 0.0153 0.9844
vt 0.0153 0.9844
vt 0.0153 0.9844
vt 0.0153 0.9844
vt 0.0153 0.9844
vt 0.0153 0.9844
vt 0.0153 0.9844
vt 0.0153 0.9844
vt 0.0153 0.9844
vt 0.0153 0.9843
vt 0.0153 0.9844
vt 0.0153 0.9844
vt 0.0153 0.9843
vt 0.0153 0.9844
vt 0.0153 0.9844
vt 0.0153 0.9844
vt 0.0153 0.9844
vt 0.0153 0.9844
vt 0.0153 0.9843
vt 0.0153 0.9843
vt 0.0153 0.9844
vt 0.0154 0.9844
vt 0.0154 0.9844
vt 0.0154 0.9844
vt 0.0154 0.9844
vt 0.0154 0.9844
vt 0.0154 0.9844
vt 0.0154 0.9844
vt 0.0153 0.9843
vt 0.0153 0.9844
vt 0.0153 0.9844
vt 0.0153 0.9844
vt 0.0153 0.9844
vt 0.0153 0.9844
vt 0.0153 0.9844
vt 0.0153 0.9844
vt 0.0153 0.9844
vt 0.0153 0.9844
vt 0.0153 0.9844
vt 0.0153 0.9844
vt 0.0154 0.9844
vt 0.0154 0.9844
vt 0.0154 0.9844
vt 0.0153 0.9844
vt 0.0153 0.9844
vt 0.0153 0.9844
vt 0.0153 0.9844
vt 0.0153 0.9844
vt 0.0153 0.9844
vt 0.0153 0.9844
vt 0.0153 0.9844
vt 0.0153 0.9844
vt 0.0153 0.9844
vt 0.0153 0.9844
vt 0.0153 0.9844
vt 0.0153 0.9844
vt 0.0153 0.9844
vt 0.0153 0.9844
vt 0.0153 0.9844
vt 0.0153 0.9844
vt 0.0153 0.9844
vt 0.0153 0.9844
vt 0.0153 0.9844
vt 0.0153 0.9844
vt 0.0153 0.9844
vt 0.0153 0.9844
vt 0.0153 0.9844
vt 0.0153 0.9844
vt 0.0153 0.9844
vt 0.0153 0.9844
vt 0.0153 0.9844
vt 0.0153 0.9844
vt 0.0153 0.9844
vt 0.0153 0.9844
vt 0.0153 0.9844
vt 0.0153 0.9844
vt 0.0153 0.9844
vt 0.0153 0.9844
vt 0.0153 0.9844
vt 0.0153 0.9844
vt 0.0153 0.9844
vt 0.0153 0.9844
vt 0.0153 0.9844
vt 0.0153 0.9844
vt 0.0153 0.9844
vt 0.0153 0.9844
vt 0.0153 0.9844
vt 0.0153 0.9843
vt 0.0153 0.9843
vt 0.0153 0.9843
vt 0.0153 0.9843
vt 0.0153 0.9844
vt 0.0153 0.9844
vt 0.0153 0.9844
vt 0.0153 0.9844
vt 0.0153 0.9844
vt 0.0153 0.9844
vt 0.0153 0.9844
vt 0.0153 0.9844
vt 0.0153 0.9844
vt 0.0153 0.9844
vt 0.0153 0.9844
vt 0.0153 0.9844
vt 0.0153 0.9844
vt 0.0153 0.9844
vt 0.0154 0.9844
vt 0.0153 0.9844
vt 0.0153 0.9844
vt 0.0153 0.9843
vt 0.0153 0.9843
vt 0.0153 0.9843
vt 0.0153 0.9844
vt 0.0153 0.9844
vt 0.0153 0.9844
vt 0.0153 0.9844
vt 0.0153 0.9844
vt 0.0153 0.9844
vt 0.0156 0.9848
vt 0.0156 0.9851
vt 0.0156 0.9848
vt 0.0156 0.9851
vt 0.0156 0.9851
vt 0.0156 0.9848
vt 0.015 0.9848
vt 0.015 0.9848
vt 0.015 0.9848
vt 0.015 0.9848
vt 0.015 0.9848
vt 0.015 0.9848
vt 0.015 0.9848
vt 0.015 0.9848
vt 0.015 0.9848
vt 0.0153 0.9849
vt 0.0153 0.9847
vt 0.0153 0.9849
vt 0.0153 0.9847
vt 0.0153 0.9847
vt 0.0153 0.9849
vt 0.0156 0.9851
vt 0.0156 0.9848
vt 0.0156 0.9851
vt 0.0156 0.9851
vt 0.0156 0.9848
vt 0.0156 0.9848
vt 0.0156 0.9851
vt 0.0156 0.9848
vt 0.015 0.9848
vt 0.015 0.985
vt 0.015 0.9848
vt 0.015 0.9848
vt 0.015 0.985
vt 0.015 0.985
vt 0.0156 0.9848
vt 0.0156 0.9851
vt 0.0156 0.9848
vt 0.0156 0.9848
vt 0.0156 0.9848
vt 0.0156 0.9848
vt 0.0156 0.9848
vt 0.0156 0.9848
vt 0.0156 0.9848
vt 0.0156 0.9848
vt 0.0156 0.9848
vt 0.0154 0.9844
vt 0.0154 0.9844
vt 0.0154 0.9844
vt 0.0154 0.9844
vt 0.0154 0.9844
vt 0.0154 0.9844
vt 0.0154 0.9844
vt 0.0154 0.9844
vt 0.0154 0.9844
vt 0.0154 0.9844
vt 0.0154 0.9844
vt 0.015 0.9848
vt 0.015 0.9848
vt 0.0154 0.9844
vt 0.0154 0.9844
vt 0.0156 0.9848
vt 0.0156 0.9848
vt 0.0156 0.9848
vt 0.0156 0.9848
vt 0.0156 0.9848
vt 0.0156 0.9848
vt 0.0156 0.9848
vt 0.0156 0.9848
vt 0.0156 0.9848
vt 0.0156 0.9848
vt 0.0156 0.9848
vt 0.0156 0.9848
vt 0.0156 0.9848
vt 0.0156 0.9848
vt 0.0156 0.9848
vt 0.0156 0.9848
vt 0.015 0.9848
vt 0.015 0.9848
vt 0.0156 0.9848
vt 0.0154 0.9844
vt 0.0154 0.9844
vt 0.0154 0.9844
vt 0.0154 0.9844
vt 0.0154 0.9844
vt 0.0154 0.9844
vt 0.0154 0.9844
vt 0.0154 0.9844
vt 0.0154 0.9844
vt 0.0154 0.9844
vt 0.0156 0.9848
vt 0.0156 0.9848
vt 0.0156 0.9848
vt 0.0156 0.9848
vt 0.0156 0.9848
vt 0.0154 0.9845
vt 0.0154 0.9844
vt 0.0154 0.9844
vt 0.0154 0.9844
vt 0.0154 0.9844
vt 0.0154 0.9844
vt 0.0156 0.9848
vt 0.0156 0.9848
vt 0.0154 0.9844
vt 0.0154 0.9843
vt 0.0154 0.9844
vt 0.0154 0.9843
vt 0.0154 0.9843
vt 0.0156 0.9848
vt 0.0156 0.9848
vt 0.0156 0.9848
vt 0.0154 0.9844
vn 0.312 0.41 -0.857
vn 0.312 0.41 -0.857
vn 0 0.41 -0.912
vn 0.586 0.41 -0.699
vn 0 0.41 -0.912
vn -0.312 0.41 -0.857
vn 0.586 0.41 -0.699
vn 0.79 0.41 -0.456
vn 0.586 0.41 -0.699
vn 0.79 0.41 -0.456
vn 0.586 0.41 -0.699
vn 0.898 0.41 -0.158
vn 0.898 0.41 -0.158
vn 0.898 0.41 0.158
vn 0.898 0.41 0.158
vn 0.79 0.41 0.456
vn 0.79 0.41 0.456
vn 0.586 0.41 0.699
vn 0.586 0.41 0.699
vn 0.312 0.41 0.857
vn 0.586 0.41 0.699
vn 0.312 0.41 0.857
vn 0.586 0.41 0.699
vn 0 0.41 0.912
vn 0 0.41 0.912
vn -0.312 0.41 0.857
vn -0.312 0.41 0.857
vn -0.586 0.41 0.699
vn -0.586 0.41 0.699
vn -0.586 0.41 0.699
vn -0.79 0.41 0.456
vn -0.586 0.41 0.699
vn -0.79 0.41 0.456
vn -0.898 0.41 0.158
vn -0.898 0.41 0.158
vn -0.898 0.41 -0.158
vn -0.898 0.41 -0.158
vn -0.79 0.41 -0.456
vn -0.79 0.41 -0.456
vn -0.586 0.41 -0.699
vn -0.586 0.41 -0.699
vn 0 1 0
vn 0 1 0
vn 0 1 0
vn 0 1 0
vn 0 1 0
vn 0 1 0
vn 0 1 0
vn -0.586 0.41 -0.699
vn -0.312 0.41 -0.857
vn -0.586 0.41 -0.699
vn 0 -1 0
vn 0 -1 0
vn 0 -1 0
vn 0 -1 0
vn 0 -1 0
vn 0 -1 0
vn 0 -1 0
vn 0 -1 0
vn 0 -1 0
vn 0 -1 0
vn 0 -1 0
vn 0 -1 0
vn 0 -1 0
vn 0 -1 0
vn 0 -1 0
vn 0 -1 0
vn 0 -1 0
vn 0 -1 0
vn 0.643 0 0.766
vn 0.342 0 0.94
vn 0.342 0 0.94
vn 0.643 0 0.766
vn 0 0 1
vn 0 0 1
vn 0 1 0
vn 0 1 0
vn 0 1 0
vn 0 1 0
vn 0 1 0
vn 0 1 0
vn 0 1 0
vn 0 1 0
vn 0 1 0
vn 0 1 0
vn 0 1 0
vn 0 1 0
vn 0 1 0
vn 0 1 0
vn 0 1 0
vn 0 1 0
vn 0 1 0
vn 0 1 0
vn 0 1 0
vn 0 1 0
vn 0 1 0
vn 0 1 0
vn 0 1 0
vn 0 1 0
vn 0 1 0
vn 0 1 0
vn 0 1 0
vn 0 1 0
vn 0 1 0
vn 0 -1 0
vn 0 -1 0
vn 0 -1 0
vn 0 -1 0
vn 0 -1 0
vn 0 -1 0
vn 0 -1 0
vn 0 -1 0
vn 0 0 -1
vn 0.342 0 -0.94
vn 0 0 -1
vn 0.342 0 -0.94
vn 0.643 0 -0.766
vn -0.342 0 -0.94
vn -0.342 0 -0.94
vn -0.866 0 -0.5
vn -0.643 0 -0.766
vn -0.866 0 -0.5
vn -0.643 0 -0.766
vn -0.985 0 -0.174
vn -0.342 0 0.94
vn -0.342 0 0.94
vn 0.643 0 -0.766
vn -0.643 0 -0.766
vn -0.643 0 -0.766
vn -0.643 0 0.766
vn -0.643 0 0.766
vn 0.866 0 -0.5
vn 0.643 0 -0.766
vn 0.643 0 -0.766
vn 0.866 0 -0.5
vn 0.985 0 -0.174
vn 0.985 0 -0.174
vn 0.985 0 0.174
vn 0.985 0 0.174
vn -0.643 0 0.766
vn -0.866 0 0.5
vn -0.643 0 0.766
vn -0.866 0 0.5
vn -0.985 0 0.174
vn 0.866 0 0.5
vn 0.866 0 0.5
vn -0.985 0 0.174
vn -0.985 0 -0.174
vn 0.643 0 0.766
vn 0.643 0 0.766
vn -0.342 0 0.94
vn -0.643 0 0.766
vn -0.342 0 0.94
vn -0.643 0 0.766
vn 0 -1 0
vn 0 -1 0
vn 0 -1 0
vn 0 -1 0
vn 0 -1 0
vn 0 -1 0
vn 0 -1 0
vn 0 -1 0
vn 0 -1 0
vn 0 -1 0
vn 0 -1 0
vn 0 -1 0
vn 0 -1 0
vn 0 -1 0
vn 0 -1 0
vn 0 -1 0
vn 0 -1 0
vn 0 -1 0
vn 0 -1 0
vn 0 -1 0
vn 0 -1 0
vn 0 -1 0
vn 0 -1 0
vn 0 -1 0
vn 0 -1 0
vn 0 -1 0
vn 0 -1 0
vn 0 -1 0
vn 0.342 0 -0.94
vn 0 0 -1
vn 0.342 0 -0.94
vn 0.643 0 -0.766
vn 0.643 0 -0.766
vn 0.985 0 -0.174
vn 0.866 0 -0.5
vn 0.866 0 -0.5
vn 0.985 0 -0.174
vn 0.643 0 -0.766
vn 0.643 0 -0.766
vn 0.985 0 0.174
vn 0.985 0 0.174
vn -0.643 0 0.766
vn -0.866 0 0.5
vn -0.643 0 0.766
vn -0.866 0 0.5
vn -0.985 0 0.174
vn 0.866 0 0.5
vn 0.866 0 0.5
vn -0.985 0 0.174
vn -0.985 0 -0.174
vn 0.643 0 0.766
vn 0.643 0 0.766
vn -0.985 0 -0.174
vn -0.866 0 -0.5
vn -0.866 0 -0.5
vn -0.643 0 -0.766
vn 0.643 0 0.766
vn 0.342 0 0.94
vn 0.342 0 0.94
vn 0.643 0 0.766
vn 0 0 1
vn 0 0 1
vn -0.643 0 -0.766
vn -0.643 0 -0.766
vn -0.643 0 -0.766
vn -0.342 0 -0.94
vn -0.342 0 -0.94
vn 0 0 -1
vn 0.229 0.742 -0.63
vn 0 0.742 -0.67
vn 0 0.742 -0.67
vn 0.229 0.742 -0.63
vn -0.229 0.742 -0.63
vn -0.229 0.742 -0.63
vn 0.431 0.742 -0.513
vn 0.431 0.742 -0.513
vn 0.58 0.742 -0.335
vn 0.58 0.742 -0.335
vn 0.66 0.742 -0.116
vn 0.66 0.742 -0.116
vn 0.66 0.742 0.116
vn 0.66 0.742 0.116
vn 0.58 0.742 0.335
vn 0.58 0.742 0.335
vn 0.431 0.742 0.513
vn 0.431 0.742 0.513
vn 0.229 0.742 0.63
vn 0.229 0.742 0.63
vn 0 0.742 0.67
vn 0 0.742 0.67
vn -0.229 0.742 0.63
vn -0.229 0.742 0.63
vn -0.431 0.742 0.513
vn -0.58 0.742 0.335
vn -0.58 0.742 0.335
vn -0.431 0.742 0.513
vn -0.66 0.742 0.116
vn -0.66 0.742 0.116
vn -0.66 0.742 -0.116
vn -0.66 0.742 -0.116
vn -0.58 0.742 -0.335
vn -0.58 0.742 -0.335
vn -0.431 0.742 -0.513
vn -0.431 0.742 -0.513
vn 0 1 0
vn 0 1 0
vn 0 1 0
vn 0 1 0
vn 0 1 0
vn 0 1 0
vn 0 1 0
vn 0 1 0
vn 0 1 0
vn 0 1 0
vn 0 1 0
vn 0 1 0
vn 0 1 0
vn 0 1 0
vn 0 1 0
vn 0 1 0
vn 0 1 0
vn 0 1 0
vn 0.559 0.311 -0.769
vn 0.588 0 -0.809
vn 0 0 -1
vn 0 0.311 -0.95
vn -0.55 0.352 -0.757
vn 0 0.352 -0.936
vn 0.55 0.352 -0.757
vn -0.588 0 -0.809
vn 0.904 0.311 -0.294
vn 0.951 0 -0.309
vn 0.588 0 -0.809
vn 0.559 0.311 -0.769
vn 0.89 0.352 0.289
vn 0.904 0.311 0.294
vn 0.55 0.352 -0.757
vn 0.951 0 0.309
vn 0.55 0.352 0.757
vn 0.559 0.311 0.769
vn 0.588 0 0.809
vn 0 0.311 0.95
vn 0.559 0.311 0.769
vn 0.55 0.352 0.757
vn -0.55 0.352 0.757
vn -0.559 0.311 0.769
vn 0.588 0 0.809
vn 0 0 1
vn -0.588 0 0.809
vn -0.559 0.311 0.769
vn -0.951 0 0.309
vn -0.588 0 0.809
vn -0.904 0.311 0.294
vn -0.951 0 -0.309
vn -0.55 0.352 0.757
vn -0.89 0.352 0.289
vn -0.904 0.311 -0.294
vn -0.588 0 -0.809
vn -0.89 0.352 -0.289
vn -0.55 0.352 -0.757
vn -0.559 0.311 -0.769
vn -0.559 0.311 -0.769
vn 0 -1 0
vn 0 -1 0
vn 0 -1 0
vn 0 -1 0
vn 0 -1 0
vn 0 -1 0
vn 0 -1 0
vn 0 -1 0
vn 0 -1 0
vn 0 -1 0
vn -0.588 0 0.809
vn -0.951 0 0.309
vn 0 0 -1
vn 0 0 -1
vn -0.588 0 -0.809
vn 0.588 0 -0.809
vn -0.588 0 -0.809
vn 0.951 0 0.309
vn 0.951 0 -0.309
vn 0.951 0 -0.309
vn 0.951 0 0.309
vn 0.588 0 -0.809
vn 0.588 0 -0.809
vn 0.588 0 0.809
vn 0.588 0 0.809
vn 0 0 1
vn 0.588 0 0.809
vn 0.588 0 0.809
vn 0 0 1
vn -0.588 0 0.809
vn -0.588 0 0.809
vn -0.588 0 0.809
vn -0.951 0 0.309
vn -0.588 0 0.809
vn -0.951 0 0.309
vn -0.951 0 -0.309
vn -0.951 0 -0.309
vn -0.588 0 -0.809
vn -0.588 0 -0.809
vn 0 1 0
vn 0 1 0
vn 0 1 0
vn 0 1 0
vn 0 1 0
vn 0 1 0
vn 0 1 0
vn 0 1 0
vn 0 1 0
vn 0 1 0
vn 0 -1 0
vn 0 -1 0
vn 0 -1 0
vn 0 -1 0
vn 0 -1 0
vn 0 -1 0
vn 0 -1 0
vn 0 -1 0
vn 0 -1 0
vn 0 -1 0
vn 0.951 0 -0.309
vn 0.588 0 -0.809
vn 0.588 0 -0.809
vn 0.951 0 -0.309
vn 0.951 0 0.309
vn 0.951 0 0.309
vn -0.588 0 -0.809
vn -0.588 0 -0.809
vn -0.951 0 -0.309
vn -0.951 0 -0.309
vn -0.588 0 0.809
vn -0.588 0 0.809
vn 0 0 1
vn 0 0 1
vn 0.588 0 0.809
vn 0.588 0 0.809
vn 0.588 0 0.809
vn -0.588 0 -0.809
vn -0.588 0 -0.809
vn 0 0 -1
vn 0 0 -1
vn 0.588 0 -0.809
vn -0.951 0 0.309
vn -0.951 0 0.309
vn -0.588 0 0.809
vn -0.588 0 0.809
vn 0.588 0 -0.809
vn 0.588 0 0.809
vn 0 -1 0
vn 0 -1 0
vn 0 -1 0
vn 0 -1 0
vn 0 -1 0
vn 0 -1 0
vn 0 -1 0
vn 0 -1 0
vn 0 -1 0
vn 0 -1 0
vn 0.588 0 -0.809
vn 0.588 0 0.809
vn 0.89 0.352 -0.289
vn 0.951 0 0.309
vn 0.951 0 -0.309
vn 0 0.352 0.936
vn 0.588 0 -0.809
vn 0 0 -1
vn -0.951 0 -0.309
vn -0.588 0 -0.809
vn 0 1 0
vn 0 1 0
vn 0 1 0
vn 0 1 0
vn 0 1 0
vn 0 1 0
vn 0 1 0
vn 0 1 0
vn 0 1 0
vn 0 1 0
vn -0.588 0 -0.809
vn 0 0 1
vn 0.588 0 0.809
vn 0.588 0 -0.809
vn -0.588 0 0.809
vn 0.405 0.725 -0.558
vn 0 0.725 -0.689
vn 0 0.725 -0.689
vn 0.655 0.725 -0.213
vn 0.405 0.725 -0.558
vn -0.405 0.725 -0.558
vn -0.405 0.725 -0.558
vn 0.655 0.725 -0.213
vn 0.655 0.725 0.213
vn 0.655 0.725 -0.213
vn 0.655 0.725 -0.213
vn 0.655 0.725 0.213
vn 0.655 0.725 0.213
vn 0.405 0.725 0.558
vn 0.405 0.725 0.558
vn 0.655 0.725 0.213
vn 0.405 0.725 0.558
vn 0 0.725 0.689
vn 0.405 0.725 0.558
vn 0 0.725 0.689
vn -0.405 0.725 0.558
vn 0 0.725 0.689
vn 0 0.725 0.689
vn -0.405 0.725 0.558
vn -0.655 0.725 0.213
vn -0.655 0.725 0.213
vn -0.655 0.725 0.213
vn -0.655 0.725 -0.213
vn -0.655 0.725 -0.213
vn -0.655 0.725 0.213
vn -0.655 0.725 -0.213
vn -0.655 0.725 -0.213
vn 0 1 0
vn 0 1 0
vn 0 1 0
vn 0 1 0
vn 0 1 0
vn 0 1 0
vn 0 1 0
vn 0 1 0
vn 0 1 0
vn 0 1 0
vn -0.22 -0.761 -0.61
vn -0.18 -0.898 -0.401
vn -0.339 -0.824 -0.454
vn -0.117 -0.81 -0.575
vn 0 -0.955 -0.298
vn -0.206 -0.925 -0.319
vn -0.387 -0.84 -0.38
vn -0.297 -0.687 -0.663
vn 0 -0.924 -0.382
vn -0.098 -0.672 -0.734
vn -0.052 -0.693 -0.719
vn 0.18 0.898 0.401
vn 0.22 0.761 0.61
vn 0.339 0.824 0.454
vn 0 0.955 0.298
vn 0 0.924 0.382
vn 0.117 0.81 0.575
vn 0.297 0.687 0.663
vn 0.457 0.71 0.536
vn 0.206 0.925 0.319
vn 0 0.826 0.563
vn 0.098 0.672 0.734
vn 0.52 0.421 0.743
vn 0.592 0.551 0.588
vn 0.52 0.57 0.636
vn 0.297 0.409 0.863
vn 0.457 0.281 0.844
vn 0.592 0.381 0.71
vn 0.457 0.71 0.536
vn 0.297 0.687 0.663
vn 0.337 0.5 0.798
vn 0.521 0.222 0.824
vn -0.387 0.84 0.38
vn -0.457 0.71 0.536
vn -0.339 0.824 0.454
vn -0.592 0.551 0.588
vn -0.52 0.57 0.636
vn -0.521 0.71 0.473
vn -0.297 0.687 0.663
vn -0.22 0.761 0.61
vn -0.206 0.925 0.319
vn 0.22 0.335 0.916
vn 0.339 0.167 0.926
vn 0.387 0.092 0.918
vn -0.18 0.898 0.401
vn -0.117 0.81 0.575
vn -0.206 0.007 0.979
vn 0 0.067 0.998
vn -0.18 0.093 0.979
vn 0 -0.022 1
vn -0.117 0.287 0.951
vn 0.117 0.287 0.951
vn 0 0.27 0.963
vn 0.206 0.007 0.979
vn 0.18 0.093 0.979
vn -0.22 0.335 0.916
vn -0.339 0.167 0.926
vn -0.457 0.281 0.844
vn -0.521 0.222 0.824
vn -0.387 0.092 0.918
vn 0.387 0.84 0.38
vn -0.52 0.421 0.743
vn -0.592 0.381 0.71
vn 0.521 0.71 0.473
vn -0.297 0.409 0.863
vn -0.592 0.551 0.588
vn 0.52 0.57 0.636
vn 0.592 0.551 0.588
vn -0.52 0.57 0.636
vn -0.337 0.5 0.798
vn -0.337 0.597 0.728
vn 0.22 0.761 0.61
vn 0.132 0.639 0.758
vn 0.098 0.672 0.734
vn 0 0.584 0.812
vn 0.337 0.597 0.728
vn 0.15 0.598 0.787
vn 0.052 0.693 0.719
vn -0.15 0.555 0.818
vn -0.15 0.598 0.787
vn 0.15 0.555 0.818
vn -0.337 0.597 0.728
vn -0.098 0.672 0.734
vn -0.052 0.693 0.719
vn -0.098 0.482 0.871
vn 0.052 0.46 0.886
vn 0 0.453 0.892
vn -0.052 0.46 0.886
vn 0.132 0.515 0.847
vn 0.098 0.482 0.871
vn 0.052 0.693 0.719
vn 0 0.701 0.713
vn -0.132 0.515 0.847
vn -0.297 0.687 0.663
vn -0.132 0.639 0.758
vn -0.22 0.761 0.61
vn -0.098 0.672 0.734
vn 0.52 -0.57 -0.636
vn 0.52 -0.421 -0.743
vn 0.592 -0.551 -0.588
vn 0.337 -0.5 -0.798
vn 0.297 -0.409 -0.863
vn 0.457 -0.281 -0.844
vn 0.592 -0.381 -0.71
vn -0.052 0.693 0.719
vn 0 0.701 0.713
vn -0.457 -0.71 -0.536
vn -0.592 -0.551 -0.588
vn -0.52 -0.57 -0.636
vn -0.521 -0.71 -0.473
vn 0.22 -0.335 -0.916
vn 0.521 -0.222 -0.824
vn 0.339 -0.167 -0.926
vn 0 -0.067 -0.998
vn -0.206 -0.007 -0.979
vn 0 0.022 -1
vn 0.117 -0.287 -0.951
vn 0 -0.27 -0.963
vn -0.117 -0.287 -0.951
vn -0.18 -0.093 -0.979
vn 0.206 -0.007 -0.979
vn 0.18 -0.093 -0.979
vn -0.22 -0.335 -0.916
vn -0.339 -0.167 -0.926
vn -0.387 -0.092 -0.918
vn 0.387 -0.092 -0.918
vn 0.18 -0.898 -0.401
vn 0 -0.826 -0.563
vn 0.117 -0.81 -0.575
vn -0.521 -0.222 -0.824
vn 0.206 -0.925 -0.319
vn 0.339 -0.824 -0.454
vn 0.22 -0.761 -0.61
vn -0.457 -0.281 -0.844
vn -0.297 -0.409 -0.863
vn -0.592 -0.381 -0.71
vn 0.387 -0.84 -0.38
vn 0.457 -0.71 -0.536
vn 0.521 -0.71 -0.473
vn -0.52 -0.421 -0.743
vn -0.337 -0.5 -0.798
vn -0.592 -0.551 -0.588
vn 0.592 -0.551 -0.588
vn -0.52 -0.57 -0.636
vn -0.297 -0.687 -0.663
vn -0.457 -0.71 -0.536
vn -0.337 -0.597 -0.728
vn 0.52 -0.57 -0.636
vn 0.297 -0.687 -0.663
vn 0.337 -0.597 -0.728
vn -0.22 -0.761 -0.61
vn -0.132 -0.639 -0.758
vn -0.098 -0.672 -0.734
vn 0 -0.584 -0.812
vn -0.052 -0.693 -0.719
vn -0.15 -0.598 -0.787
vn 0.15 -0.555 -0.818
vn 0.132 -0.515 -0.847
vn 0.337 -0.597 -0.728
vn -0.15 -0.555 -0.818
vn -0.132 -0.515 -0.847
vn 0.052 -0.693 -0.719
vn 0.098 -0.672 -0.734
vn 0.098 -0.482 -0.871
vn 0.052 -0.46 -0.886
vn -0.052 -0.46 -0.886
vn 0 -0.453 -0.892
vn -0.098 -0.482 -0.871
vn 0 -0.701 -0.713
vn 0.15 -0.598 -0.787
vn 0.297 -0.687 -0.663
vn 0.132 -0.639 -0.758
vn 0.22 -0.761 -0.61
vn 0.098 -0.672 -0.734
vn 0.052 -0.693 -0.719
vn 0 -0.701 -0.713
vn -0.809 0.449 0.38
vn -0.809 0.217 0.546
vn -0.809 0.449 0.38
vn -0.711 -0.001 0.703
vn -0.809 0.217 0.546
vn 0.528 -0.178 0.83
vn 0.711 -0.001 0.703
vn 0.528 -0.178 0.83
vn 0.711 -0.001 0.703
vn -0.711 0.666 0.223
vn -0.711 0.666 0.223
vn 0.281 -0.294 0.914
vn 0.281 -0.294 0.914
vn 0 -0.334 0.942
vn 0.281 0.96 0.013
vn 0 1 -0.016
vn 0.281 0.96 0.013
vn 0 1 -0.016
vn 0.528 0.844 0.096
vn -0.281 0.96 0.013
vn -0.528 0.844 0.096
vn -0.711 0.666 0.223
vn -0.528 0.844 0.096
vn -0.711 0.666 0.223
vn 0 -0.334 0.942
vn -0.281 -0.294 0.914
vn 0.528 0.844 0.096
vn 0.711 0.666 0.223
vn -0.281 0.96 0.013
vn -0.281 -0.294 0.914
vn -0.528 -0.178 0.83
vn 0.711 0.666 0.223
vn -0.528 -0.178 0.83
vn -0.711 -0.001 0.703
vn 0.711 0.666 0.223
vn 0.809 0.449 0.38
vn 0.711 0.666 0.223
vn 0.809 0.449 0.38
vn 0.809 0.217 0.546
vn -0.711 -0.001 0.703
vn 0.809 0.217 0.546
vn 0.711 -0.001 0.703
vn 0.711 -0.001 0.703
vn -0.711 -0.001 0.703
vn 0.059 0.591 0.805
vn 0.052 0.607 0.793
vn 0 0.584 0.812
vn 0.038 0.62 0.784
vn -0.052 0.607 0.793
vn -0.059 0.591 0.805
vn -0.059 0.574 0.817
vn 0.059 0.574 0.817
vn -0.038 0.62 0.784
vn 0.052 0.558 0.828
vn -0.02 0.628 0.778
vn -0.02 0.537 0.843
vn 0 0.534 0.845
vn 0.02 0.537 0.843
vn 0.038 0.545 0.837
vn 0 0.631 0.776
vn -0.038 0.545 0.837
vn 0.02 0.628 0.778
vn -0.052 0.558 0.828
vn -0.985 0.141 -0.101
vn -0.977 -0.215 -0.004
vn -0.985 -0.141 0.101
vn -0.859 0.328 -0.394
vn -0.977 0.065 -0.205
vn -0.865 -0.155 -0.478
vn -0.865 -0.403 -0.3
vn -0.866 -0.406 0.292
vn -0.76 -0.636 -0.132
vn -0.859 -0.478 0.185
vn -0.76 0.077 -0.645
vn 0.643 -0.622 0.447
vn 0.637 -0.692 0.339
vn 0.866 -0.406 0.292
vn 0.977 -0.215 -0.004
vn 0.985 -0.141 0.101
vn 0.859 -0.478 0.185
vn 0.564 -0.825 0.004
vn -0.866 0.406 -0.292
vn -0.564 0.267 -0.781
vn -0.637 0.542 -0.548
vn 0.342 -0.763 0.548
vn 0 -0.88 0.474
vn 0.339 -0.832 0.44
vn 0.643 -0.622 0.447
vn 0.3 -0.949 0.093
vn 0.637 -0.692 0.339
vn 0 -0.992 0.124
vn 0.564 -0.825 0.004
vn -0.643 0.622 -0.447
vn 0 -0.812 0.584
vn -0.342 -0.763 0.548
vn -0.339 -0.832 0.44
vn 0 0.812 -0.584
vn -0.339 0.682 -0.648
vn -0.342 0.763 -0.548
vn 0.339 0.682 -0.648
vn 0 0.73 -0.683
vn -0.637 0.542 -0.548
vn -0.643 0.622 -0.447
vn -0.643 -0.622 0.447
vn -0.637 -0.692 0.339
vn 0.866 0.406 -0.292
vn 0.637 0.542 -0.548
vn 0.643 0.622 -0.447
vn 0.859 0.328 -0.394
vn 0.564 0.267 -0.781
vn 0.985 0.141 -0.101
vn 0.977 0.065 -0.205
vn -0.3 -0.949 0.093
vn 0.865 -0.403 -0.3
vn 0.76 0.077 -0.645
vn 0.643 0.622 -0.447
vn 0.637 0.542 -0.548
vn 0.342 0.763 -0.548
vn -0.564 -0.825 0.004
vn -0.637 -0.692 0.339
vn -0.643 -0.622 0.447
vn 0.76 -0.636 -0.132
vn 0.196 -0.544 -0.816
vn 0.542 -0.565 -0.622
vn 0.196 -0.6 -0.776
vn 0 -0.584 -0.812
vn 0.172 -0.491 -0.854
vn 0.542 -0.409 -0.734
vn 0.128 -0.448 -0.885
vn -0.172 -0.653 -0.738
vn -0.477 -0.711 -0.517
vn -0.196 -0.6 -0.776
vn -0.128 -0.696 -0.707
vn -0.068 -0.724 -0.687
vn 0.477 -0.711 -0.517
vn 0.172 -0.653 -0.738
vn -0.542 -0.565 -0.622
vn -0.196 -0.544 -0.816
vn 0.128 -0.696 -0.707
vn -0.172 -0.491 -0.854
vn -0.354 -0.145 -0.924
vn -0.128 -0.448 -0.885
vn 0.068 -0.724 -0.687
vn 0.068 -0.42 -0.905
vn 0.188 -0.067 -0.98
vn 0 -0.41 -0.912
vn -0.068 -0.42 -0.905
vn 0 -0.04 -0.999
vn -0.188 -0.067 -0.98
vn 0 -0.733 -0.68
vn 0 0.434 -0.901
vn 0.339 0.682 -0.648
vn 0.3 0.391 -0.87
vn -0.3 0.391 -0.87
vn -0.339 0.682 -0.648
vn 0 0.73 -0.683
vn 0.637 0.542 -0.548
vn 0.564 0.267 -0.781
vn 0.354 -0.145 -0.924
vn 0.76 0.077 -0.645
vn 0.477 -0.264 -0.839
vn 0.865 -0.155 -0.478
vn 0.477 -0.264 -0.839
vn 0.542 -0.409 -0.734
vn 0.542 -0.565 -0.622
vn 0.477 -0.711 -0.517
vn 0.354 -0.83 -0.432
vn 0.76 -0.636 -0.132
vn 0.188 -0.907 -0.376
vn 0.172 -0.653 -0.738
vn 0.477 -0.711 -0.517
vn 0.128 -0.696 -0.707
vn 0.068 -0.724 -0.687
vn 0 -0.934 -0.357
vn 0 -0.733 -0.68
vn -0.188 -0.907 -0.376
vn -0.068 -0.724 -0.687
vn -0.354 -0.83 -0.432
vn -0.564 -0.825 0.004
vn -0.128 -0.696 -0.707
vn -0.76 -0.636 -0.132
vn -0.477 -0.711 -0.517
vn -0.172 -0.653 -0.738
vn -0.542 -0.409 -0.734
vn -0.542 -0.565 -0.622
vn -0.477 -0.711 -0.517
vn -0.542 -0.409 -0.734
vn -0.76 0.077 -0.645
vn -0.477 -0.264 -0.839
vn -0.865 -0.155 -0.478
vn -0.564 0.267 -0.781
vn -0.637 0.542 -0.548
vn 0.951 -0.251 0.18
vn 0.951 0.251 -0.18
vn 0.951 0.251 -0.18
vn 0.588 -0.657 0.472
vn 0.951 -0.251 0.18
vn 0.588 -0.657 0.472
vn -0.495 -0.868 -0.04
vn -0.436 -0.879 -0.195
vn 0 -0.999 0.054
vn -0.801 -0.526 -0.286
vn -0.705 -0.578 -0.411
vn 0 -0.994 -0.113
vn 0.436 -0.879 -0.195
vn 0.495 -0.868 -0.04
vn -0.533 -0.841 0.087
vn 0.588 0.657 -0.472
vn 0.588 0.657 -0.472
vn 0 0.812 -0.584
vn 0 0.812 -0.584
vn -0.588 0.657 -0.472
vn -0.588 0.657 -0.472
vn -0.951 -0.251 0.18
vn -0.951 -0.251 0.18
vn -0.951 0.251 -0.18
vn -0.588 -0.657 0.472
vn -0.588 -0.657 0.472
vn -0.588 0.657 -0.472
vn -0.588 0.657 -0.472
vn -0.951 0.251 -0.18
vn 0 -0.812 0.584
vn 0 -0.812 0.584
vn 0.588 -0.657 0.472
vn -0.588 -0.657 0.472
vn -0.588 -0.657 0.472
vn 0.588 -0.657 0.472
vn 0.588 0.657 -0.472
vn 0.588 0.657 -0.472
vn 0.801 -0.103 -0.589
vn 0.863 -0.473 -0.178
vn 0.801 -0.526 -0.286
vn 0.863 -0.018 -0.505
vn 0.495 -0.868 -0.04
vn 0.705 -0.206 -0.679
vn 0.495 0.239 -0.835
vn 0.533 0.351 -0.77
vn 0.705 -0.578 -0.411
vn -0.436 0.095 -0.895
vn -0.495 0.239 -0.835
vn 0 0.21 -0.978
vn -0.705 -0.206 -0.679
vn -0.801 -0.103 -0.589
vn -0.533 0.351 -0.77
vn 0 0.37 -0.929
vn 0.495 0.239 -0.835
vn 0.436 0.095 -0.895
vn 0.533 0.351 -0.77
vn 0 0.492 -0.871
vn 0.801 -0.526 -0.286
vn 0.705 -0.578 -0.411
vn 0.801 -0.103 -0.589
vn 0.705 -0.206 -0.679
vn -0.705 -0.206 -0.679
vn -0.801 -0.526 -0.286
vn -0.801 -0.103 -0.589
vn -0.705 -0.578 -0.411
vn -0.863 -0.018 -0.505
vn -0.495 0.239 -0.835
vn -0.863 -0.473 -0.178
vn -0.523 -0.317 0.791
vn -0.523 -0.317 0.791
vn -0.846 0.044 0.532
vn -0.846 0.49 0.211
vn -0.846 0.49 0.211
vn -0.846 0.044 0.532
vn -0.495 -0.868 -0.04
vn -0.533 -0.841 0.087
vn 0.533 -0.841 0.087
vn 0.533 -0.841 0.087
vn 0 -0.982 0.188
vn -0.533 0.351 -0.77
vn 0 0.584 0.812
vn 0 0.584 0.812
vn 0 0.584 0.812
vn 0 0.584 0.812
vn 0 0.584 0.812
vn 0 0.584 0.812
vn 0 0.584 0.812
vn 0 0.584 0.812
vn 0 0.584 0.812
vn 0 0.584 0.812
vn 0.846 0.044 0.532
vn 0.523 -0.317 0.791
vn 0.523 -0.317 0.791
vn 0.846 0.49 0.211
vn 0.846 0.044 0.532
vn 0.523 0.851 -0.048
vn 0 0.989 -0.148
vn 0.523 0.851 -0.048
vn 0 0.989 -0.148
vn -0.523 0.851 -0.048
vn -0.523 0.851 -0.048
vn -0.523 0.851 -0.048
vn -0.523 0.851 -0.048
vn 0 -0.455 0.89
vn 0.523 -0.317 0.791
vn 0.523 -0.317 0.791
vn -0.523 -0.317 0.791
vn 0 -0.455 0.89
vn 0.523 0.851 -0.048
vn 0.846 0.49 0.211
vn 0.523 0.851 -0.048
vn -0.523 -0.317 0.791
f 1/1/1 2/2/2 3/3/3
f 2/2/2 1/1/1 4/4/4
f 3/3/3 5/5/5 1/1/1
f 3/3/3 6/6/6 5/5/5
f 4/4/4 7/7/7 2/2/2
f 8/8/8 9/9/9 10/10/10
f 9/9/9 8/8/8 11/11/11
f 10/10/10 12/12/12 8/8/8
f 12/12/12 10/10/10 13/13/13
f 14/14/14 15/15/15 12/12/12
f 14/14/14 12/12/12 13/13/13
f 16/16/16 17/17/17 15/15/15
f 16/16/16 15/15/15 14/14/14
f 18/18/18 19/19/19 17/17/17
f 18/18/18 17/17/17 16/16/16
f 20/20/20 21/21/21 22/22/22
f 21/21/21 20/20/20 23/23/23
f 22/22/22 24/24/24 20/20/20
f 24/24/24 22/22/22 25/25/25
f 24/24/24 26/26/26 27/27/27
f 26/26/26 24/24/24 25/25/25
f 27/27/27 28/28/28 29/29/29
f 28/28/28 27/27/27 26/26/26
f 30/30/30 31/31/31 32/32/32
f 31/31/31 30/30/30 33/33/33
f 33/33/33 34/34/34 31/31/31
f 34/34/34 33/33/33 35/35/35
f 35/35/35 36/36/36 34/34/34
f 36/36/36 35/35/35 37/37/37
f 36/36/36 37/37/37 38/38/38
f 36/36/36 38/38/38 39/39/39
f 39/39/39 38/38/38 40/40/40
f 39/39/39 40/40/40 41/41/41
f 42/42/42 43/43/43 44/44/44
f 42/42/42 45/45/45 46/46/46
f 43/43/43 47/47/47 44/44/44
f 44/44/44 48/48/48 42/42/42
f 49/49/49 50/50/50 51/51/51
f 50/50/50 49/49/49 6/6/6
f 6/6/6 3/3/3 50/50/50
f 52/52/52 53/53/53 54/54/54
f 52/52/52 55/55/55 56/56/56
f 55/55/55 52/52/52 57/57/57
f 56/56/56 55/55/55 58/58/58
f 57/57/57 59/59/59 60/60/60
f 57/57/57 61/61/61 59/59/59
f 57/57/57 62/62/62 55/55/55
f 62/62/62 57/57/57 63/63/63
f 62/62/62 63/63/63 64/64/64
f 61/61/61 57/57/57 52/52/52
f 59/59/59 61/61/61 65/65/65
f 60/60/60 66/66/66 57/57/57
f 66/66/66 60/60/60 67/67/67
f 63/63/63 57/57/57 68/68/68
f 53/53/53 52/52/52 56/56/56
f 53/53/53 56/56/56 69/69/69
f 70/70/70 71/71/71 72/72/72
f 70/70/70 72/72/72 73/73/73
f 71/71/71 74/74/74 72/72/72
f 71/71/71 75/75/75 74/74/74
f 76/76/76 77/77/77 78/78/78
f 77/77/77 76/76/76 79/79/79
f 77/77/77 80/80/80 78/78/78
f 77/77/77 81/81/81 80/80/80
f 79/79/79 82/82/82 83/83/83
f 84/84/84 85/85/85 86/86/86
f 84/84/84 87/87/87 88/88/88
f 85/85/85 84/84/84 88/88/88
f 86/86/86 89/89/89 90/90/90
f 45/45/45 91/91/91 92/92/92
f 45/45/45 92/92/92 46/46/46
f 45/45/45 42/42/42 48/48/48
f 91/91/91 93/93/93 92/92/92
f 94/94/94 81/81/81 95/95/95
f 81/81/81 94/94/94 80/80/80
f 95/95/95 96/96/96 94/94/94
f 97/97/97 87/87/87 98/98/98
f 87/87/87 97/97/97 99/99/99
f 87/87/87 84/84/84 98/98/98
f 99/99/99 83/83/83 82/82/82
f 100/100/100 101/101/101 102/102/102
f 100/100/100 103/103/103 104/104/104
f 101/101/101 100/100/100 93/93/93
f 93/93/93 91/91/91 101/101/101
f 47/47/47 43/43/43 96/96/96
f 96/96/96 95/95/95 47/47/47
f 82/82/82 79/79/79 76/76/76
f 83/83/83 99/99/99 97/97/97
f 89/89/89 104/104/104 103/103/103
f 89/89/89 86/86/86 85/85/85
f 103/103/103 100/100/100 102/102/102
f 103/103/103 90/90/90 89/89/89
f 105/105/105 106/106/106 107/107/107
f 106/106/106 105/105/105 108/108/108
f 107/107/107 109/109/109 110/110/110
f 108/108/108 111/111/111 112/112/112
f 113/113/113 114/114/114 115/115/115
f 114/114/114 113/113/113 116/116/116
f 114/114/114 116/116/116 117/117/117
f 115/115/115 118/118/118 113/113/113
f 115/115/115 119/119/119 118/118/118
f 120/120/120 121/121/121 122/122/122
f 121/121/121 120/120/120 123/123/123
f 122/122/122 124/124/124 120/120/120
f 75/75/75 125/125/125 126/126/126
f 75/75/75 126/126/126 74/74/74
f 117/117/117 116/116/116 127/127/127
f 128/128/128 129/129/129 119/119/119
f 119/119/119 129/129/129 118/118/118
f 125/125/125 130/130/130 131/131/131
f 125/125/125 131/131/131 126/126/126
f 132/132/132 133/133/133 134/134/134
f 133/133/133 132/132/132 135/135/135
f 135/135/135 136/136/136 137/137/137
f 136/136/136 135/135/135 132/132/132
f 137/137/137 138/138/138 139/139/139
f 140/140/140 141/141/141 142/142/142
f 141/141/141 140/140/140 143/143/143
f 143/143/143 144/144/144 141/141/141
f 138/138/138 137/137/137 136/136/136
f 139/139/139 145/145/145 146/146/146
f 144/144/144 143/143/143 147/147/147
f 147/147/147 148/148/148 144/144/144
f 145/145/145 139/139/139 138/138/138
f 146/146/146 149/149/149 150/150/150
f 148/148/148 147/147/147 124/124/124
f 124/124/124 122/122/122 148/148/148
f 149/149/149 146/146/146 145/145/145
f 151/151/151 152/152/152 153/153/153
f 151/151/151 154/154/154 152/152/152
f 155/155/155 156/156/156 157/157/157
f 156/156/156 155/155/155 158/158/158
f 156/156/156 159/159/159 160/160/160
f 157/157/157 161/161/161 155/155/155
f 162/162/162 163/163/163 164/164/164
f 163/163/163 162/162/162 165/165/165
f 165/165/165 161/161/161 166/166/166
f 111/111/111 108/108/108 105/105/105
f 112/112/112 167/167/167 168/168/168
f 159/159/159 156/156/156 158/158/158
f 160/160/160 169/169/169 170/170/170
f 161/161/161 165/165/165 162/162/162
f 161/161/161 157/157/157 166/166/166
f 167/167/167 112/112/112 111/111/111
f 169/169/169 160/160/160 159/159/159
f 170/170/170 171/171/171 172/172/172
f 173/173/173 167/167/167 174/174/174
f 173/173/173 168/168/168 167/167/167
f 174/174/174 175/175/175 173/173/173
f 171/171/171 170/170/170 169/169/169
f 172/172/172 176/176/176 177/177/177
f 175/175/175 174/174/174 178/178/178
f 178/178/178 179/179/179 175/175/175
f 176/176/176 172/172/172 171/171/171
f 177/177/177 110/110/110 109/109/109
f 179/179/179 178/178/178 180/180/180
f 179/179/179 181/181/181 182/182/182
f 110/110/110 177/177/177 176/176/176
f 109/109/109 107/107/107 106/106/106
f 181/181/181 179/179/179 180/180/180
f 181/181/181 164/164/164 163/163/163
f 181/181/181 163/163/163 182/182/182
f 183/183/183 184/184/184 185/185/185
f 183/183/183 185/185/185 186/186/186
f 186/186/186 185/185/185 187/187/187
f 188/188/188 189/189/189 190/190/190
f 189/189/189 188/188/188 191/191/191
f 190/190/190 192/192/192 193/193/193
f 191/191/191 194/194/194 195/195/195
f 192/192/192 190/190/190 189/189/189
f 196/196/196 197/197/197 198/198/198
f 197/197/197 196/196/196 199/199/199
f 199/199/199 200/200/200 197/197/197
f 194/194/194 191/191/191 188/188/188
f 195/195/195 201/201/201 202/202/202
f 200/200/200 199/199/199 203/203/203
f 203/203/203 204/204/204 200/200/200
f 201/201/201 195/195/195 194/194/194
f 202/202/202 205/205/205 206/206/206
f 204/204/204 203/203/203 207/207/207
f 207/207/207 208/208/208 204/204/204
f 205/205/205 202/202/202 201/201/201
f 208/208/208 207/207/207 209/209/209
f 209/209/209 210/210/210 208/208/208
f 211/211/211 212/212/212 213/213/213
f 211/211/211 213/213/213 214/214/214
f 212/212/212 215/215/215 216/216/216
f 212/212/212 216/216/216 213/213/213
f 210/210/210 209/209/209 217/217/217
f 215/215/215 151/151/151 153/153/153
f 215/215/215 153/153/153 216/216/216
f 218/218/218 219/219/219 220/220/220
f 220/220/220 219/219/219 221/221/221
f 220/220/220 221/221/221 222/222/222
f 222/222/222 221/221/221 184/184/184
f 184/184/184 183/183/183 222/222/222
f 223/223/223 224/224/224 225/225/225
f 224/224/224 223/223/223 226/226/226
f 225/225/225 227/227/227 228/228/228
f 226/226/226 229/229/229 230/230/230
f 229/229/229 226/226/226 223/223/223
f 230/230/230 231/231/231 232/232/232
f 231/231/231 230/230/230 229/229/229
f 232/232/232 233/233/233 234/234/234
f 233/233/233 232/232/232 231/231/231
f 235/235/235 236/236/236 233/233/233
f 235/235/235 237/237/237 238/238/238
f 236/236/236 234/234/234 233/233/233
f 238/238/238 239/239/239 240/240/240
f 238/238/238 236/236/236 235/235/235
f 239/239/239 238/238/238 237/237/237
f 240/240/240 241/241/241 242/242/242
f 241/241/241 240/240/240 239/239/239
f 241/241/241 243/243/243 242/242/242
f 243/243/243 241/241/241 244/244/244
f 243/243/243 245/245/245 246/246/246
f 245/245/245 243/243/243 244/244/244
f 247/247/247 248/248/248 249/249/249
f 247/247/247 250/250/250 245/245/245
f 250/250/250 246/246/246 245/245/245
f 248/248/248 251/251/251 249/249/249
f 249/249/249 250/250/250 247/247/247
f 251/251/251 248/248/248 252/252/252
f 252/252/252 253/253/253 251/251/251
f 253/253/253 252/252/252 254/254/254
f 254/254/254 255/255/255 253/253/253
f 255/255/255 254/254/254 256/256/256
f 257/257/257 255/255/255 256/256/256
f 257/257/257 256/256/256 258/258/258
f 257/257/257 228/228/228 227/227/227
f 228/228/228 257/257/257 258/258/258
f 227/227/227 225/225/225 224/224/224
f 259/259/259 260/260/260 261/261/261
f 259/259/259 262/262/262 260/260/260
f 260/260/260 263/263/263 264/264/264
f 260/260/260 265/265/265 263/263/263
f 260/260/260 266/266/266 265/265/265
f 261/261/261 260/260/260 267/267/267
f 262/262/262 266/266/266 260/260/260
f 262/262/262 268/268/268 269/269/269
f 262/262/262 259/259/259 268/268/268
f 266/266/266 262/262/262 270/270/270
f 266/266/266 271/271/271 265/265/265
f 270/270/270 272/272/272 273/273/273
f 272/272/272 270/270/270 262/262/262
f 272/272/272 262/262/262 274/274/274
f 273/273/273 272/272/272 275/275/275
f 271/271/271 266/266/266 276/276/276
f 277/277/277 278/278/278 279/279/279
f 279/279/279 280/280/280 277/277/277
f 280/280/280 281/281/281 282/282/282
f 280/280/280 283/283/283 277/277/277
f 280/280/280 279/279/279 284/284/284
f 285/285/285 286/286/286 287/287/287
f 285/285/285 287/287/287 288/288/288
f 285/285/285 289/289/289 290/290/290
f 288/288/288 291/291/291 285/285/285
f 290/290/290 292/292/292 286/286/286
f 290/290/290 286/286/286 285/285/285
f 290/290/290 293/293/293 294/294/294
f 294/294/294 295/295/295 292/292/292
f 294/294/294 292/292/292 290/290/290
f 296/296/296 297/297/297 298/298/298
f 296/296/296 299/299/299 300/300/300
f 296/296/296 301/301/301 297/297/297
f 301/301/301 296/296/296 302/302/302
f 302/302/302 300/300/300 303/303/303
f 300/300/300 302/302/302 296/296/296
f 304/304/304 305/305/305 306/306/306
f 305/305/305 304/304/304 307/307/307
f 307/307/307 308/308/308 305/305/305
f 307/307/307 309/309/309 310/310/310
f 308/308/308 307/307/307 311/311/311
f 311/311/311 312/312/312 308/308/308
f 311/311/311 310/310/310 313/313/313
f 311/311/311 314/314/314 315/315/315
f 312/312/312 311/311/311 315/315/315
f 284/284/284 316/316/316 280/280/280
f 317/317/317 318/318/318 319/319/319
f 317/317/317 319/319/319 320/320/320
f 319/319/319 318/318/318 321/321/321
f 319/319/319 322/322/322 323/323/323
f 322/322/322 321/321/321 324/324/324
f 322/322/322 319/319/319 321/321/321
f 318/318/318 317/317/317 325/325/325
f 325/325/325 317/317/317 326/326/326
f 309/309/309 307/307/307 304/304/304
f 310/310/310 311/311/311 307/307/307
f 310/310/310 327/327/327 328/328/328
f 329/329/329 330/330/330 331/331/331
f 330/330/330 329/329/329 332/332/332
f 331/331/331 333/333/333 329/329/329
f 334/334/334 335/335/335 336/336/336
f 334/334/334 337/337/337 335/335/335
f 336/336/336 335/335/335 338/338/338
f 336/336/336 338/338/338 339/339/339
f 340/340/340 337/337/337 334/334/334
f 340/340/340 341/341/341 337/337/337
f 342/342/342 343/343/343 344/344/344
f 343/343/343 342/342/342 345/345/345
f 345/345/345 346/346/346 347/347/347
f 346/346/346 345/345/345 342/342/342
f 348/348/348 349/349/349 350/350/350
f 349/349/349 348/348/348 351/351/351
f 351/351/351 352/352/352 349/349/349
f 352/352/352 351/351/351 353/353/353
f 353/353/353 354/354/354 352/352/352
f 354/354/354 353/353/353 355/355/355
f 356/356/356 357/357/357 358/358/358
f 356/356/356 359/359/359 360/360/360
f 357/357/357 360/360/360 361/361/361
f 357/357/357 362/362/362 363/363/363
f 357/357/357 356/356/356 360/360/360
f 359/359/359 356/356/356 364/364/364
f 361/361/361 362/362/362 357/357/357
f 362/362/362 361/361/361 365/365/365
f 366/366/366 367/367/367 368/368/368
f 367/367/367 366/366/366 369/369/369
f 369/369/369 366/366/366 370/370/370
f 370/370/370 371/371/371 369/369/369
f 370/370/370 366/366/366 372/372/372
f 371/371/371 373/373/373 374/374/374
f 371/371/371 370/370/370 373/373/373
f 373/373/373 370/370/370 375/375/375
f 376/376/376 377/377/377 378/378/378
f 377/377/377 376/376/376 379/379/379
f 379/379/379 380/380/380 381/381/381
f 382/382/382 383/383/383 384/384/384
f 385/385/385 384/384/384 383/383/383
f 386/386/386 387/387/387 388/388/388
f 388/388/388 387/387/387 389/389/389
f 389/389/389 390/390/390 388/388/388
f 380/380/380 379/379/379 376/376/376
f 381/381/381 391/391/391 392/392/392
f 393/393/393 394/394/394 395/395/395
f 395/395/395 396/396/396 397/397/397
f 395/395/395 394/394/394 396/396/396
f 398/398/398 384/384/384 385/385/385
f 398/398/398 399/399/399 400/400/400
f 399/399/399 398/398/398 385/385/385
f 401/401/401 400/400/400 399/399/399
f 391/391/391 381/381/381 380/380/380
f 397/397/397 396/396/396 402/402/402
f 390/390/390 389/389/389 403/403/403
f 404/404/404 405/405/405 406/406/406
f 404/404/404 406/406/406 407/407/407
f 405/405/405 408/408/408 409/409/409
f 405/405/405 404/404/404 410/410/410
f 406/406/406 409/409/409 411/411/411
f 406/406/406 405/405/405 409/409/409
f 411/411/411 409/409/409 412/412/412
f 408/408/408 405/405/405 413/413/413
f 332/332/332 414/414/414 330/330/330
f 289/289/289 415/415/415 293/293/293
f 289/289/289 285/285/285 416/416/416
f 415/415/415 289/289/289 417/417/417
f 293/293/293 290/290/290 289/289/289
f 417/417/417 416/416/416 418/418/418
f 299/299/299 296/296/296 419/419/419
f 419/419/419 296/296/296 298/298/298
f 283/283/283 280/280/280 282/282/282
f 282/282/282 420/420/420 283/283/283
f 416/416/416 285/285/285 291/291/291
f 416/416/416 417/417/417 289/289/289
f 291/291/291 418/418/418 416/416/416
f 281/281/281 280/280/280 316/316/316
f 281/281/281 421/421/421 282/282/282
f 314/314/314 311/311/311 313/313/313
f 314/314/314 422/422/422 423/423/423
f 313/313/313 328/328/328 422/422/422
f 424/424/424 425/425/425 426/426/426
f 425/425/425 427/427/427 428/428/428
f 425/425/425 428/428/428 429/429/429
f 430/430/430 425/425/425 424/424/424
f 431/431/431 427/427/427 432/432/432
f 427/427/427 433/433/433 428/428/428
f 427/427/427 425/425/425 430/430/430
f 433/433/433 427/427/427 431/431/431
f 420/420/420 282/282/282 421/421/421
f 421/421/421 281/281/281 434/434/434
f 328/328/328 313/313/313 310/310/310
f 422/422/422 314/314/314 313/313/313
f 435/435/435 299/299/299 419/419/419
f 435/435/435 419/419/419 436/436/436
f 436/436/436 419/419/419 298/298/298
f 418/418/418 291/291/291 437/437/437
f 438/438/438 299/299/299 435/435/435
f 327/327/327 310/310/310 309/309/309
f 439/439/439 440/440/440 441/441/441
f 439/439/439 442/442/442 443/443/443
f 440/440/440 439/439/439 443/443/443
f 440/440/440 444/444/444 445/445/445
f 442/442/442 439/439/439 446/446/446
f 447/447/447 448/448/448 449/449/449
f 448/448/448 447/447/447 450/450/450
f 451/451/451 452/452/452 453/453/453
f 452/452/452 451/451/451 454/454/454
f 455/455/455 456/456/456 457/457/457
f 456/456/456 455/455/455 458/458/458
f 459/459/459 460/460/460 461/461/461
f 459/459/459 461/461/461 462/462/462
f 463/463/463 459/459/459 462/462/462
f 463/463/463 462/462/462 464/464/464
f 465/465/465 466/466/466 467/467/467
f 466/466/466 465/465/465 468/468/468
f 469/469/469 445/445/445 444/444/444
f 445/445/445 441/441/441 440/440/440
f 445/445/445 469/469/469 470/470/470
f 471/471/471 472/472/472 473/473/473
f 471/471/471 473/473/473 474/474/474
f 472/472/472 471/471/471 475/475/475
f 473/473/473 472/472/472 476/476/476
f 477/477/477 478/478/478 479/479/479
f 478/478/478 475/475/475 471/471/471
f 475/475/475 478/478/478 480/480/480
f 480/480/480 478/478/478 477/477/477
f 481/481/481 482/482/482 483/483/483
f 482/482/482 481/481/481 484/484/484
f 482/482/482 485/485/485 486/486/486
f 483/483/483 486/486/486 487/487/487
f 483/483/483 488/488/488 481/481/481
f 484/484/484 489/489/489 482/482/482
f 484/484/484 490/490/490 491/491/491
f 492/492/492 493/493/493 494/494/494
f 492/492/492 495/495/495 496/496/496
f 493/493/493 492/492/492 497/497/497
f 494/494/494 498/498/498 499/499/499
f 494/494/494 500/500/500 492/492/492
f 497/497/497 496/496/496 501/501/501
f 497/497/497 502/502/502 493/493/493
f 503/503/503 504/504/504 505/505/505
f 503/503/503 506/506/506 507/507/507
f 504/504/504 503/503/503 508/508/508
f 505/505/505 509/509/509 510/510/510
f 505/505/505 511/511/511 503/503/503
f 508/508/508 507/507/507 512/512/512
f 513/513/513 514/514/514 515/515/515
f 514/514/514 516/516/516 517/517/517
f 514/514/514 513/513/513 518/518/518
f 515/515/515 519/519/519 520/520/520
f 515/515/515 521/521/521 513/513/513
f 507/507/507 508/508/508 503/503/503
f 507/507/507 522/522/522 523/523/523
f 512/512/512 523/523/523 524/524/524
f 521/521/521 515/515/515 525/525/525
f 525/525/525 520/520/520 526/526/526
f 525/525/525 495/495/495 521/521/521
f 527/527/527 528/528/528 529/529/529
f 527/527/527 530/530/530 528/528/528
f 528/528/528 531/531/531 529/529/529
f 528/528/528 532/532/532 533/533/533
f 528/528/528 534/534/534 535/535/535
f 529/529/529 536/536/536 537/537/537
f 523/523/523 512/512/512 507/507/507
f 524/524/524 535/535/535 534/534/534
f 495/495/495 492/492/492 500/500/500
f 495/495/495 525/525/525 496/496/496
f 496/496/496 526/526/526 501/501/501
f 496/496/496 497/497/497 492/492/492
f 537/537/537 538/538/538 539/539/539
f 537/537/537 540/540/540 529/529/529
f 540/540/540 527/527/527 529/529/529
f 535/535/535 522/522/522 532/532/532
f 535/535/535 524/524/524 523/523/523
f 534/534/534 528/528/528 530/530/530
f 500/500/500 494/494/494 541/541/541
f 538/538/538 537/537/537 536/536/536
f 538/538/538 542/542/542 543/543/543
f 539/539/539 540/540/540 537/537/537
f 541/541/541 499/499/499 544/544/544
f 542/542/542 538/538/538 545/545/545
f 542/542/542 546/546/546 543/543/543
f 543/543/543 539/539/539 538/538/538
f 499/499/499 547/547/547 548/548/548
f 499/499/499 541/541/541 494/494/494
f 546/546/546 542/542/542 549/549/549
f 549/549/549 550/550/550 551/551/551
f 548/548/548 544/544/544 499/499/499
f 516/516/516 514/514/514 518/518/518
f 517/517/517 519/519/519 514/514/514
f 552/552/552 553/553/553 510/510/510
f 553/553/553 554/554/554 555/555/555
f 553/553/553 552/552/552 554/554/554
f 510/510/510 556/556/556 505/505/505
f 510/510/510 557/557/557 556/556/556
f 554/554/554 558/558/558 555/555/555
f 545/545/545 559/559/559 550/550/550
f 545/545/545 550/550/550 542/542/542
f 550/550/550 549/549/549 542/542/542
f 498/498/498 494/494/494 493/493/493
f 551/551/551 559/559/559 560/560/560
f 556/556/556 561/561/561 511/511/511
f 519/519/519 517/517/517 562/562/562
f 519/519/519 515/515/515 514/514/514
f 511/511/511 505/505/505 556/556/556
f 520/520/520 525/525/525 515/515/515
f 506/506/506 503/503/503 511/511/511
f 506/506/506 511/511/511 561/561/561
f 526/526/526 496/496/496 525/525/525
f 526/526/526 563/563/563 564/564/564
f 531/531/531 528/528/528 533/533/533
f 531/531/531 565/565/565 536/536/536
f 533/533/533 566/566/566 567/567/567
f 533/533/533 568/568/568 531/531/531
f 522/522/522 507/507/507 506/506/506
f 522/522/522 535/535/535 523/523/523
f 522/522/522 569/569/569 570/570/570
f 501/501/501 571/571/571 497/497/497
f 501/501/501 564/564/564 572/572/572
f 536/536/536 545/545/545 538/538/538
f 536/536/536 529/529/529 531/531/531
f 536/536/536 573/573/573 545/545/545
f 532/532/532 528/528/528 535/535/535
f 532/532/532 570/570/570 566/566/566
f 557/557/557 553/553/553 555/555/555
f 557/557/557 510/510/510 553/553/553
f 559/559/559 551/551/551 550/550/550
f 559/559/559 573/573/573 555/555/555
f 559/559/559 545/545/545 573/573/573
f 560/560/560 559/559/559 555/555/555
f 560/560/560 574/574/574 551/551/551
f 574/574/574 560/560/560 575/575/575
f 574/574/574 575/575/575 576/576/576
f 575/575/575 560/560/560 555/555/555
f 561/561/561 557/557/557 555/555/555
f 561/561/561 556/556/556 557/557/557
f 576/576/576 575/575/575 577/577/577
f 577/577/577 575/575/575 555/555/555
f 569/569/569 561/561/561 555/555/555
f 569/569/569 522/522/522 506/506/506
f 569/569/569 506/506/506 561/561/561
f 563/563/563 526/526/526 520/520/520
f 564/564/564 501/501/501 526/526/526
f 568/568/568 567/567/567 555/555/555
f 568/568/568 533/533/533 567/567/567
f 567/567/567 566/566/566 555/555/555
f 570/570/570 569/569/569 555/555/555
f 570/570/570 532/532/532 522/522/522
f 565/565/565 531/531/531 568/568/568
f 565/565/565 568/568/568 555/555/555
f 566/566/566 533/533/533 532/532/532
f 566/566/566 570/570/570 555/555/555
f 571/571/571 501/501/501 572/572/572
f 573/573/573 565/565/565 555/555/555
f 573/573/573 536/536/536 565/565/565
f 502/502/502 497/497/497 571/571/571
f 578/578/578 579/579/579 580/580/580
f 579/579/579 581/581/581 582/582/582
f 579/579/579 578/578/578 581/581/581
f 579/579/579 583/583/583 584/584/584
f 584/584/584 580/580/580 579/579/579
f 585/585/585 577/577/577 555/555/555
f 586/586/586 585/585/585 555/555/555
f 558/558/558 586/586/586 555/555/555
f 587/587/587 588/588/588 589/589/589
f 587/587/587 487/487/487 590/590/590
f 487/487/487 587/587/587 483/483/483
f 583/583/583 582/582/582 591/591/591
f 583/583/583 579/579/579 582/582/582
f 592/592/592 583/583/583 593/593/593
f 592/592/592 584/584/584 583/583/583
f 486/486/486 483/483/483 482/482/482
f 594/594/594 595/595/595 596/596/596
f 594/594/594 597/597/597 598/598/598
f 594/594/594 599/599/599 600/600/600
f 594/594/594 601/601/601 602/602/602
f 595/595/595 594/594/594 600/600/600
f 600/600/600 603/603/603 604/604/604
f 600/600/600 605/605/605 595/595/595
f 606/606/606 602/602/602 601/601/601
f 606/606/606 592/592/592 593/593/593
f 593/593/593 583/583/583 591/591/591
f 485/485/485 489/489/489 607/607/607
f 485/485/485 482/482/482 489/489/489
f 489/489/489 484/484/484 608/608/608
f 489/489/489 608/608/608 609/609/609
f 605/605/605 600/600/600 604/604/604
f 604/604/604 610/610/610 605/605/605
f 602/602/602 606/606/606 593/593/593
f 602/602/602 591/591/591 597/597/597
f 601/601/601 594/594/594 596/596/596
f 611/611/611 607/607/607 612/612/612
f 611/611/611 485/485/485 607/607/607
f 607/607/607 609/609/609 613/613/613
f 607/607/607 489/489/489 609/609/609
f 610/610/610 604/604/604 614/614/614
f 614/614/614 603/603/603 615/615/615
f 614/614/614 616/616/616 610/610/610
f 617/617/617 618/618/618 619/619/619
f 617/617/617 611/611/611 612/612/612
f 616/616/616 614/614/614 620/620/620
f 620/620/620 615/615/615 621/621/621
f 620/620/620 622/622/622 616/616/616
f 618/618/618 623/623/623 619/619/619
f 618/618/618 617/617/617 612/612/612
f 622/622/622 620/620/620 624/624/624
f 624/624/624 625/625/625 626/626/626
f 624/624/624 621/621/621 627/627/627
f 588/588/588 587/587/587 590/590/590
f 623/623/623 618/618/618 628/628/628
f 628/628/628 629/629/629 630/630/630
f 631/631/631 632/632/632 633/633/633
f 632/632/632 634/634/634 633/633/633
f 632/632/632 631/631/631 625/625/625
f 633/633/633 634/634/634 635/635/635
f 625/625/625 624/624/624 627/627/627
f 625/625/625 636/636/636 632/632/632
f 582/582/582 637/637/637 638/638/638
f 488/488/488 483/483/483 587/587/587
f 639/639/639 581/581/581 578/578/578
f 639/639/639 637/637/637 581/581/581
f 627/627/627 640/640/640 636/636/636
f 629/629/629 628/628/628 618/618/618
f 629/629/629 618/618/618 612/612/612
f 629/629/629 612/612/612 613/613/613
f 621/621/621 624/624/624 620/620/620
f 613/613/613 612/612/612 607/607/607
f 615/615/615 620/620/620 614/614/614
f 615/615/615 641/641/641 640/640/640
f 615/615/615 603/603/603 641/641/641
f 609/609/609 642/642/642 643/643/643
f 597/597/597 644/644/644 645/645/645
f 597/597/597 594/594/594 602/602/602
f 598/598/598 646/646/646 599/599/599
f 598/598/598 645/645/645 647/647/647
f 603/603/603 648/648/648 641/641/641
f 603/603/603 600/600/600 599/599/599
f 603/603/603 614/614/614 604/604/604
f 608/608/608 491/491/491 649/649/649
f 608/608/608 649/649/649 642/642/642
f 591/591/591 602/602/602 593/593/593
f 591/591/591 638/638/638 644/644/644
f 599/599/599 648/648/648 603/603/603
f 599/599/599 594/594/594 598/598/598
f 636/636/636 625/625/625 627/627/627
f 636/636/636 634/634/634 632/632/632
f 637/637/637 634/634/634 638/638/638
f 637/637/637 582/582/582 581/581/581
f 637/637/637 639/639/639 650/650/650
f 650/650/650 634/634/634 637/637/637
f 650/650/650 651/651/651 652/652/652
f 651/651/651 650/650/650 639/639/639
f 652/652/652 634/634/634 650/650/650
f 652/652/652 653/653/653 654/654/654
f 640/640/640 627/627/627 621/621/621
f 640/640/640 634/634/634 636/636/636
f 640/640/640 621/621/621 615/615/615
f 653/653/653 652/652/652 651/651/651
f 654/654/654 634/634/634 652/652/652
f 641/641/641 634/634/634 640/640/640
f 643/643/643 613/613/613 609/609/609
f 642/642/642 609/609/609 608/608/608
f 645/645/645 598/598/598 597/597/597
f 645/645/645 634/634/634 647/647/647
f 647/647/647 634/634/634 646/646/646
f 648/648/648 634/634/634 641/641/641
f 648/648/648 599/599/599 646/646/646
f 644/644/644 634/634/634 645/645/645
f 644/644/644 597/597/597 591/591/591
f 646/646/646 598/598/598 647/647/647
f 646/646/646 634/634/634 648/648/648
f 491/491/491 608/608/608 484/484/484
f 638/638/638 634/634/634 644/644/644
f 638/638/638 591/591/591 582/582/582
f 490/490/490 484/484/484 481/481/481
f 655/655/655 634/634/634 654/654/654
f 656/656/656 634/634/634 655/655/655
f 635/635/635 634/634/634 656/656/656
f 657/657/657 658/658/658 659/659/659
f 658/658/658 660/660/660 661/661/661
f 659/659/659 658/658/658 661/661/661
f 662/662/662 663/663/663 664/664/664
f 664/664/664 663/663/663 665/665/665
f 666/666/666 657/657/657 667/667/667
f 667/667/667 657/657/657 659/659/659
f 668/668/668 662/662/662 669/669/669
f 669/669/669 662/662/662 664/664/664
f 669/669/669 670/670/670 668/668/668
f 671/671/671 672/672/672 673/673/673
f 672/672/672 671/671/671 674/674/674
f 673/673/673 675/675/675 671/671/671
f 674/674/674 676/676/676 672/672/672
f 677/677/677 678/678/678 679/679/679
f 679/679/679 678/678/678 680/680/680
f 681/681/681 668/668/668 670/670/670
f 670/670/670 682/682/682 681/681/681
f 675/675/675 673/673/673 683/683/683
f 683/683/683 684/684/684 675/675/675
f 676/676/676 677/677/677 685/685/685
f 685/685/685 677/677/677 679/679/679
f 685/685/685 672/672/672 676/676/676
f 682/682/682 670/670/670 686/686/686
f 686/686/686 687/687/687 682/682/682
f 684/684/684 683/683/683 688/688/688
f 687/687/687 686/686/686 689/689/689
f 689/689/689 690/690/690 687/687/687
f 691/691/691 692/692/692 693/693/693
f 692/692/692 691/691/691 694/694/694
f 694/694/694 695/695/695 692/692/692
f 690/690/690 689/689/689 696/696/696
f 695/695/695 694/694/694 697/697/697
f 695/695/695 698/698/698 699/699/699
f 697/697/697 698/698/698 695/695/695
f 660/660/660 658/658/658 700/700/700
f 701/701/701 702/702/702 703/703/703
f 702/702/702 704/704/704 703/703/703
f 705/705/705 706/706/706 703/703/703
f 706/706/706 707/707/707 703/703/703
f 708/708/708 701/701/701 703/703/703
f 709/709/709 705/705/705 703/703/703
f 710/710/710 708/708/708 703/703/703
f 711/711/711 709/709/709 703/703/703
f 712/712/712 713/713/713 703/703/703
f 713/713/713 714/714/714 703/703/703
f 715/715/715 710/710/710 703/703/703
f 716/716/716 711/711/711 703/703/703
f 717/717/717 712/712/712 703/703/703
f 714/714/714 715/715/715 703/703/703
f 718/718/718 716/716/716 703/703/703
f 719/719/719 717/717/717 703/703/703
f 704/704/704 718/718/718 703/703/703
f 707/707/707 719/719/719 703/703/703
f 720/720/720 721/721/721 722/722/722
f 720/720/720 723/723/723 724/724/724
f 721/721/721 720/720/720 724/724/724
f 721/721/721 725/725/725 726/726/726
f 721/721/721 727/727/727 722/722/722
f 721/721/721 728/728/728 729/729/729
f 724/724/724 730/730/730 725/725/725
f 731/731/731 732/732/732 733/733/733
f 733/733/733 734/734/734 735/735/735
f 736/736/736 733/733/733 732/732/732
f 736/736/736 732/732/732 737/737/737
f 723/723/723 720/720/720 738/738/738
f 723/723/723 739/739/739 730/730/730
f 738/738/738 740/740/740 723/723/723
f 741/741/741 742/742/742 743/743/743
f 741/741/741 743/743/743 744/744/744
f 743/743/743 745/745/745 746/746/746
f 743/743/743 747/747/747 745/745/745
f 746/746/746 744/744/744 743/743/743
f 746/746/746 745/745/745 748/748/748
f 740/740/740 738/738/738 749/749/749
f 750/750/750 742/742/742 741/741/741
f 742/742/742 751/751/751 752/752/752
f 742/742/742 747/747/747 743/743/743
f 753/753/753 754/754/754 755/755/755
f 753/753/753 756/756/756 757/757/757
f 754/754/754 753/753/753 757/757/757
f 755/755/755 758/758/758 759/759/759
f 758/758/758 755/755/755 754/754/754
f 751/751/751 742/742/742 750/750/750
f 752/752/752 760/760/760 761/761/761
f 752/752/752 747/747/747 742/742/742
f 762/762/762 763/763/763 764/764/764
f 763/763/763 762/762/762 765/765/765
f 765/765/765 766/766/766 763/763/763
f 765/765/765 767/767/767 768/768/768
f 760/760/760 752/752/752 751/751/751
f 761/761/761 769/769/769 752/752/752
f 767/767/767 765/765/765 762/762/762
f 768/768/768 734/734/734 770/770/770
f 768/768/768 771/771/771 765/765/765
f 768/768/768 767/767/767 734/734/734
f 772/772/772 773/773/773 774/774/774
f 774/774/774 756/756/756 753/753/753
f 756/756/756 774/774/774 773/773/773
f 729/729/729 775/775/775 776/776/776
f 729/729/729 777/777/777 727/727/727
f 777/777/777 729/729/729 776/776/776
f 727/727/727 721/721/721 729/729/729
f 735/735/735 734/734/734 767/767/767
f 734/734/734 736/736/736 778/778/778
f 734/734/734 733/733/733 736/736/736
f 779/779/779 780/780/780 781/781/781
f 779/779/779 782/782/782 783/783/783
f 783/783/783 784/784/784 779/779/779
f 783/783/783 782/782/782 785/785/785
f 786/786/786 787/787/787 788/788/788
f 786/786/786 782/782/782 789/789/789
f 789/789/789 782/782/782 790/790/790
f 781/781/781 782/782/782 779/779/779
f 781/781/781 791/791/791 792/792/792
f 788/788/788 793/793/793 794/794/794
f 788/788/788 782/782/782 786/786/786
f 792/792/792 782/782/782 781/781/781
f 794/794/794 782/782/782 788/788/788
f 795/795/795 782/782/782 792/792/792
f 796/796/796 782/782/782 794/794/794
f 796/796/796 797/797/797 798/798/798
f 799/799/799 782/782/782 795/795/795
f 800/800/800 801/801/801 785/785/785
f 800/800/800 782/782/782 802/802/802
f 802/802/802 782/782/782 803/803/803
f 802/802/802 804/804/804 800/800/800
f 798/798/798 782/782/782 796/796/796
f 798/798/798 805/805/805 803/803/803
f 806/806/806 782/782/782 799/799/799
f 785/785/785 782/782/782 800/800/800
f 803/803/803 804/804/804 802/802/802
f 803/803/803 782/782/782 798/798/798
f 790/790/790 782/782/782 806/806/806
f 807/807/807 808/808/808 809/809/809
f 807/807/807 810/810/810 811/811/811
f 807/807/807 811/811/811 812/812/812
f 808/808/808 807/807/807 812/812/812
f 809/809/809 804/804/804 807/807/807
f 809/809/809 813/813/813 814/814/814
f 804/804/804 810/810/810 807/807/807
f 804/804/804 801/801/801 800/800/800
f 804/804/804 809/809/809 801/801/801
f 804/804/804 803/803/803 805/805/805
f 801/801/801 814/814/814 815/815/815
f 813/813/813 809/809/809 808/808/808
f 814/814/814 801/801/801 809/809/809
f 815/815/815 816/816/816 817/817/817
f 815/815/815 783/783/783 785/785/785
f 815/815/815 785/785/785 801/801/801
f 766/766/766 765/765/765 771/771/771
f 771/771/771 768/768/768 818/818/818
f 816/816/816 815/815/815 814/814/814
f 817/817/817 783/783/783 815/815/815
f 818/818/818 819/819/819 771/771/771
f 818/818/818 768/768/768 770/770/770
f 819/819/819 818/818/818 820/820/820
f 820/820/820 770/770/770 821/821/821
f 784/784/784 783/783/783 817/817/817
f 770/770/770 820/820/820 818/818/818
f 770/770/770 778/778/778 822/822/822
f 770/770/770 734/734/734 778/778/778
f 821/821/821 770/770/770 822/822/822
f 780/780/780 779/779/779 784/784/784
f 778/778/778 736/736/736 737/737/737
f 791/791/791 781/781/781 780/780/780
f 748/748/748 823/823/823 824/824/824
f 823/823/823 745/745/745 825/825/825
f 823/823/823 826/826/826 827/827/827
f 827/827/827 824/824/824 823/823/823
f 826/826/826 823/823/823 828/828/828
f 828/828/828 825/825/825 829/829/829
f 745/745/745 823/823/823 748/748/748
f 825/825/825 828/828/828 823/823/823
f 825/825/825 747/747/747 830/830/830
f 829/829/829 830/830/830 831/831/831
f 747/747/747 832/832/832 830/830/830
f 747/747/747 752/752/752 769/769/769
f 747/747/747 825/825/825 745/745/745
f 830/830/830 833/833/833 831/831/831
f 830/830/830 829/829/829 825/825/825
f 769/769/769 834/834/834 832/832/832
f 769/769/769 761/761/761 835/835/835
f 832/832/832 836/836/836 833/833/833
f 832/832/832 747/747/747 769/769/769
f 833/833/833 830/830/830 832/832/832
f 834/834/834 837/837/837 838/838/838
f 834/834/834 769/769/769 835/835/835
f 836/836/836 834/834/834 839/839/839
f 836/836/836 832/832/832 834/834/834
f 775/775/775 729/729/729 728/728/728
f 728/728/728 721/721/721 726/726/726
f 837/837/837 834/834/834 835/835/835
f 839/839/839 834/834/834 838/838/838
f 726/726/726 840/840/840 841/841/841
f 726/726/726 842/842/842 728/728/728
f 842/842/842 726/726/726 841/841/841
f 793/793/793 788/788/788 787/787/787
f 725/725/725 721/721/721 724/724/724
f 840/840/840 726/726/726 725/725/725
f 843/843/843 796/796/796 794/794/794
f 843/843/843 794/794/794 793/793/793
f 730/730/730 724/724/724 723/723/723
f 844/844/844 797/797/797 845/845/845
f 844/844/844 845/845/845 846/846/846
f 845/845/845 796/796/796 843/843/843
f 846/846/846 845/845/845 843/843/843
f 739/739/739 723/723/723 740/740/740
f 797/797/797 796/796/796 845/845/845
f 797/797/797 844/844/844 847/847/847
f 847/847/847 805/805/805 797/797/797
f 810/810/810 804/804/804 805/805/805
f 810/810/810 848/848/848 811/811/811
f 848/848/848 810/810/810 847/847/847
f 805/805/805 798/798/798 797/797/797
f 805/805/805 847/847/847 810/810/810
f 849/849/849 850/850/850 851/851/851
f 849/849/849 852/852/852 853/853/853
f 852/852/852 849/849/849 854/854/854
f 855/855/855 856/856/856 857/857/857
f 856/856/856 858/858/858 859/859/859
f 857/857/857 856/856/856 860/860/860
f 857/857/857 861/861/861 862/862/862
f 857/857/857 863/863/863 855/855/855
f 864/864/864 865/865/865 866/866/866
f 866/866/866 865/865/865 867/867/867
f 866/866/866 868/868/868 869/869/869
f 870/870/870 871/871/871 872/872/872
f 871/871/871 873/873/873 874/874/874
f 872/872/872 875/875/875 876/876/876
f 877/877/877 872/872/872 871/871/871
f 878/878/878 879/879/879 880/880/880
f 879/879/879 881/881/881 882/882/882
f 880/880/880 879/879/879 883/883/883
f 884/884/884 850/850/850 885/885/885
f 850/850/850 849/849/849 853/853/853
f 850/850/850 884/884/884 851/851/851
f 875/875/875 872/872/872 877/877/877
f 881/881/881 879/879/879 878/878/878
f 868/868/868 866/866/866 867/867/867
f 873/873/873 871/871/871 870/870/870
f 886/886/886 887/887/887 888/888/888
f 887/887/887 886/886/886 889/889/889
f 887/887/887 890/890/890 888/888/888
f 888/888/888 891/891/891 886/886/886
f 889/889/889 892/892/892 893/893/893
f 891/891/891 888/888/888 894/894/894
f 895/895/895 896/896/896 897/897/897
f 895/895/895 898/898/898 899/899/899
f 896/896/896 900/900/900 901/901/901
f 896/896/896 895/895/895 899/899/899
f 897/897/897 896/896/896 901/901/901
f 897/897/897 902/902/902 903/903/903
f 901/901/901 904/904/904 902/902/902
f 901/901/901 900/900/900 905/905/905
f 858/858/858 856/856/856 855/855/855
f 906/906/906 861/861/861 907/907/907
f 861/861/861 857/857/857 860/860/860
f 861/861/861 906/906/906 862/862/862
f 902/902/902 897/897/897 901/901/901
f 903/903/903 908/908/908 909/909/909
f 910/910/910 911/911/911 912/912/912
f 910/910/910 913/913/913 911/911/911
f 912/912/912 914/914/914 915/915/915
f 912/912/912 911/911/911 916/916/916
f 908/908/908 903/903/903 902/902/902
f 917/917/917 918/918/918 919/919/919
f 919/919/919 920/920/920 921/921/921
f 922/922/922 919/919/919 918/918/918
f 916/916/916 923/923/923 924/924/924
f 923/923/923 916/916/916 911/911/911
f 890/890/890 887/887/887 925/925/925
f 904/904/904 901/901/901 905/905/905
f 914/914/914 912/912/912 916/916/916
f 926/926/926 927/927/927 857/857/857
f 926/926/926 857/857/857 862/862/862
f 892/892/892 889/889/889 886/886/886
f 928/928/928 915/915/915 914/914/914
f 863/863/863 857/857/857 927/927/927
f 929/929/929 930/930/930 931/931/931
f 929/929/929 931/931/931 932/932/932
f 930/930/930 929/929/929 933/933/933
f 933/933/933 934/934/934 935/935/935
f 934/934/934 936/936/936 935/935/935
f 934/934/934 933/933/933 937/937/937
f 937/937/937 933/933/933 929/929/929
f 936/936/936 934/934/934 938/938/938
f 939/939/939 940/940/940 941/941/941
f 939/939/939 942/942/942 943/943/943
f 940/940/940 939/939/939 943/943/943
f 944/944/944 945/945/945 946/946/946
f 945/945/945 944/944/944 947/947/947
f 945/945/945 948/948/948 949/949/949
f 920/920/920 919/919/919 922/922/922
f 921/921/921 950/950/950 951/951/951
f 952/952/952 953/953/953 954/954/954
f 952/952/952 955/955/955 956/956/956
f 953/953/953 952/952/952 956/956/956
f 957/957/957 958/958/958 959/959/959
f 958/958/958 957/957/957 942/942/942
f 942/942/942 939/939/939 958/958/958
f 950/950/950 921/921/921 920/920/920
f 955/955/955 952/952/952 960/960/960
f 948/948/948 945/945/945 947/947/947
