# converted from weapons_pack_ekmek.glb by gltf2obj.py (node transforms baked, V flipped)
mtllib agm65g_maverick_ekmek.mtl
o AGM-65G_1__AGM-65Texture
g AGM-65G_1__AGM-65Texture
usemtl AGM-65Texture
v -0.00014 0.30132 -0.28555
v -0.00014 0.30132 -0.28555
v -0.00014 0.30132 1.47695
v -0.00014 0.30132 1.47695
v -0.00014 0.30132 1.47695
v -0.00014 0.30132 1.47695
v 0.11544 0.27833 -0.28555
v 0.11544 0.27833 -0.28555
v 0.11544 0.27833 1.47695
v 0.11544 0.27833 1.47695
v 0.11544 0.27833 1.47695
v 0.11544 0.27833 1.47695
v 0.21341 0.21286 -0.28555
v 0.21341 0.21286 -0.28555
v 0.21341 0.21286 -0.28555
v 0.21341 0.21286 1.47695
v 0.21341 0.21286 1.47695
v 0.21341 0.21286 1.47695
v 0.21341 0.21286 1.47695
v 0.27888 0.11488 -0.28555
v 0.27888 0.11488 -0.28555
v 0.27888 0.11488 -0.28555
v 0.27888 0.11488 -0.28555
v 0.27888 0.11488 1.47695
v 0.27888 0.11488 1.47695
v 0.27888 0.11488 1.47695
v 0.27888 0.11488 1.47695
v 0.30187 -0.00069 -0.28555
v 0.30187 -0.00069 -0.28555
v 0.30187 -0.00069 -0.28555
v 0.30187 -0.00069 1.47695
v 0.30187 -0.00069 1.47695
v 0.30187 -0.00069 1.47695
v 0.30187 -0.00069 1.47695
v 0.27888 -0.11627 -0.28555
v 0.27888 -0.11627 -0.28555
v 0.27888 -0.11627 1.47695
v 0.27888 -0.11627 1.47695
v 0.27888 -0.11627 1.47695
v 0.27888 -0.11627 1.47695
v 0.21341 -0.21425 -0.28555
v 0.21341 -0.21425 -0.28555
v 0.21341 -0.21425 1.47695
v 0.21341 -0.21425 1.47695
v 0.21341 -0.21425 1.47695
v 0.21341 -0.21425 1.47695
v 0.11544 -0.27972 -0.28555
v 0.11544 -0.27972 -0.28555
v 0.11544 -0.27972 1.47695
v 0.11544 -0.27972 1.47695
v 0.11544 -0.27972 1.47695
v 0.11544 -0.27972 1.47695
v -0.00014 -0.30271 -0.28555
v -0.00014 -0.30271 -0.28555
v -0.00014 -0.30271 1.47695
v -0.00014 -0.30271 1.47695
v -0.00014 -0.30271 1.47695
v -0.00014 -0.30271 1.47695
v -0.11571 -0.27972 -0.28555
v -0.11571 -0.27972 -0.28555
v -0.11571 -0.27972 1.47695
v -0.11571 -0.27972 1.47695
v -0.11571 -0.27972 1.47695
v -0.11571 -0.27972 1.47695
v -0.21369 -0.21425 -0.28555
v -0.21369 -0.21425 -0.28555
v -0.21369 -0.21425 1.47695
v -0.21369 -0.21425 1.47695
v -0.21369 -0.21425 1.47695
v -0.21369 -0.21425 1.47695
v -0.27916 -0.11627 -0.28555
v -0.27916 -0.11627 -0.28555
v -0.27916 -0.11627 1.47695
v -0.27916 -0.11627 1.47695
v -0.27916 -0.11627 1.47695
v -0.27916 -0.11627 1.47695
v -0.30215 -0.00069 -0.28555
v -0.30215 -0.00069 -0.28555
v -0.30215 -0.00069 1.47695
v -0.30215 -0.00069 1.47695
v -0.30215 -0.00069 1.47695
v -0.30215 -0.00069 1.47695
v -0.27916 0.11488 -0.28555
v -0.27916 0.11488 -0.28555
v -0.27916 0.11488 1.47695
v -0.27916 0.11488 1.47695
v -0.27916 0.11488 1.47695
v -0.27916 0.11488 1.47695
v -0.21369 0.21286 -0.28555
v -0.21369 0.21286 -0.28555
v -0.21369 0.21286 1.47695
v -0.21369 0.21286 1.47695
v -0.21369 0.21286 1.47695
v -0.21369 0.21286 1.47695
v -0.11571 0.27833 -0.28555
v -0.11571 0.27833 -0.28555
v -0.11571 0.27833 1.47695
v -0.11571 0.27833 1.47695
v -0.11571 0.27833 1.47695
v -0.11571 0.27833 1.47695
v -0.00014 0.28031 1.86136
v -0.00014 0.28031 1.86136
v -0.00014 0.28031 1.86136
v -0.00014 0.28031 1.86136
v 0.1074 0.25892 1.86136
v 0.1074 0.25892 1.86136
v 0.1074 0.25892 1.86136
v 0.1074 0.25892 1.86136
v 0.19856 0.19801 1.86136
v 0.19856 0.19801 1.86136
v 0.19856 0.19801 1.86136
v 0.19856 0.19801 1.86136
v 0.25948 0.10684 1.86136
v 0.25948 0.10684 1.86136
v 0.25948 0.10684 1.86136
v 0.25948 0.10684 1.86136
v 0.28087 -0.00069 1.86136
v 0.28087 -0.00069 1.86136
v 0.28087 -0.00069 1.86136
v 0.28087 -0.00069 1.86136
v 0.25948 -0.10823 1.86136
v 0.25948 -0.10823 1.86136
v 0.25948 -0.10823 1.86136
v 0.25948 -0.10823 1.86136
v 0.19856 -0.19939 1.86136
v 0.19856 -0.19939 1.86136
v 0.19856 -0.19939 1.86136
v 0.19856 -0.19939 1.86136
v 0.1074 -0.26031 1.86136
v 0.1074 -0.26031 1.86136
v 0.1074 -0.26031 1.86136
v 0.1074 -0.26031 1.86136
v -0.00014 -0.2817 1.86136
v -0.00014 -0.2817 1.86136
v -0.00014 -0.2817 1.86136
v -0.00014 -0.2817 1.86136
v -0.10768 -0.26031 1.86136
v -0.10768 -0.26031 1.86136
v -0.10768 -0.26031 1.86136
v -0.10768 -0.26031 1.86136
v -0.19884 -0.19939 1.86136
v -0.19884 -0.19939 1.86136
v -0.19884 -0.19939 1.86136
v -0.19884 -0.19939 1.86136
v -0.25976 -0.10823 1.86136
v -0.25976 -0.10823 1.86136
v -0.25976 -0.10823 1.86136
v -0.25976 -0.10823 1.86136
v -0.28115 -0.00069 1.86136
v -0.28115 -0.00069 1.86136
v -0.28115 -0.00069 1.86136
v -0.28115 -0.00069 1.86136
v -0.25976 0.10684 1.86136
v -0.25976 0.10684 1.86136
v -0.25976 0.10684 1.86136
v -0.25976 0.10684 1.86136
v -0.19884 0.19801 1.86136
v -0.19884 0.19801 1.86136
v -0.19884 0.19801 1.86136
v -0.19884 0.19801 1.86136
v -0.10768 0.25892 1.86136
v -0.10768 0.25892 1.86136
v -0.10768 0.25892 1.86136
v -0.10768 0.25892 1.86136
v -0.00014 0.2375 2.13824
v -0.00014 0.2375 2.13824
v -0.00014 0.2375 2.13824
v -0.00014 0.2375 2.13824
v 0.09101 0.21937 2.13824
v 0.09101 0.21937 2.13824
v 0.09101 0.21937 2.13824
v 0.09101 0.21937 2.13824
v 0.16829 0.16774 2.13824
v 0.16829 0.16774 2.13824
v 0.16829 0.16774 2.13824
v 0.16829 0.16774 2.13824
v 0.21993 0.09046 2.13824
v 0.21993 0.09046 2.13824
v 0.21993 0.09046 2.13824
v 0.21993 0.09046 2.13824
v 0.23806 -0.00069 2.13824
v 0.23806 -0.00069 2.13824
v 0.23806 -0.00069 2.13824
v 0.23806 -0.00069 2.13824
v 0.21993 -0.09185 2.13824
v 0.21993 -0.09185 2.13824
v 0.21993 -0.09185 2.13824
v 0.21993 -0.09185 2.13824
v 0.16829 -0.16912 2.13824
v 0.16829 -0.16912 2.13824
v 0.16829 -0.16912 2.13824
v 0.16829 -0.16912 2.13824
v 0.09101 -0.22076 2.13824
v 0.09101 -0.22076 2.13824
v 0.09101 -0.22076 2.13824
v 0.09101 -0.22076 2.13824
v -0.00014 -0.23889 2.13824
v -0.00014 -0.23889 2.13824
v -0.00014 -0.23889 2.13824
v -0.00014 -0.23889 2.13824
v -0.09129 -0.22076 2.13824
v -0.09129 -0.22076 2.13824
v -0.09129 -0.22076 2.13824
v -0.09129 -0.22076 2.13824
v -0.16857 -0.16912 2.13824
v -0.16857 -0.16912 2.13824
v -0.16857 -0.16912 2.13824
v -0.16857 -0.16912 2.13824
v -0.2202 -0.09185 2.13824
v -0.2202 -0.09185 2.13824
v -0.2202 -0.09185 2.13824
v -0.2202 -0.09185 2.13824
v -0.23834 -0.00069 2.13824
v -0.23834 -0.00069 2.13824
v -0.23834 -0.00069 2.13824
v -0.23834 -0.00069 2.13824
v -0.2202 0.09046 2.13824
v -0.2202 0.09046 2.13824
v -0.2202 0.09046 2.13824
v -0.2202 0.09046 2.13824
v -0.16857 0.16774 2.13824
v -0.16857 0.16774 2.13824
v -0.16857 0.16774 2.13824
v -0.16857 0.16774 2.13824
v -0.09129 0.21937 2.13824
v -0.09129 0.21937 2.13824
v -0.09129 0.21937 2.13824
v -0.09129 0.21937 2.13824
v -0.00014 0.14693 2.32641
v -0.00014 0.14693 2.32641
v 0.05635 0.13569 2.32641
v 0.05635 0.13569 2.32641
v 0.10424 0.10369 2.32641
v 0.10424 0.10369 2.32641
v 0.13624 0.0558 2.32641
v 0.13624 0.0558 2.32641
v 0.14748 -0.00069 2.32641
v 0.14748 -0.00069 2.32641
v 0.13624 -0.05718 2.32641
v 0.13624 -0.05718 2.32641
v 0.10424 -0.10508 2.32641
v 0.10424 -0.10508 2.32641
v 0.05635 -0.13708 2.32641
v 0.05635 -0.13708 2.32641
v -0.00014 -0.14831 2.32641
v -0.00014 -0.14831 2.32641
v -0.05663 -0.13708 2.32641
v -0.05663 -0.13708 2.32641
v -0.10452 -0.10508 2.32641
v -0.10452 -0.10508 2.32641
v -0.13652 -0.05718 2.32641
v -0.13652 -0.05718 2.32641
v -0.14776 -0.00069 2.32641
v -0.14776 -0.00069 2.32641
v -0.13652 0.0558 2.32641
v -0.13652 0.0558 2.32641
v -0.10452 0.10369 2.32641
v -0.10452 0.10369 2.32641
v -0.05663 0.13569 2.32641
v -0.05663 0.13569 2.32641
v -0.00014 0.23993 -2.45007
v 0.09194 0.22161 -2.45007
v 0.17 0.16945 -2.45007
v 0.22217 0.09139 -2.45007
v 0.24048 -0.00069 -2.45007
v 0.22217 -0.09277 -2.45007
v 0.17 -0.17084 -2.45007
v 0.09194 -0.223 -2.45007
v -0.00014 -0.24131 -2.45007
v -0.09222 -0.223 -2.45007
v -0.17028 -0.17084 -2.45007
v -0.22244 -0.09277 -2.45007
v -0.24076 -0.00069 -2.45007
v -0.22244 0.09139 -2.45007
v -0.17028 0.16945 -2.45007
v -0.09222 0.22161 -2.45007
v -0.00014 0.30132 -2.45007
v -0.00014 0.30132 -2.45007
v -0.00014 0.30132 -2.45007
v 0.11544 0.27833 -2.45007
v 0.11544 0.27833 -2.45007
v 0.11544 0.27833 -2.45007
v 0.21341 0.21286 -2.45007
v 0.21341 0.21286 -2.45007
v 0.21341 0.21286 -2.45007
v 0.27888 0.11488 -2.45007
v 0.27888 0.11488 -2.45007
v 0.27888 0.11488 -2.45007
v 0.30187 -0.00069 -2.45007
v 0.30187 -0.00069 -2.45007
v 0.30187 -0.00069 -2.45007
v 0.27888 -0.11627 -2.45007
v 0.27888 -0.11627 -2.45007
v 0.27888 -0.11627 -2.45007
v 0.21341 -0.21425 -2.45007
v 0.21341 -0.21425 -2.45007
v 0.21341 -0.21425 -2.45007
v 0.11544 -0.27971 -2.45007
v 0.11544 -0.27971 -2.45007
v 0.11544 -0.27971 -2.45007
v -0.00014 -0.30271 -2.45007
v -0.00014 -0.30271 -2.45007
v -0.00014 -0.30271 -2.45007
v -0.11571 -0.27971 -2.45007
v -0.11571 -0.27971 -2.45007
v -0.11571 -0.27971 -2.45007
v -0.21369 -0.21425 -2.45007
v -0.21369 -0.21425 -2.45007
v -0.21369 -0.21425 -2.45007
v -0.27916 -0.11627 -2.45007
v -0.27916 -0.11627 -2.45007
v -0.27916 -0.11627 -2.45007
v -0.30215 -0.00069 -2.45007
v -0.30215 -0.00069 -2.45007
v -0.30215 -0.00069 -2.45007
v -0.27916 0.11488 -2.45007
v -0.27916 0.11488 -2.45007
v -0.27916 0.11488 -2.45007
v -0.21369 0.21286 -2.45007
v -0.21369 0.21286 -2.45007
v -0.21369 0.21286 -2.45007
v -0.11571 0.27833 -2.45007
v -0.11571 0.27833 -2.45007
v -0.11571 0.27833 -2.45007
v 0.00991 0.6943 -2.4478
v 0.00991 0.6943 -2.4478
v 0.00991 0.6943 -2.4478
v 0.00991 0.29906 -2.4478
v 0.00991 0.29906 -2.4478
v 0.00991 0.29906 -2.4478
v 0.00991 0.6943 -1.97957
v 0.00991 0.6943 -1.97957
v 0.00991 0.6943 -1.97957
v 0.00991 0.29906 -1.97957
v 0.00991 0.29906 -1.97957
v 0.00991 0.29906 -1.97957
v -0.00991 0.6943 -2.4478
v -0.00991 0.6943 -2.4478
v -0.00991 0.6943 -2.4478
v -0.00991 0.29906 -2.4478
v -0.00991 0.29906 -2.4478
v -0.00991 0.29906 -2.4478
v -0.00991 0.6943 -1.97957
v -0.00991 0.6943 -1.97957
v -0.00991 0.6943 -1.97957
v -0.00991 0.29906 -1.97957
v -0.00991 0.29906 -1.97957
v -0.00991 0.29906 -1.97957
v 0.00991 -0.29894 -2.4478
v 0.00991 -0.29894 -2.4478
v 0.00991 -0.29894 -2.4478
v 0.00991 -0.69419 -2.4478
v 0.00991 -0.69419 -2.4478
v 0.00991 -0.69419 -2.4478
v 0.00991 -0.29894 -1.97957
v 0.00991 -0.29894 -1.97957
v 0.00991 -0.29894 -1.97957
v 0.00991 -0.69419 -1.97957
v 0.00991 -0.69419 -1.97957
v 0.00991 -0.69419 -1.97957
v -0.00991 -0.29894 -2.4478
v -0.00991 -0.29894 -2.4478
v -0.00991 -0.29894 -2.4478
v -0.00991 -0.69419 -2.4478
v -0.00991 -0.69419 -2.4478
v -0.00991 -0.69419 -2.4478
v -0.00991 -0.29894 -1.97957
v -0.00991 -0.29894 -1.97957
v -0.00991 -0.29894 -1.97957
v -0.00991 -0.69419 -1.97957
v -0.00991 -0.69419 -1.97957
v -0.00991 -0.69419 -1.97957
v 0.69425 -0.00985 -2.4478
v 0.69425 -0.00985 -2.4478
v 0.69425 -0.00985 -2.4478
v 0.299 -0.00985 -2.4478
v 0.299 -0.00985 -2.4478
v 0.299 -0.00985 -2.4478
v 0.69425 -0.00985 -1.97957
v 0.69425 -0.00985 -1.97957
v 0.69425 -0.00985 -1.97957
v 0.299 -0.00985 -1.97957
v 0.299 -0.00985 -1.97957
v 0.299 -0.00985 -1.97957
v 0.69425 0.00996 -2.4478
v 0.69425 0.00996 -2.4478
v 0.69425 0.00996 -2.4478
v 0.299 0.00996 -2.4478
v 0.299 0.00996 -2.4478
v 0.299 0.00996 -2.4478
v 0.69425 0.00996 -1.97957
v 0.69425 0.00996 -1.97957
v 0.69425 0.00996 -1.97957
v 0.299 0.00996 -1.97957
v 0.299 0.00996 -1.97957
v 0.299 0.00996 -1.97957
v -0.299 -0.00985 -2.4478
v -0.299 -0.00985 -2.4478
v -0.299 -0.00985 -2.4478
v -0.69425 -0.00985 -2.4478
v -0.69425 -0.00985 -2.4478
v -0.69425 -0.00985 -2.4478
v -0.299 -0.00985 -1.97957
v -0.299 -0.00985 -1.97957
v -0.299 -0.00985 -1.97957
v -0.69425 -0.00985 -1.97957
v -0.69425 -0.00985 -1.97957
v -0.69425 -0.00985 -1.97957
v -0.299 0.00996 -2.4478
v -0.299 0.00996 -2.4478
v -0.299 0.00996 -2.4478
v -0.69425 0.00996 -2.4478
v -0.69425 0.00996 -2.4478
v -0.69425 0.00996 -2.4478
v -0.299 0.00996 -1.97957
v -0.299 0.00996 -1.97957
v -0.299 0.00996 -1.97957
v -0.69425 0.00996 -1.97957
v -0.69425 0.00996 -1.97957
v -0.69425 0.00996 -1.97957
v 0.00991 0.6943 -1.70878
v 0.00991 0.6943 -1.70878
v 0.00991 0.6943 -1.70878
v 0.00991 0.29906 -1.70878
v 0.00991 0.29906 -1.70878
v 0.00991 0.29906 -1.70878
v -0.00991 -0.29906 -1.70878
v -0.00991 -0.29906 -1.70878
v -0.00991 -0.29906 -1.70878
v 0.00991 0.29906 0.48745
v 0.00991 0.29906 0.48745
v 0.00991 0.29906 0.48745
v -0.00991 0.6943 -1.70878
v -0.00991 0.6943 -1.70878
v -0.00991 0.6943 -1.70878
v -0.00991 0.29906 -1.70878
v -0.00991 0.29906 -1.70878
v -0.00991 0.29906 -1.70878
v -0.00991 -0.6943 -1.70878
v -0.00991 -0.6943 -1.70878
v -0.00991 -0.6943 -1.70878
v -0.00991 0.29906 0.48745
v -0.00991 0.29906 0.48745
v -0.00991 0.29906 0.48745
v -0.00991 -0.29906 0.48745
v -0.00991 -0.29906 0.48745
v -0.00991 -0.29906 0.48745
v 0.00991 -0.6943 -1.70878
v 0.00991 -0.6943 -1.70878
v 0.00991 -0.6943 -1.70878
v 0.00991 -0.29906 -1.70878
v 0.00991 -0.29906 -1.70878
v 0.00991 -0.29906 -1.70878
v 0.00991 -0.29906 0.48745
v 0.00991 -0.29906 0.48745
v 0.00991 -0.29906 0.48745
v 0.6943 -0.00991 -1.70878
v 0.6943 -0.00991 -1.70878
v 0.6943 -0.00991 -1.70878
v 0.29906 -0.00991 -1.70878
v 0.29906 -0.00991 -1.70878
v 0.29906 -0.00991 -1.70878
v -0.29906 0.00991 -1.70878
v -0.29906 0.00991 -1.70878
v -0.29906 0.00991 -1.70878
v 0.29906 -0.00991 0.48745
v 0.29906 -0.00991 0.48745
v 0.29906 -0.00991 0.48745
v 0.6943 0.00991 -1.70878
v 0.6943 0.00991 -1.70878
v 0.6943 0.00991 -1.70878
v 0.29906 0.00991 -1.70878
v 0.29906 0.00991 -1.70878
v 0.29906 0.00991 -1.70878
v -0.6943 0.00991 -1.70878
v -0.6943 0.00991 -1.70878
v -0.6943 0.00991 -1.70878
v 0.29906 0.00991 0.48745
v 0.29906 0.00991 0.48745
v 0.29906 0.00991 0.48745
v -0.29906 0.00991 0.48745
v -0.29906 0.00991 0.48745
v -0.29906 0.00991 0.48745
v -0.6943 -0.00991 -1.70878
v -0.6943 -0.00991 -1.70878
v -0.6943 -0.00991 -1.70878
v -0.29906 -0.00991 -1.70878
v -0.29906 -0.00991 -1.70878
v -0.29906 -0.00991 -1.70878
v -0.29906 -0.00991 0.48745
v -0.29906 -0.00991 0.48745
v -0.29906 -0.00991 0.48745
v -0.00014 0.29101 1.66554
v -0.00014 0.29101 1.66554
v -0.00014 0.29101 1.66554
v -0.00014 0.29101 1.66554
v -0.26964 0.11094 1.66554
v -0.26964 0.11094 1.66554
v -0.26964 0.11094 1.66554
v -0.26964 0.11094 1.66554
v -0.20641 -0.20696 1.66554
v -0.20641 -0.20696 1.66554
v -0.20641 -0.20696 1.66554
v -0.20641 -0.20696 1.66554
v 0.11149 -0.2702 1.66554
v 0.11149 -0.2702 1.66554
v 0.11149 -0.2702 1.66554
v 0.11149 -0.2702 1.66554
v 0.29157 -0.00069 1.66554
v 0.29157 -0.00069 1.66554
v 0.29157 -0.00069 1.66554
v 0.29157 -0.00069 1.66554
v 0.11149 0.26881 1.66554
v 0.11149 0.26881 1.66554
v 0.11149 0.26881 1.66554
v 0.11149 0.26881 1.66554
v -0.11177 0.26881 1.66554
v -0.11177 0.26881 1.66554
v -0.11177 0.26881 1.66554
v -0.11177 0.26881 1.66554
v -0.20641 0.20558 1.66554
v -0.20641 0.20558 1.66554
v -0.20641 0.20558 1.66554
v -0.20641 0.20558 1.66554
v -0.29185 -0.00069 1.66554
v -0.29185 -0.00069 1.66554
v -0.29185 -0.00069 1.66554
v -0.29185 -0.00069 1.66554
v -0.26964 -0.11232 1.66554
v -0.26964 -0.11232 1.66554
v -0.26964 -0.11232 1.66554
v -0.26964 -0.11232 1.66554
v -0.11177 -0.2702 1.66554
v -0.11177 -0.2702 1.66554
v -0.11177 -0.2702 1.66554
v -0.11177 -0.2702 1.66554
v -0.00014 -0.2924 1.66554
v -0.00014 -0.2924 1.66554
v -0.00014 -0.2924 1.66554
v -0.00014 -0.2924 1.66554
v 0.20613 -0.20696 1.66554
v 0.20613 -0.20696 1.66554
v 0.20613 -0.20696 1.66554
v 0.20613 -0.20696 1.66554
v 0.26936 -0.11232 1.66554
v 0.26936 -0.11232 1.66554
v 0.26936 -0.11232 1.66554
v 0.26936 -0.11232 1.66554
v 0.26936 0.11094 1.66554
v 0.26936 0.11094 1.66554
v 0.26936 0.11094 1.66554
v 0.26936 0.11094 1.66554
v 0.20613 0.20558 1.66554
v 0.20613 0.20558 1.66554
v 0.20613 0.20558 1.66554
v 0.20613 0.20558 1.66554
vt 0.1514 0.5596
vt 0.1514 0.5596
vt 0.1514 0.2011
vt 0.1514 0.2011
vt 0.1514 0.2011
vt 0.1514 0.2011
vt 0.1241 0.5594
vt 0.1241 0.5594
vt 0.1241 0.2008
vt 0.1241 0.2008
vt 0.1241 0.2008
vt 0.1241 0.2008
vt 0.1009 0.5586
vt 0.1009 0.5586
vt 0.0344 0.2195
vt 0.1009 0.2001
vt 0.1009 0.2001
vt 0.1009 0.2001
vt 0.0339 0.4723
vt 0.0778 0.5594
vt 0.0669 0.2188
vt 0.0778 0.5594
vt 0.0669 0.2188
vt 0.0778 0.2008
vt 0.0663 0.4715
vt 0.0778 0.2008
vt 0.0663 0.4715
vt 0.0505 0.5596
vt 0.1052 0.2186
vt 0.0505 0.5596
vt 0.0505 0.2011
vt 0.0505 0.2011
vt 0.1046 0.4713
vt 0.0505 0.2011
vt 0.0232 0.5594
vt 0.0232 0.5594
vt 0.0232 0.2008
vt 0.0232 0.2008
vt 0.0232 0.2008
vt 0.0232 0.2008
vt 0.4037 0.5586
vt 0 0.5586
vt 0.4037 0.2001
vt 0.4037 0.2001
vt 0 0.2001
vt 0 0.2001
vt 0.3805 0.5594
vt 0.3805 0.5594
vt 0.3805 0.2008
vt 0.3805 0.2008
vt 0.3805 0.2008
vt 0.3805 0.2008
vt 0.3532 0.5596
vt 0.3532 0.5596
vt 0.3532 0.2011
vt 0.3532 0.2011
vt 0.3532 0.2011
vt 0.3532 0.2011
vt 0.3259 0.5594
vt 0.3259 0.5594
vt 0.3259 0.2008
vt 0.3259 0.2008
vt 0.3259 0.2008
vt 0.3259 0.2008
vt 0.2018 0.4414
vt 0.3028 0.5586
vt 0.2018 0.7999
vt 0.2018 0.7999
vt 0.3028 0.2001
vt 0.3028 0.2001
vt 0.225 0.4406
vt 0.225 0.4406
vt 0.225 0.7992
vt 0.225 0.7992
vt 0.225 0.7992
vt 0.225 0.7992
vt 0.2523 0.4404
vt 0.2523 0.4404
vt 0.2523 0.7989
vt 0.2523 0.7989
vt 0.2523 0.7989
vt 0.2523 0.7989
vt 0.2796 0.4406
vt 0.2796 0.4406
vt 0.2796 0.7992
vt 0.2796 0.7992
vt 0.2796 0.7992
vt 0.2796 0.7992
vt 0.3028 0.4414
vt 0.2018 0.5586
vt 0.3028 0.7999
vt 0.3028 0.7999
vt 0.2018 0.2001
vt 0.2018 0.2001
vt 0.1787 0.5594
vt 0.1787 0.5594
vt 0.1787 0.2008
vt 0.1787 0.2008
vt 0.1787 0.2008
vt 0.1787 0.2008
vt 0.1823 0.1498
vt 0.1514 0.1226
vt 0.1514 0.1226
vt 0.1823 0.1498
vt 0.126 0.1224
vt 0.1731 0.1497
vt 0.126 0.1224
vt 0.1731 0.1497
vt 0.1044 0.1217
vt 0.1653 0.1495
vt 0.0974 0.1217
vt 0.1627 0.1495
vt 0.0759 0.1224
vt 0.1549 0.1497
vt 0.0759 0.1224
vt 0.1549 0.1497
vt 0.0505 0.1226
vt 0.0505 0.1226
vt 0.1457 0.1498
vt 0.1457 0.1498
vt 0.0251 0.1224
vt 0.1365 0.1497
vt 0.0251 0.1224
vt 0.1365 0.1497
vt 0.4002 0.1217
vt 0.2725 0.1495
vt 0.0035 0.1217
vt 0.1287 0.1495
vt 0.3786 0.1224
vt 0.2647 0.1497
vt 0.3786 0.1224
vt 0.2647 0.1497
vt 0.2555 0.1498
vt 0.3532 0.1226
vt 0.3532 0.1226
vt 0.2555 0.1498
vt 0.2463 0.1497
vt 0.3278 0.1224
vt 0.2463 0.1497
vt 0.3278 0.1224
vt 0.1749 0.1667
vt 0.2054 0.8783
vt 0.2385 0.1495
vt 0.3063 0.1217
vt 0.1856 0.1663
vt 0.2269 0.8776
vt 0.1856 0.1663
vt 0.2269 0.8776
vt 0.1982 0.1662
vt 0.1982 0.1662
vt 0.2523 0.8774
vt 0.2523 0.8774
vt 0.2107 0.1663
vt 0.2777 0.8776
vt 0.2107 0.1663
vt 0.2777 0.8776
vt 0.2214 0.1667
vt 0.2993 0.8783
vt 0.1993 0.1495
vt 0.1983 0.1217
vt 0.1915 0.1497
vt 0.1768 0.1224
vt 0.1915 0.1497
vt 0.1768 0.1224
vt 0.1514 0.0658
vt 0.1514 0.0658
vt 0.1514 0.0658
vt 0.1514 0.0658
vt 0.1298 0.0656
vt 0.1298 0.0656
vt 0.1298 0.0656
vt 0.1298 0.0656
vt 0.1116 0.065
vt 0.1116 0.065
vt 0.0903 0.065
vt 0.0903 0.065
vt 0.072 0.0656
vt 0.072 0.0656
vt 0.072 0.0656
vt 0.072 0.0656
vt 0.0505 0.0658
vt 0.0505 0.0658
vt 0.0505 0.0658
vt 0.0505 0.0658
vt 0.0289 0.0656
vt 0.0289 0.0656
vt 0.0289 0.0656
vt 0.0289 0.0656
vt 0.393 0.065
vt 0.393 0.065
vt 0.0107 0.065
vt 0.0107 0.065
vt 0.3748 0.0656
vt 0.3748 0.0656
vt 0.3748 0.0656
vt 0.3748 0.0656
vt 0.3532 0.0658
vt 0.3532 0.0658
vt 0.3532 0.0658
vt 0.3532 0.0658
vt 0.3317 0.0656
vt 0.3317 0.0656
vt 0.3317 0.0656
vt 0.3317 0.0656
vt 0.2125 0.935
vt 0.2125 0.935
vt 0.3134 0.065
vt 0.3134 0.065
vt 0.2308 0.9344
vt 0.2308 0.9344
vt 0.2308 0.9344
vt 0.2308 0.9344
vt 0.2523 0.9342
vt 0.2523 0.9342
vt 0.2523 0.9342
vt 0.2523 0.9342
vt 0.2738 0.9344
vt 0.2738 0.9344
vt 0.2738 0.9344
vt 0.2738 0.9344
vt 0.2921 0.935
vt 0.2921 0.935
vt 0.1912 0.065
vt 0.1912 0.065
vt 0.1729 0.0656
vt 0.1729 0.0656
vt 0.1729 0.0656
vt 0.1729 0.0656
vt 0.1514 0.0265
vt 0.1514 0.0265
vt 0.138 0.0264
vt 0.138 0.0264
vt 0.1267 0.026
vt 0.0751 0.026
vt 0.0638 0.0264
vt 0.0638 0.0264
vt 0.0505 0.0265
vt 0.0505 0.0265
vt 0.0371 0.0264
vt 0.0371 0.0264
vt 0.3779 0.026
vt 0.0258 0.026
vt 0.3666 0.0264
vt 0.3666 0.0264
vt 0.3532 0.0265
vt 0.3532 0.0265
vt 0.3399 0.0264
vt 0.3399 0.0264
vt 0.2276 0.974
vt 0.3286 0.026
vt 0.239 0.9736
vt 0.239 0.9736
vt 0.2523 0.9735
vt 0.2523 0.9735
vt 0.2656 0.9736
vt 0.2656 0.9736
vt 0.277 0.974
vt 0.176 0.026
vt 0.1647 0.0264
vt 0.1647 0.0264
vt 0.8081 0.5024
vt 0.8081 0.4833
vt 0.7996 0.4656
vt 0.784 0.4521
vt 0.7635 0.4447
vt 0.7413 0.4447
vt 0.7208 0.4521
vt 0.7051 0.4656
vt 0.6966 0.4833
vt 0.6966 0.5024
vt 0.7051 0.5201
vt 0.7208 0.5336
vt 0.7413 0.5409
vt 0.7635 0.5409
vt 0.784 0.5336
vt 0.7996 0.5201
vt 0.1514 1
vt 0.8224 0.5048
vt 0.1514 1
vt 0.8224 0.4808
vt 0.1241 0.9997
vt 0.1241 0.9997
vt 0.8117 0.4586
vt 0.1009 0.999
vt 0.1009 0.999
vt 0.792 0.4417
vt 0.0778 0.9997
vt 0.0778 0.9997
vt 0.7663 0.4325
vt 0.0505 1
vt 0.0505 1
vt 0.7384 0.4325
vt 0.0232 0.9997
vt 0.0232 0.9997
vt 0.7127 0.4417
vt 0.4037 0.999
vt 0 0.999
vt 0.693 0.4586
vt 0.3805 0.9997
vt 0.3805 0.9997
vt 0.3532 1
vt 0.6824 0.4808
vt 0.3532 1
vt 0.3259 0.9997
vt 0.3259 0.9997
vt 0.6824 0.5048
vt 0.2018 0.001
vt 0.3028 0.999
vt 0.693 0.527
vt 0.225 0.0003
vt 0.225 0.0003
vt 0.7127 0.544
vt 0.2523 0
vt 0.2523 0
vt 0.7384 0.5532
vt 0.2796 0.0003
vt 0.2796 0.0003
vt 0.7663 0.5532
vt 0.3028 0.001
vt 0.2018 0.999
vt 0.792 0.544
vt 0.1787 0.9997
vt 0.1787 0.9997
vt 0.8117 0.527
vt 0.4648 0.3961
vt 0.4882 0.4507
vt 0.8873 0.3372
vt 0.4648 0.4767
vt 0.4742 0.4507
vt 0.7939 0.3372
vt 0.4882 0.546
vt 0.4695 0.4767
vt 0.8873 0.4325
vt 0.4742 0.546
vt 0.4695 0.3961
vt 0.7939 0.4325
vt 0.9807 0.4325
vt 0.4601 0.3961
vt 0.4929 0.4507
vt 0.8873 0.4325
vt 0.4601 0.4767
vt 0.4695 0.4507
vt 0.9807 0.3372
vt 0.4929 0.546
vt 0.4648 0.4767
vt 0.8873 0.3372
vt 0.4695 0.546
vt 0.4648 0.3961
vt 0.4742 0.3702
vt 0.4037 0.3814
vt 0.8692 0.241
vt 0.4742 0.4507
vt 0.4789 0.4507
vt 0.7758 0.241
vt 0.4037 0.4767
vt 0.4789 0.4507
vt 0.8692 0.3363
vt 0.4789 0.546
vt 0.4789 0.3702
vt 0.7758 0.3363
vt 0.8692 0.241
vt 0.4695 0.3702
vt 0.4084 0.3814
vt 0.7758 0.241
vt 0.4695 0.4507
vt 0.4742 0.4507
vt 0.8692 0.1458
vt 0.4084 0.4767
vt 0.4742 0.4507
vt 0.7758 0.1458
vt 0.4742 0.546
vt 0.4742 0.3702
vt 0.7758 0.1458
vt 0.4248 0.4767
vt 0.4084 0.3814
vt 0.4835 0.546
vt 0.6824 0.1458
vt 0.4248 0.3961
vt 0.4484 0.4767
vt 0.7758 0.241
vt 0.4084 0.4767
vt 0.4835 0.4507
vt 0.4484 0.3961
vt 0.6824 0.241
vt 0.4295 0.4767
vt 0.6824 0.241
vt 0.413 0.3814
vt 0.4882 0.546
vt 0.4295 0.3961
vt 0.7758 0.241
vt 0.4437 0.4767
vt 0.6824 0.3363
vt 0.413 0.4767
vt 0.4882 0.4507
vt 0.4437 0.3961
vt 0.7758 0.3363
vt 0.4319 0.4767
vt 0.8692 0.3363
vt 0.4248 0.4767
vt 0.4789 0.546
vt 0.4319 0.3961
vt 0.9626 0.3363
vt 0.8692 0.241
vt 0.453 0.4767
vt 0.4248 0.3814
vt 0.4789 0.4507
vt 0.9626 0.241
vt 0.453 0.3961
vt 0.4366 0.4767
vt 0.8224 0.4579
vt 0.4201 0.4767
vt 0.4835 0.546
vt 0.4366 0.3961
vt 0.9157 0.4579
vt 0.4484 0.4767
vt 0.8224 0.5532
vt 0.4201 0.3814
vt 0.4835 0.4507
vt 0.4484 0.3961
vt 0.9157 0.5532
vt 0.4437 0.3961
vt 0.9906 0.5576
vt 0.7722 0.5483
vt 0.4437 0.4767
vt 0.9672 0.5532
vt 0.6788 0.5483
vt 0.674 0.5446
vt 0.4835 0.3702
vt 0.9766 0.5532
vt 0.9672 1
vt 0.9906 1
vt 0.6788 0.9951
vt 0.7758 0.5532
vt 0.439 0.3961
vt 0.9953 0.5576
vt 0.8692 0.5532
vt 0.439 0.4767
vt 0.9626 0.5532
vt 0.7674 0.5446
vt 0.4835 0.4507
vt 0.9813 0.5576
vt 0.8692 1
vt 0.9626 1
vt 0.9953 1
vt 0.674 0.9914
vt 0.9766 1
vt 0.9813 1
vt 0.4882 0.4507
vt 0.986 0.5576
vt 0.4956 1
vt 0.4882 0.3702
vt 0.9719 0.5532
vt 0.4037 0.9857
vt 0.9719 1
vt 0.986 1
vt 0.4956 0.546
vt 0.7803 0.543
vt 0.453 0.4767
vt 1 1
vt 0.9672 1
vt 0.6771 0.5468
vt 0.453 0.3961
vt 0.4201 0.4767
vt 0.9626 1
vt 0.9766 1
vt 0.9672 0.5532
vt 0.6802 0.9745
vt 1 0.5576
vt 0.589 0.1064
vt 0.4577 0.4767
vt 0.9953 1
vt 0.9719 1
vt 0.6824 0.1064
vt 0.4577 0.3961
vt 0.9906 1
vt 0.4201 0.3961
vt 0.8692 1
vt 0.9719 0.5532
vt 0.6824 0.5532
vt 0.9953 0.5576
vt 0.9906 0.5576
vt 0.9626 0.5532
vt 0.9766 0.5532
vt 0.986 1
vt 0.4155 0.3961
vt 0.4956 0.1064
vt 0.4155 0.4767
vt 0.589 0.1064
vt 0.9813 1
vt 0.986 0.5576
vt 0.589 0.5532
vt 0.9813 0.5532
vt 0.1514 0.1626
vt 0.1823 0.1643
vt 0.1514 0.1626
vt 0.1823 0.1643
vt 0.2112 0.1465
vt 0.2787 0.8377
vt 0.2787 0.8377
vt 0.2112 0.1465
vt 0.174 0.1469
vt 0.2036 0.8384
vt 0.3045 0.1616
vt 0.2378 0.164
vt 0.3796 0.1623
vt 0.2651 0.1642
vt 0.2651 0.1642
vt 0.3796 0.1623
vt 0.0505 0.1626
vt 0.1457 0.1643
vt 0.1457 0.1643
vt 0.0505 0.1626
vt 0.125 0.1623
vt 0.1727 0.1642
vt 0.125 0.1623
vt 0.1727 0.1642
vt 0.1919 0.1642
vt 0.1778 0.1623
vt 0.1778 0.1623
vt 0.1919 0.1642
vt 0.301 0.8384
vt 0.2223 0.1469
vt 0.2 0.164
vt 0.2001 0.1616
vt 0.2523 0.8374
vt 0.1982 0.1464
vt 0.1982 0.1464
vt 0.2523 0.8374
vt 0.2259 0.8377
vt 0.1851 0.1465
vt 0.1851 0.1465
vt 0.2259 0.8377
vt 0.2459 0.1642
vt 0.3268 0.1623
vt 0.2459 0.1642
vt 0.3268 0.1623
vt 0.2555 0.1643
vt 0.3532 0.1626
vt 0.2555 0.1643
vt 0.3532 0.1626
vt 0.2732 0.164
vt 0.402 0.1616
vt 0.128 0.164
vt 0.0017 0.1616
vt 0.1361 0.1642
vt 0.0241 0.1623
vt 0.0241 0.1623
vt 0.1361 0.1642
vt 0.1553 0.1642
vt 0.0768 0.1623
vt 0.1553 0.1642
vt 0.0768 0.1623
vt 0.1026 0.1616
vt 0.1646 0.164
vt 0.0992 0.1616
vt 0.1634 0.164
vn -0.195 0.981 0
vn 0.195 0.981 0
vn -0.195 0.981 0
vn -0.195 0.979 0.054
vn 0.195 0.979 0.054
vn 0.195 0.981 0
vn 0.195 0.981 0
vn 0.556 0.831 0
vn 0.195 0.979 0.054
vn 0.195 0.981 0
vn 0.555 0.83 0.054
vn 0.556 0.831 0
vn 0.556 0.831 0
vn 0.831 0.556 0
vn 0.831 0.556 0
vn 0.555 0.83 0.054
vn 0.556 0.831 0
vn 0.83 0.555 0.054
vn 0.831 0.556 0
vn 0.831 0.556 0
vn 0.831 0.556 0
vn 0.981 0.195 0
vn 0.981 0.195 0
vn 0.83 0.555 0.054
vn 0.831 0.556 0
vn 0.979 0.195 0.054
vn 0.981 0.195 0
vn 0.981 0.195 0
vn 0.981 0.195 0
vn 0.981 -0.195 0
vn 0.979 -0.195 0.054
vn 0.979 0.195 0.054
vn 0.981 0.195 0
vn 0.981 -0.195 0
vn 0.831 -0.556 0
vn 0.981 -0.195 0
vn 0.83 -0.555 0.054
vn 0.831 -0.556 0
vn 0.979 -0.195 0.054
vn 0.981 -0.195 0
vn 0.556 -0.831 0
vn 0.831 -0.556 0
vn 0.555 -0.83 0.054
vn 0.556 -0.831 0
vn 0.83 -0.555 0.054
vn 0.831 -0.556 0
vn 0.195 -0.981 0
vn 0.556 -0.831 0
vn 0.195 -0.979 0.054
vn 0.195 -0.981 0
vn 0.555 -0.83 0.054
vn 0.556 -0.831 0
vn -0.195 -0.981 0
vn 0.195 -0.981 0
vn -0.195 -0.981 0
vn -0.195 -0.979 0.054
vn 0.195 -0.979 0.054
vn 0.195 -0.981 0
vn -0.556 -0.831 0
vn -0.195 -0.981 0
vn -0.556 -0.831 0
vn -0.555 -0.83 0.054
vn -0.195 -0.981 0
vn -0.195 -0.979 0.054
vn -0.831 -0.556 0
vn -0.556 -0.831 0
vn -0.831 -0.556 0
vn -0.83 -0.555 0.054
vn -0.556 -0.831 0
vn -0.555 -0.83 0.054
vn -0.981 -0.195 0
vn -0.831 -0.556 0
vn -0.981 -0.195 0
vn -0.979 -0.195 0.054
vn -0.831 -0.556 0
vn -0.83 -0.555 0.054
vn -0.981 0.195 0
vn -0.981 -0.195 0
vn -0.981 0.195 0
vn -0.981 -0.195 0
vn -0.979 -0.195 0.054
vn -0.979 0.195 0.054
vn -0.981 0.195 0
vn -0.831 0.556 0
vn -0.981 0.195 0
vn -0.979 0.195 0.054
vn -0.831 0.556 0
vn -0.83 0.555 0.054
vn -0.831 0.556 0
vn -0.556 0.831 0
vn -0.831 0.556 0
vn -0.83 0.555 0.054
vn -0.556 0.831 0
vn -0.555 0.83 0.054
vn -0.556 0.831 0
vn -0.195 0.981 0
vn -0.556 0.831 0
vn -0.555 0.83 0.054
vn -0.195 0.981 0
vn -0.195 0.979 0.054
vn -0.195 0.979 0.054
vn -0.193 0.97 0.15
vn 0.193 0.97 0.15
vn 0.195 0.979 0.054
vn 0.193 0.97 0.15
vn 0.195 0.979 0.054
vn 0.549 0.822 0.15
vn 0.555 0.83 0.054
vn 0.549 0.822 0.15
vn 0.555 0.83 0.054
vn 0.822 0.549 0.15
vn 0.83 0.555 0.054
vn 0.822 0.549 0.15
vn 0.83 0.555 0.054
vn 0.97 0.193 0.15
vn 0.979 0.195 0.054
vn 0.97 0.193 0.15
vn 0.97 -0.193 0.15
vn 0.979 -0.195 0.054
vn 0.979 0.195 0.054
vn 0.822 -0.549 0.15
vn 0.83 -0.555 0.054
vn 0.97 -0.193 0.15
vn 0.979 -0.195 0.054
vn 0.549 -0.822 0.15
vn 0.555 -0.83 0.054
vn 0.822 -0.549 0.15
vn 0.83 -0.555 0.054
vn 0.193 -0.97 0.15
vn 0.195 -0.979 0.054
vn 0.549 -0.822 0.15
vn 0.555 -0.83 0.054
vn -0.195 -0.979 0.054
vn -0.193 -0.97 0.15
vn 0.193 -0.97 0.15
vn 0.195 -0.979 0.054
vn -0.555 -0.83 0.054
vn -0.549 -0.822 0.15
vn -0.195 -0.979 0.054
vn -0.193 -0.97 0.15
vn -0.83 -0.555 0.054
vn -0.822 -0.549 0.15
vn -0.555 -0.83 0.054
vn -0.549 -0.822 0.15
vn -0.979 -0.195 0.054
vn -0.97 -0.193 0.15
vn -0.83 -0.555 0.054
vn -0.822 -0.549 0.15
vn -0.979 -0.195 0.054
vn -0.979 0.195 0.054
vn -0.97 0.193 0.15
vn -0.97 -0.193 0.15
vn -0.979 0.195 0.054
vn -0.97 0.193 0.15
vn -0.83 0.555 0.054
vn -0.822 0.549 0.15
vn -0.83 0.555 0.054
vn -0.822 0.549 0.15
vn -0.555 0.83 0.054
vn -0.549 0.822 0.15
vn -0.555 0.83 0.054
vn -0.549 0.822 0.15
vn -0.195 0.979 0.054
vn -0.193 0.97 0.15
vn -0.193 0.97 0.15
vn -0.176 0.887 0.427
vn 0.176 0.887 0.427
vn 0.193 0.97 0.15
vn 0.176 0.887 0.427
vn 0.193 0.97 0.15
vn 0.502 0.752 0.427
vn 0.549 0.822 0.15
vn 0.502 0.752 0.427
vn 0.549 0.822 0.15
vn 0.752 0.502 0.427
vn 0.822 0.549 0.15
vn 0.752 0.502 0.427
vn 0.822 0.549 0.15
vn 0.887 0.176 0.427
vn 0.97 0.193 0.15
vn 0.887 -0.176 0.427
vn 0.887 0.176 0.427
vn 0.97 0.193 0.15
vn 0.97 -0.193 0.15
vn 0.752 -0.502 0.427
vn 0.822 -0.549 0.15
vn 0.887 -0.176 0.427
vn 0.97 -0.193 0.15
vn 0.502 -0.752 0.427
vn 0.549 -0.822 0.15
vn 0.752 -0.502 0.427
vn 0.822 -0.549 0.15
vn 0.176 -0.887 0.427
vn 0.193 -0.97 0.15
vn 0.502 -0.752 0.427
vn 0.549 -0.822 0.15
vn -0.193 -0.97 0.15
vn -0.176 -0.887 0.427
vn 0.176 -0.887 0.427
vn 0.193 -0.97 0.15
vn -0.549 -0.822 0.15
vn -0.502 -0.752 0.427
vn -0.193 -0.97 0.15
vn -0.176 -0.887 0.427
vn -0.822 -0.549 0.15
vn -0.752 -0.502 0.427
vn -0.549 -0.822 0.15
vn -0.502 -0.752 0.427
vn -0.97 -0.193 0.15
vn -0.887 -0.176 0.427
vn -0.822 -0.549 0.15
vn -0.752 -0.502 0.427
vn -0.97 0.193 0.15
vn -0.97 -0.193 0.15
vn -0.887 0.176 0.427
vn -0.887 -0.176 0.427
vn -0.97 0.193 0.15
vn -0.887 0.176 0.427
vn -0.822 0.549 0.15
vn -0.752 0.502 0.427
vn -0.822 0.549 0.15
vn -0.752 0.502 0.427
vn -0.549 0.822 0.15
vn -0.502 0.752 0.427
vn -0.549 0.822 0.15
vn -0.502 0.752 0.427
vn -0.193 0.97 0.15
vn -0.176 0.887 0.427
vn -0.176 0.887 0.427
vn 0.176 0.887 0.427
vn 0.176 0.887 0.427
vn 0.502 0.752 0.427
vn 0.502 0.752 0.427
vn 0.752 0.502 0.427
vn 0.752 0.502 0.427
vn 0.887 0.176 0.427
vn 0.887 -0.176 0.427
vn 0.887 0.176 0.427
vn 0.752 -0.502 0.427
vn 0.887 -0.176 0.427
vn 0.502 -0.752 0.427
vn 0.752 -0.502 0.427
vn 0.176 -0.887 0.427
vn 0.502 -0.752 0.427
vn -0.176 -0.887 0.427
vn 0.176 -0.887 0.427
vn -0.502 -0.752 0.427
vn -0.176 -0.887 0.427
vn -0.752 -0.502 0.427
vn -0.502 -0.752 0.427
vn -0.887 -0.176 0.427
vn -0.752 -0.502 0.427
vn -0.887 0.176 0.427
vn -0.887 -0.176 0.427
vn -0.887 0.176 0.427
vn -0.752 0.502 0.427
vn -0.752 0.502 0.427
vn -0.502 0.752 0.427
vn -0.502 0.752 0.427
vn -0.176 0.887 0.427
vn 0 0 -1
vn 0 0 -1
vn 0 0 -1
vn 0 0 -1
vn 0 0 -1
vn 0 0 -1
vn 0 0 -1
vn 0 0 -1
vn 0 0 -1
vn 0 0 -1
vn 0 0 -1
vn 0 0 -1
vn 0 0 -1
vn 0 0 -1
vn 0 0 -1
vn 0 0 -1
vn -0.195 0.981 0
vn 0 0 -1
vn 0.195 0.981 0
vn 0 0 -1
vn 0.195 0.981 0
vn 0.556 0.831 0
vn 0 0 -1
vn 0.556 0.831 0
vn 0.831 0.556 0
vn 0 0 -1
vn 0.831 0.556 0
vn 0.981 0.195 0
vn 0 0 -1
vn 0.981 0.195 0
vn 0.981 -0.195 0
vn 0 0 -1
vn 0.831 -0.556 0
vn 0.981 -0.195 0
vn 0 0 -1
vn 0.556 -0.831 0
vn 0.831 -0.556 0
vn 0 0 -1
vn 0.195 -0.981 0
vn 0.556 -0.831 0
vn -0.195 -0.981 0
vn 0 0 -1
vn 0.195 -0.981 0
vn -0.556 -0.831 0
vn -0.195 -0.981 0
vn 0 0 -1
vn -0.831 -0.556 0
vn -0.556 -0.831 0
vn 0 0 -1
vn -0.981 -0.195 0
vn -0.831 -0.556 0
vn 0 0 -1
vn -0.981 -0.195 0
vn -0.981 0.195 0
vn 0 0 -1
vn -0.981 0.195 0
vn -0.831 0.556 0
vn 0 0 -1
vn -0.831 0.556 0
vn -0.556 0.831 0
vn 0 0 -1
vn -0.556 0.831 0
vn -0.195 0.981 0
vn 0 0 -1
vn 0 0 -1
vn 0 1 0
vn 1 0 0
vn 0 0 -1
vn 0 -1 0
vn 1 0 0
vn 0 1 0
vn 0 0 1
vn 1 0 0
vn 0 -1 0
vn 0 0 1
vn 1 0 0
vn -1 0 0
vn 0 0 -1
vn 0 1 0
vn -1 0 0
vn 0 0 -1
vn 0 -1 0
vn -1 0 0
vn 0 1 0
vn 0 0 1
vn -1 0 0
vn 0 -1 0
vn 0 0 1
vn 0 0 -1
vn 0 1 0
vn 1 0 0
vn 0 0 -1
vn 0 -1 0
vn 1 0 0
vn 0 1 0
vn 0 0 1
vn 1 0 0
vn 0 -1 0
vn 0 0 1
vn 1 0 0
vn -1 0 0
vn 0 0 -1
vn 0 1 0
vn -1 0 0
vn 0 0 -1
vn 0 -1 0
vn -1 0 0
vn 0 1 0
vn 0 0 1
vn -1 0 0
vn 0 -1 0
vn 0 0 1
vn 0 -1 0
vn 0 0 -1
vn 1 0 0
vn -1 0 0
vn 0 -1 0
vn 0 0 -1
vn 0 0 1
vn 0 -1 0
vn 1 0 0
vn -1 0 0
vn 0 0 1
vn 0 -1 0
vn 0 0 -1
vn 0 1 0
vn 1 0 0
vn -1 0 0
vn 0 0 -1
vn 0 1 0
vn 0 0 1
vn 0 1 0
vn 1 0 0
vn -1 0 0
vn 0 0 1
vn 0 1 0
vn 0 0 -1
vn 0 -1 0
vn 1 0 0
vn -1 0 0
vn 0 0 -1
vn 0 -1 0
vn 0 -1 0
vn 0 0 1
vn 1 0 0
vn -1 0 0
vn 0 -1 0
vn 0 0 1
vn 0 0 -1
vn 0 1 0
vn 1 0 0
vn -1 0 0
vn 0 0 -1
vn 0 1 0
vn 0 0 1
vn 0 1 0
vn 1 0 0
vn -1 0 0
vn 0 0 1
vn 0 1 0
vn 0 0 -1
vn 0 0.984 0.177
vn 1 0 0
vn 0 0 -1
vn 0 -1 0
vn 1 0 0
vn -1 0 0
vn 0 0 -1
vn 0 1 0
vn 0 -1 0
vn 0 0.984 0.177
vn 1 0 0
vn -1 0 0
vn 0 0 -1
vn 0 0.984 0.177
vn -1 0 0
vn 0 0 -1
vn 0 -1 0
vn -1 0 0
vn 0 0 -1
vn 0 -0.984 0.177
vn -1 0 0
vn 0 -1 0
vn 0 0.984 0.177
vn -1 0 0
vn 0 1 0
vn 0 -0.984 0.177
vn 0 0 -1
vn 0 -0.984 0.177
vn 1 0 0
vn 0 0 -1
vn 0 1 0
vn 1 0 0
vn 0 1 0
vn 0 -0.984 0.177
vn 1 0 0
vn 0 -1 0
vn 0 0 -1
vn 0.984 0 0.177
vn -1 0 0
vn 0 -1 0
vn 0 0 -1
vn 0 0 -1
vn 0 1 0
vn 1 0 0
vn -1 0 0
vn 0 -1 0
vn 0.984 0 0.177
vn 0 1 0
vn 0 0 -1
vn 0.984 0 0.177
vn -1 0 0
vn 0 1 0
vn 0 0 -1
vn -0.984 0 0.177
vn 0 0 -1
vn 0 1 0
vn -1 0 0
vn 0 1 0
vn 0.984 0 0.177
vn -0.984 0 0.177
vn 0 1 0
vn 1 0 0
vn -0.984 0 0.177
vn 0 0 -1
vn 0 -1 0
vn 0 0 -1
vn 0 -1 0
vn 1 0 0
vn -0.984 0 0.177
vn 0 -1 0
vn 1 0 0
vn -0.195 0.979 0.054
vn -0.195 0.979 0.054
vn 0.195 0.979 0.054
vn 0.195 0.979 0.054
vn -0.979 0.195 0.054
vn -0.979 0.195 0.054
vn -0.83 0.555 0.054
vn -0.83 0.555 0.054
vn -0.83 -0.555 0.054
vn -0.83 -0.555 0.054
vn -0.555 -0.83 0.054
vn -0.555 -0.83 0.054
vn 0.195 -0.979 0.054
vn 0.195 -0.979 0.054
vn 0.555 -0.83 0.054
vn 0.555 -0.83 0.054
vn 0.979 0.195 0.054
vn 0.979 0.195 0.054
vn 0.979 -0.195 0.054
vn 0.979 -0.195 0.054
vn 0.195 0.979 0.054
vn 0.195 0.979 0.054
vn 0.555 0.83 0.054
vn 0.555 0.83 0.054
vn -0.555 0.83 0.054
vn -0.555 0.83 0.054
vn -0.195 0.979 0.054
vn -0.195 0.979 0.054
vn -0.83 0.555 0.054
vn -0.83 0.555 0.054
vn -0.555 0.83 0.054
vn -0.555 0.83 0.054
vn -0.979 -0.195 0.054
vn -0.979 -0.195 0.054
vn -0.979 0.195 0.054
vn -0.979 0.195 0.054
vn -0.979 -0.195 0.054
vn -0.979 -0.195 0.054
vn -0.83 -0.555 0.054
vn -0.83 -0.555 0.054
vn -0.555 -0.83 0.054
vn -0.555 -0.83 0.054
vn -0.195 -0.979 0.054
vn -0.195 -0.979 0.054
vn -0.195 -0.979 0.054
vn -0.195 -0.979 0.054
vn 0.195 -0.979 0.054
vn 0.195 -0.979 0.054
vn 0.555 -0.83 0.054
vn 0.555 -0.83 0.054
vn 0.83 -0.555 0.054
vn 0.83 -0.555 0.054
vn 0.83 -0.555 0.054
vn 0.83 -0.555 0.054
vn 0.979 -0.195 0.054
vn 0.979 -0.195 0.054
vn 0.83 0.555 0.054
vn 0.83 0.555 0.054
vn 0.979 0.195 0.054
vn 0.979 0.195 0.054
vn 0.555 0.83 0.054
vn 0.555 0.83 0.054
vn 0.83 0.555 0.054
vn 0.83 0.555 0.054
f 426/426/426 423/423/423 432/432/432
f 433/433/433 436/436/436 442/442/442
f 427/427/427 439/439/439 445/445/445
f 450/450/450 453/453/453 456/456/456
f 461/461/461 457/457/457 467/467/467
f 469/469/469 473/473/473 479/479/479
f 464/464/464 477/477/477 482/482/482
f 486/486/486 488/488/488 491/491/491
f 90/90/90 95/95/95 322/322/322
f 90/90/90 322/322/322 320/320/320
f 497/497/497 527/527/527 150/150/150
f 497/497/497 150/150/150 153/153/153
f 2/2/2 6/6/6 10/10/10
f 2/2/2 10/10/10 7/7/7
f 71/71/71 78/78/78 313/313/313
f 71/71/71 313/313/313 310/310/310
f 504/504/504 533/533/533 137/137/137
f 504/504/504 137/137/137 143/143/143
f 8/8/8 12/12/12 17/17/17
f 8/8/8 17/17/17 13/13/13
f 53/53/53 60/60/60 305/305/305
f 53/53/53 305/305/305 301/301/301
f 507/507/507 541/541/541 126/126/126
f 507/507/507 126/126/126 132/132/132
f 15/15/15 19/19/19 25/25/25
f 15/15/15 25/25/25 21/21/21
f 35/35/35 42/42/42 297/297/297
f 35/35/35 297/297/297 293/293/293
f 510/510/510 551/551/551 116/116/116
f 510/510/510 116/116/116 120/120/120
f 23/23/23 27/27/27 33/33/33
f 23/23/23 33/33/33 29/29/29
f 14/14/14 20/20/20 287/287/287
f 14/14/14 287/287/287 285/285/285
f 514/514/514 496/496/496 104/104/104
f 514/514/514 104/104/104 106/106/106
f 30/30/30 34/34/34 40/40/40
f 30/30/30 40/40/40 36/36/36
f 77/77/77 83/83/83 316/316/316
f 77/77/77 316/316/316 314/314/314
f 494/494/494 520/520/520 163/163/163
f 494/494/494 163/163/163 101/101/101
f 35/35/35 38/38/38 46/46/46
f 35/35/35 46/46/46 42/42/42
f 59/59/59 66/66/66 308/308/308
f 59/59/59 308/308/308 304/304/304
f 522/522/522 500/500/500 155/155/155
f 522/522/522 155/155/155 157/157/157
f 41/41/41 44/44/44 52/52/52
f 41/41/41 52/52/52 48/48/48
f 41/41/41 48/48/48 300/300/300
f 41/41/41 300/300/300 296/296/296
f 531/531/531 501/501/501 141/141/141
f 531/531/531 141/141/141 147/147/147
f 47/47/47 50/50/50 58/58/58
f 47/47/47 58/58/58 54/54/54
f 22/22/22 28/28/28 290/290/290
f 22/22/22 290/290/290 288/288/288
f 539/539/539 506/506/506 130/130/130
f 539/539/539 130/130/130 136/136/136
f 53/53/53 55/55/55 63/63/63
f 53/53/53 63/63/63 60/60/60
f 96/96/96 1/1/1 277/277/277
f 96/96/96 277/277/277 323/323/323
f 548/548/548 511/511/511 119/119/119
f 548/548/548 119/119/119 124/124/124
f 59/59/59 61/61/61 69/69/69
f 59/59/59 69/69/69 66/66/66
f 84/84/84 89/89/89 319/319/319
f 84/84/84 319/319/319 317/317/317
f 554/554/554 516/516/516 108/108/108
f 554/554/554 108/108/108 110/110/110
f 65/65/65 67/67/67 75/75/75
f 65/65/65 75/75/75 72/72/72
f 65/65/65 72/72/72 311/311/311
f 65/65/65 311/311/311 307/307/307
f 517/517/517 523/523/523 159/159/159
f 517/517/517 159/159/159 161/161/161
f 71/71/71 73/73/73 80/80/80
f 71/71/71 80/80/80 78/78/78
f 47/47/47 54/54/54 303/303/303
f 47/47/47 303/303/303 299/299/299
f 526/526/526 530/530/530 145/145/145
f 526/526/526 145/145/145 149/149/149
f 77/77/77 79/79/79 85/85/85
f 77/77/77 85/85/85 83/83/83
f 2/2/2 7/7/7 281/281/281
f 2/2/2 281/281/281 279/279/279
f 535/535/535 537/537/537 133/133/133
f 535/535/535 133/133/133 139/139/139
f 84/84/84 87/87/87 91/91/91
f 84/84/84 91/91/91 89/89/89
f 30/30/30 36/36/36 294/294/294
f 30/30/30 294/294/294 291/291/291
f 543/543/543 545/545/545 122/122/122
f 543/543/543 122/122/122 128/128/128
f 90/90/90 93/93/93 97/97/97
f 90/90/90 97/97/97 95/95/95
f 8/8/8 13/13/13 284/284/284
f 8/8/8 284/284/284 282/282/282
f 549/549/549 556/556/556 112/112/112
f 549/549/549 112/112/112 114/114/114
f 96/96/96 99/99/99 3/3/3
f 96/96/96 3/3/3 1/1/1
f 102/102/102 164/164/164 227/227/227
f 102/102/102 227/227/227 165/165/165
f 135/135/135 129/129/129 194/194/194
f 135/135/135 194/194/194 200/200/200
f 117/117/117 115/115/115 180/180/180
f 117/117/117 180/180/180 183/183/183
f 162/162/162 160/160/160 223/223/223
f 162/162/162 223/223/223 225/225/225
f 148/148/148 142/142/142 205/205/205
f 148/148/148 205/205/205 211/211/211
f 131/131/131 125/125/125 190/190/190
f 131/131/131 190/190/190 196/196/196
f 113/113/113 111/111/111 176/176/176
f 113/113/113 176/176/176 178/178/178
f 158/158/158 156/156/156 219/219/219
f 158/158/158 219/219/219 221/221/221
f 144/144/144 138/138/138 201/201/201
f 144/144/144 201/201/201 207/207/207
f 127/127/127 121/121/121 186/186/186
f 127/127/127 186/186/186 192/192/192
f 109/109/109 107/107/107 172/172/172
f 109/109/109 172/172/172 174/174/174
f 154/154/154 151/151/151 213/213/213
f 154/154/154 213/213/213 217/217/217
f 140/140/140 134/134/134 197/197/197
f 140/140/140 197/197/197 203/203/203
f 123/123/123 118/118/118 184/184/184
f 123/123/123 184/184/184 188/188/188
f 105/105/105 103/103/103 168/168/168
f 105/105/105 168/168/168 170/170/170
f 152/152/152 146/146/146 209/209/209
f 152/152/152 209/209/209 214/214/214
f 177/177/177 175/175/175 234/234/234
f 177/177/177 234/234/234 235/235/235
f 222/222/222 220/220/220 256/256/256
f 222/222/222 256/256/256 257/257/257
f 208/208/208 202/202/202 247/247/247
f 208/208/208 247/247/247 250/250/250
f 191/191/191 185/185/185 239/239/239
f 191/191/191 239/239/239 242/242/242
f 173/173/173 171/171/171 232/232/232
f 173/173/173 232/232/232 233/233/233
f 218/218/218 215/215/215 253/253/253
f 218/218/218 253/253/253 255/255/255
f 204/204/204 198/198/198 245/245/245
f 204/204/204 245/245/245 248/248/248
f 187/187/187 181/181/181 237/237/237
f 187/187/187 237/237/237 240/240/240
f 169/169/169 167/167/167 230/230/230
f 169/169/169 230/230/230 231/231/231
f 216/216/216 210/210/210 251/251/251
f 216/216/216 251/251/251 254/254/254
f 166/166/166 228/228/228 260/260/260
f 166/166/166 260/260/260 229/229/229
f 199/199/199 193/193/193 243/243/243
f 199/199/199 243/243/243 246/246/246
f 182/182/182 179/179/179 236/236/236
f 182/182/182 236/236/236 238/238/238
f 226/226/226 224/224/224 258/258/258
f 226/226/226 258/258/258 259/259/259
f 212/212/212 206/206/206 249/249/249
f 212/212/212 249/249/249 252/252/252
f 195/195/195 189/189/189 241/241/241
f 195/195/195 241/241/241 244/244/244
f 262/262/262 261/261/261 278/278/278
f 262/262/262 278/278/278 280/280/280
f 263/263/263 262/262/262 280/280/280
f 263/263/263 280/280/280 283/283/283
f 264/264/264 263/263/263 283/283/283
f 264/264/264 283/283/283 286/286/286
f 265/265/265 264/264/264 286/286/286
f 265/265/265 286/286/286 289/289/289
f 266/266/266 265/265/265 289/289/289
f 266/266/266 289/289/289 292/292/292
f 267/267/267 266/266/266 292/292/292
f 267/267/267 292/292/292 295/295/295
f 268/268/268 267/267/267 295/295/295
f 268/268/268 295/295/295 298/298/298
f 269/269/269 268/268/268 298/298/298
f 269/269/269 298/298/298 302/302/302
f 270/270/270 269/269/269 302/302/302
f 270/270/270 302/302/302 306/306/306
f 271/271/271 270/270/270 306/306/306
f 271/271/271 306/306/306 309/309/309
f 272/272/272 271/271/271 309/309/309
f 272/272/272 309/309/309 312/312/312
f 273/273/273 272/272/272 312/312/312
f 273/273/273 312/312/312 315/315/315
f 274/274/274 273/273/273 315/315/315
f 274/274/274 315/315/315 318/318/318
f 275/275/275 274/274/274 318/318/318
f 275/275/275 318/318/318 321/321/321
f 276/276/276 275/275/275 321/321/321
f 276/276/276 321/321/321 324/324/324
f 261/261/261 276/276/276 324/324/324
f 261/261/261 324/324/324 278/278/278
f 327/327/327 333/333/333 336/336/336
f 327/327/327 336/336/336 330/330/330
f 332/332/332 345/345/345 348/348/348
f 332/332/332 348/348/348 335/335/335
f 343/343/343 337/337/337 340/340/340
f 343/343/343 340/340/340 346/346/346
f 338/338/338 325/325/325 328/328/328
f 338/338/338 328/328/328 341/341/341
f 331/331/331 326/326/326 339/339/339
f 331/331/331 339/339/339 344/344/344
f 347/347/347 342/342/342 329/329/329
f 347/347/347 329/329/329 334/334/334
f 351/351/351 357/357/357 360/360/360
f 351/351/351 360/360/360 354/354/354
f 356/356/356 369/369/369 372/372/372
f 356/356/356 372/372/372 359/359/359
f 367/367/367 361/361/361 364/364/364
f 367/367/367 364/364/364 370/370/370
f 362/362/362 349/349/349 352/352/352
f 362/362/362 352/352/352 365/365/365
f 355/355/355 350/350/350 363/363/363
f 355/355/355 363/363/363 368/368/368
f 371/371/371 366/366/366 353/353/353
f 371/371/371 353/353/353 358/358/358
f 373/373/373 380/380/380 384/384/384
f 373/373/373 384/384/384 377/377/377
f 379/379/379 391/391/391 395/395/395
f 379/379/379 395/395/395 383/383/383
f 392/392/392 386/386/386 390/390/390
f 392/392/392 390/390/390 396/396/396
f 385/385/385 374/374/374 378/378/378
f 385/385/385 378/378/378 389/389/389
f 381/381/381 375/375/375 387/387/387
f 381/381/381 387/387/387 393/393/393
f 394/394/394 388/388/388 376/376/376
f 394/394/394 376/376/376 382/382/382
f 398/398/398 403/403/403 407/407/407
f 398/398/398 407/407/407 402/402/402
f 404/404/404 415/415/415 419/419/419
f 404/404/404 419/419/419 408/408/408
f 416/416/416 410/410/410 414/414/414
f 416/416/416 414/414/414 420/420/420
f 409/409/409 397/397/397 401/401/401
f 409/409/409 401/401/401 413/413/413
f 405/405/405 399/399/399 411/411/411
f 405/405/405 411/411/411 417/417/417
f 418/418/418 412/412/412 400/400/400
f 418/418/418 400/400/400 406/406/406
f 444/444/444 431/431/431 422/422/422
f 444/444/444 422/422/422 435/435/435
f 434/434/434 421/421/421 424/424/424
f 434/434/434 424/424/424 437/437/437
f 443/443/443 438/438/438 425/425/425
f 443/443/443 425/425/425 430/430/430
f 455/455/455 447/447/447 441/441/441
f 455/455/455 441/441/441 449/449/449
f 448/448/448 440/440/440 428/428/428
f 448/448/448 428/428/428 451/451/451
f 454/454/454 452/452/452 429/429/429
f 454/454/454 429/429/429 446/446/446
f 480/480/480 468/468/468 459/459/459
f 480/480/480 459/459/459 471/471/471
f 470/470/470 458/458/458 462/462/462
f 470/470/470 462/462/462 474/474/474
f 478/478/478 472/472/472 460/460/460
f 478/478/478 460/460/460 466/466/466
f 490/490/490 481/481/481 475/475/475
f 490/490/490 475/475/475 484/484/484
f 485/485/485 476/476/476 463/463/463
f 485/485/485 463/463/463 487/487/487
f 492/492/492 489/489/489 465/465/465
f 492/492/492 465/465/465 483/483/483
f 24/24/24 18/18/18 555/555/555
f 24/24/24 555/555/555 550/550/550
f 45/45/45 37/37/37 546/546/546
f 45/45/45 546/546/546 544/544/544
f 64/64/64 56/56/56 538/538/538
f 64/64/64 538/538/538 536/536/536
f 81/81/81 74/74/74 529/529/529
f 81/81/81 529/529/529 525/525/525
f 98/98/98 94/94/94 524/524/524
f 98/98/98 524/524/524 518/518/518
f 16/16/16 11/11/11 515/515/515
f 16/16/16 515/515/515 553/553/553
f 39/39/39 31/31/31 512/512/512
f 39/39/39 512/512/512 547/547/547
f 57/57/57 49/49/49 505/505/505
f 57/57/57 505/505/505 540/540/540
f 76/76/76 68/68/68 502/502/502
f 76/76/76 502/502/502 532/532/532
f 92/92/92 88/88/88 499/499/499
f 92/92/92 499/499/499 521/521/521
f 4/4/4 100/100/100 519/519/519
f 4/4/4 519/519/519 493/493/493
f 9/9/9 5/5/5 495/495/495
f 9/9/9 495/495/495 513/513/513
f 32/32/32 26/26/26 552/552/552
f 32/32/32 552/552/552 509/509/509
f 51/51/51 43/43/43 542/542/542
f 51/51/51 542/542/542 508/508/508
f 70/70/70 62/62/62 534/534/534
f 70/70/70 534/534/534 503/503/503
f 86/86/86 82/82/82 528/528/528
f 86/86/86 528/528/528 498/498/498
o AGM-65G_1__Black
g AGM-65G_1__Black
usemtl Black
v -0.00014 -0.00069 2.45007
v -0.00014 0.14693 2.32641
v -0.00014 0.14693 2.32641
v 0.05635 0.13569 2.32641
v 0.05635 0.13569 2.32641
v 0.10424 0.10369 2.32641
v 0.10424 0.10369 2.32641
v 0.13624 0.0558 2.32641
v 0.13624 0.0558 2.32641
v 0.14748 -0.00069 2.32641
v 0.14748 -0.00069 2.32641
v 0.13624 -0.05718 2.32641
v 0.13624 -0.05718 2.32641
v 0.10424 -0.10508 2.32641
v 0.10424 -0.10508 2.32641
v 0.05635 -0.13708 2.32641
v 0.05635 -0.13708 2.32641
v -0.00014 -0.14831 2.32641
v -0.00014 -0.14831 2.32641
v -0.05663 -0.13708 2.32641
v -0.05663 -0.13708 2.32641
v -0.10452 -0.10508 2.32641
v -0.10452 -0.10508 2.32641
v -0.13652 -0.05718 2.32641
v -0.13652 -0.05718 2.32641
v -0.14776 -0.00069 2.32641
v -0.14776 -0.00069 2.32641
v -0.13652 0.0558 2.32641
v -0.13652 0.0558 2.32641
v -0.10452 0.10369 2.32641
v -0.10452 0.10369 2.32641
v -0.05663 0.13569 2.32641
v -0.05663 0.13569 2.32641
v -0.00014 0.0384 2.45007
v -0.00014 0.0384 2.45007
v -0.00014 0.0384 2.45007
v 0.01482 0.03542 2.45007
v 0.01482 0.03542 2.45007
v 0.01482 0.03542 2.45007
v 0.0275 0.02695 2.45007
v 0.0275 0.02695 2.45007
v 0.0275 0.02695 2.45007
v 0.03598 0.01427 2.45007
v 0.03598 0.01427 2.45007
v 0.03598 0.01427 2.45007
v 0.03895 -0.00069 2.45007
v 0.03895 -0.00069 2.45007
v 0.03895 -0.00069 2.45007
v 0.03598 -0.01565 2.45007
v 0.03598 -0.01565 2.45007
v 0.03598 -0.01565 2.45007
v 0.0275 -0.02833 2.45007
v 0.0275 -0.02833 2.45007
v 0.0275 -0.02833 2.45007
v 0.01482 -0.03681 2.45007
v 0.01482 -0.03681 2.45007
v 0.01482 -0.03681 2.45007
v -0.00014 -0.03978 2.45007
v -0.00014 -0.03978 2.45007
v -0.00014 -0.03978 2.45007
v -0.0151 -0.03681 2.45007
v -0.0151 -0.03681 2.45007
v -0.0151 -0.03681 2.45007
v -0.02778 -0.02833 2.45007
v -0.02778 -0.02833 2.45007
v -0.02778 -0.02833 2.45007
v -0.03625 -0.01565 2.45007
v -0.03625 -0.01565 2.45007
v -0.03625 -0.01565 2.45007
v -0.03923 -0.00069 2.45007
v -0.03923 -0.00069 2.45007
v -0.03923 -0.00069 2.45007
v -0.03625 0.01427 2.45007
v -0.03625 0.01427 2.45007
v -0.03625 0.01427 2.45007
v -0.02778 0.02695 2.45007
v -0.02778 0.02695 2.45007
v -0.02778 0.02695 2.45007
v -0.0151 0.03542 2.45007
v -0.0151 0.03542 2.45007
v -0.0151 0.03542 2.45007
v -0.00014 0.23993 -2.45007
v -0.00014 0.23993 -2.45007
v 0.09194 0.22161 -2.45007
v 0.09194 0.22161 -2.45007
v 0.17 0.16945 -2.45007
v 0.17 0.16945 -2.45007
v 0.22217 0.09139 -2.45007
v 0.22217 0.09139 -2.45007
v 0.24048 -0.00069 -2.45007
v 0.24048 -0.00069 -2.45007
v 0.22217 -0.09277 -2.45007
v 0.22217 -0.09277 -2.45007
v 0.17 -0.17084 -2.45007
v 0.17 -0.17084 -2.45007
v 0.09194 -0.223 -2.45007
v 0.09194 -0.223 -2.45007
v -0.00014 -0.24131 -2.45007
v -0.00014 -0.24131 -2.45007
v -0.09222 -0.223 -2.45007
v -0.09222 -0.223 -2.45007
v -0.17028 -0.17084 -2.45007
v -0.17028 -0.17084 -2.45007
v -0.22244 -0.09277 -2.45007
v -0.22244 -0.09277 -2.45007
v -0.24076 -0.00069 -2.45007
v -0.24076 -0.00069 -2.45007
v -0.22244 0.09139 -2.45007
v -0.22244 0.09139 -2.45007
v -0.17028 0.16945 -2.45007
v -0.17028 0.16945 -2.45007
v -0.09222 0.22161 -2.45007
v -0.09222 0.22161 -2.45007
v 0.09194 0.22161 -2.38423
v 0.09194 0.22161 -2.38423
v 0.09194 0.22161 -2.38423
v -0.00014 -0.00069 -2.38423
v -0.00014 0.23993 -2.38423
v -0.00014 0.23993 -2.38423
v -0.00014 0.23993 -2.38423
v 0.17 0.16945 -2.38423
v 0.17 0.16945 -2.38423
v 0.17 0.16945 -2.38423
v 0.22217 0.09139 -2.38423
v 0.22217 0.09139 -2.38423
v 0.22217 0.09139 -2.38423
v 0.24048 -0.00069 -2.38423
v 0.24048 -0.00069 -2.38423
v 0.24048 -0.00069 -2.38423
v 0.22217 -0.09277 -2.38423
v 0.22217 -0.09277 -2.38423
v 0.22217 -0.09277 -2.38423
v 0.17 -0.17084 -2.38423
v 0.17 -0.17084 -2.38423
v 0.17 -0.17084 -2.38423
v 0.09194 -0.223 -2.38423
v 0.09194 -0.223 -2.38423
v 0.09194 -0.223 -2.38423
v -0.00014 -0.24131 -2.38423
v -0.00014 -0.24131 -2.38423
v -0.00014 -0.24131 -2.38423
v -0.09222 -0.223 -2.38423
v -0.09222 -0.223 -2.38423
v -0.09222 -0.223 -2.38423
v -0.17028 -0.17084 -2.38423
v -0.17028 -0.17084 -2.38423
v -0.17028 -0.17084 -2.38423
v -0.22244 -0.09277 -2.38423
v -0.22244 -0.09277 -2.38423
v -0.22244 -0.09277 -2.38423
v -0.24076 -0.00069 -2.38423
v -0.24076 -0.00069 -2.38423
v -0.24076 -0.00069 -2.38423
v -0.22244 0.09139 -2.38423
v -0.22244 0.09139 -2.38423
v -0.22244 0.09139 -2.38423
v -0.17028 0.16945 -2.38423
v -0.17028 0.16945 -2.38423
v -0.17028 0.16945 -2.38423
v -0.09222 0.22161 -2.38423
v -0.09222 0.22161 -2.38423
v -0.09222 0.22161 -2.38423
vt 0.4527 0.3883
vt 0.1514 0.0265
vt 0.1514 0.0265
vt 0.138 0.0264
vt 0.138 0.0264
vt 0.1267 0.026
vt 0.0751 0.026
vt 0.0638 0.0264
vt 0.0638 0.0264
vt 0.0505 0.0265
vt 0.0505 0.0265
vt 0.0371 0.0264
vt 0.0371 0.0264
vt 0.3779 0.026
vt 0.0258 0.026
vt 0.3666 0.0264
vt 0.3666 0.0264
vt 0.3532 0.0265
vt 0.3532 0.0265
vt 0.3399 0.0264
vt 0.3399 0.0264
vt 0.2276 0.974
vt 0.3286 0.026
vt 0.239 0.9736
vt 0.239 0.9736
vt 0.2523 0.9735
vt 0.2523 0.9735
vt 0.2656 0.9736
vt 0.2656 0.9736
vt 0.277 0.974
vt 0.176 0.026
vt 0.1647 0.0264
vt 0.1647 0.0264
vt 0.1514 0.0001
vt 0.4579 0.3949
vt 0.1514 0.0001
vt 0.4545 0.3961
vt 0.1478 0.0001
vt 0.1478 0.0001
vt 0.4509 0.3961
vt 0.1449 0
vt 0.057 0
vt 0.4476 0.3949
vt 0.054 0.0001
vt 0.054 0.0001
vt 0.4451 0.3927
vt 0.0505 0.0001
vt 0.0505 0.0001
vt 0.4437 0.3899
vt 0.0469 0.0001
vt 0.0469 0.0001
vt 0.4437 0.3868
vt 0.3598 0
vt 0.0439 0
vt 0.4451 0.3839
vt 0.3568 0.0001
vt 0.3568 0.0001
vt 0.3532 0.0001
vt 0.4476 0.3817
vt 0.3532 0.0001
vt 0.3497 0.0001
vt 0.3497 0.0001
vt 0.4509 0.3805
vt 0.2458 1
vt 0.3467 0
vt 0.4545 0.3805
vt 0.2488 0.9999
vt 0.2488 0.9999
vt 0.4579 0.3817
vt 0.2523 0.9999
vt 0.2523 0.9999
vt 0.4604 0.3839
vt 0.2558 0.9999
vt 0.2558 0.9999
vt 0.4618 0.3868
vt 0.2588 1
vt 0.1579 0
vt 0.4618 0.3899
vt 0.1549 0.0001
vt 0.1549 0.0001
vt 0.4604 0.3927
vt 0.4046 0.5113
vt 0.4046 0.5113
vt 0.4044 0.5301
vt 0.4044 0.5301
vt 0.4366 0.546
vt 0.4037 0.546
vt 0.4359 0.5301
vt 0.4359 0.5301
vt 0.4357 0.5113
vt 0.4357 0.5113
vt 0.4359 0.4926
vt 0.4359 0.4926
vt 0.4366 0.4767
vt 0.453 0.4767
vt 0.4537 0.4926
vt 0.4537 0.4926
vt 0.454 0.5113
vt 0.454 0.5113
vt 0.4537 0.5301
vt 0.4537 0.5301
vt 0.453 0.546
vt 0.453 0.546
vt 0.4524 0.5301
vt 0.4524 0.5301
vt 0.4521 0.5113
vt 0.4521 0.5113
vt 0.4524 0.4926
vt 0.4524 0.4926
vt 0.4037 0.4767
vt 0.453 0.4767
vt 0.4044 0.4926
vt 0.4044 0.4926
vt 0.4199 0.5301
vt 0.4199 0.5301
vt 0.6824 0.394
vt 0.7381 0.3844
vt 0.4201 0.5113
vt 0.6824 0.3748
vt 0.4201 0.5113
vt 0.4211 0.546
vt 0.4192 0.546
vt 0.6909 0.4116
vt 0.4204 0.5301
vt 0.4204 0.5301
vt 0.7066 0.4252
vt 0.4201 0.5113
vt 0.4201 0.5113
vt 0.727 0.4325
vt 0.4204 0.4926
vt 0.4204 0.4926
vt 0.7492 0.4325
vt 0.4211 0.4767
vt 0.4686 0.4767
vt 0.7697 0.4252
vt 0.4693 0.4926
vt 0.4693 0.4926
vt 0.7854 0.4116
vt 0.4695 0.5113
vt 0.7939 0.394
vt 0.4695 0.5113
vt 0.7939 0.3748
vt 0.4693 0.5301
vt 0.4693 0.5301
vt 0.7854 0.3572
vt 0.4686 0.546
vt 0.4375 0.546
vt 0.7697 0.3436
vt 0.4368 0.5301
vt 0.4368 0.5301
vt 0.7492 0.3363
vt 0.4366 0.5113
vt 0.4366 0.5113
vt 0.727 0.3363
vt 0.4368 0.4926
vt 0.4368 0.4926
vt 0.7066 0.3436
vt 0.4192 0.4767
vt 0.4375 0.4767
vt 0.6909 0.3572
vt 0.4199 0.4926
vt 0.4199 0.4926
vn 0 0 1
vn -0.148 0.743 0.652
vn 0.148 0.743 0.652
vn 0.148 0.743 0.652
vn 0.421 0.63 0.652
vn 0.421 0.63 0.652
vn 0.63 0.421 0.652
vn 0.63 0.421 0.652
vn 0.743 0.148 0.652
vn 0.743 -0.148 0.652
vn 0.743 0.148 0.652
vn 0.63 -0.421 0.652
vn 0.743 -0.148 0.652
vn 0.421 -0.63 0.652
vn 0.63 -0.421 0.652
vn 0.148 -0.743 0.652
vn 0.421 -0.63 0.652
vn -0.148 -0.743 0.652
vn 0.148 -0.743 0.652
vn -0.421 -0.63 0.652
vn -0.148 -0.743 0.652
vn -0.63 -0.421 0.652
vn -0.421 -0.63 0.652
vn -0.743 -0.148 0.652
vn -0.63 -0.421 0.652
vn -0.743 -0.148 0.652
vn -0.743 0.148 0.652
vn -0.743 0.148 0.652
vn -0.63 0.421 0.652
vn -0.63 0.421 0.652
vn -0.421 0.63 0.652
vn -0.421 0.63 0.652
vn -0.148 0.743 0.652
vn -0.148 0.743 0.652
vn 0 0 1
vn 0.148 0.743 0.652
vn 0 0 1
vn 0.148 0.743 0.652
vn 0.421 0.63 0.652
vn 0 0 1
vn 0.421 0.63 0.652
vn 0.63 0.421 0.652
vn 0 0 1
vn 0.63 0.421 0.652
vn 0.743 0.148 0.652
vn 0 0 1
vn 0.743 -0.148 0.652
vn 0.743 0.148 0.652
vn 0 0 1
vn 0.63 -0.421 0.652
vn 0.743 -0.148 0.652
vn 0 0 1
vn 0.421 -0.63 0.652
vn 0.63 -0.421 0.652
vn 0 0 1
vn 0.148 -0.743 0.652
vn 0.421 -0.63 0.652
vn -0.148 -0.743 0.652
vn 0 0 1
vn 0.148 -0.743 0.652
vn -0.421 -0.63 0.652
vn -0.148 -0.743 0.652
vn 0 0 1
vn -0.63 -0.421 0.652
vn -0.421 -0.63 0.652
vn 0 0 1
vn -0.743 -0.148 0.652
vn -0.63 -0.421 0.652
vn 0 0 1
vn -0.743 -0.148 0.652
vn -0.743 0.148 0.652
vn 0 0 1
vn -0.743 0.148 0.652
vn -0.63 0.421 0.652
vn 0 0 1
vn -0.63 0.421 0.652
vn -0.421 0.63 0.652
vn 0 0 1
vn -0.421 0.63 0.652
vn -0.148 0.743 0.652
vn 0 0 1
vn -0.195 -0.981 0
vn 0.195 -0.981 0
vn -0.556 -0.831 0
vn -0.195 -0.981 0
vn -0.831 -0.556 0
vn -0.556 -0.831 0
vn -0.981 -0.195 0
vn -0.831 -0.556 0
vn -0.981 0.195 0
vn -0.981 -0.195 0
vn -0.981 0.195 0
vn -0.831 0.556 0
vn -0.831 0.556 0
vn -0.556 0.831 0
vn -0.556 0.831 0
vn -0.195 0.981 0
vn -0.195 0.981 0
vn 0.195 0.981 0
vn 0.195 0.981 0
vn 0.556 0.831 0
vn 0.556 0.831 0
vn 0.831 0.556 0
vn 0.831 0.556 0
vn 0.981 0.195 0
vn 0.981 0.195 0
vn 0.981 -0.195 0
vn 0.831 -0.556 0
vn 0.981 -0.195 0
vn 0.556 -0.831 0
vn 0.831 -0.556 0
vn 0.195 -0.981 0
vn 0.556 -0.831 0
vn -0.556 -0.831 0
vn -0.195 -0.981 0
vn 0 0 -1
vn 0 0 -1
vn -0.195 -0.981 0
vn 0 0 -1
vn 0.195 -0.981 0
vn -0.831 -0.556 0
vn -0.556 -0.831 0
vn 0 0 -1
vn -0.981 -0.195 0
vn -0.831 -0.556 0
vn 0 0 -1
vn -0.981 0.195 0
vn -0.981 -0.195 0
vn 0 0 -1
vn -0.981 0.195 0
vn -0.831 0.556 0
vn 0 0 -1
vn -0.831 0.556 0
vn -0.556 0.831 0
vn 0 0 -1
vn -0.556 0.831 0
vn -0.195 0.981 0
vn 0 0 -1
vn -0.195 0.981 0
vn 0 0 -1
vn 0.195 0.981 0
vn 0 0 -1
vn 0.195 0.981 0
vn 0.556 0.831 0
vn 0 0 -1
vn 0.556 0.831 0
vn 0.831 0.556 0
vn 0 0 -1
vn 0.831 0.556 0
vn 0.981 0.195 0
vn 0 0 -1
vn 0.981 0.195 0
vn 0.981 -0.195 0
vn 0 0 -1
vn 0.831 -0.556 0
vn 0.981 -0.195 0
vn 0 0 -1
vn 0.556 -0.831 0
vn 0.831 -0.556 0
vn 0 0 -1
vn 0.195 -0.981 0
vn 0.556 -0.831 0
f 557/557/557 593/593/593 591/591/591
f 557/557/557 596/596/596 593/593/593
f 557/557/557 599/599/599 596/596/596
f 557/557/557 602/602/602 599/599/599
f 557/557/557 605/605/605 602/602/602
f 557/557/557 608/608/608 605/605/605
f 557/557/557 611/611/611 608/608/608
f 557/557/557 615/615/615 611/611/611
f 557/557/557 619/619/619 615/615/615
f 557/557/557 622/622/622 619/619/619
f 557/557/557 625/625/625 622/622/622
f 557/557/557 628/628/628 625/625/625
f 557/557/557 631/631/631 628/628/628
f 557/557/557 634/634/634 631/631/631
f 557/557/557 637/637/637 634/634/634
f 557/557/557 591/591/591 637/637/637
f 673/673/673 675/675/675 672/672/672
f 673/673/673 672/672/672 679/679/679
f 673/673/673 679/679/679 682/682/682
f 673/673/673 682/682/682 685/685/685
f 673/673/673 685/685/685 688/688/688
f 673/673/673 688/688/688 691/691/691
f 673/673/673 691/691/691 694/694/694
f 673/673/673 694/694/694 696/696/696
f 673/673/673 696/696/696 698/698/698
f 673/673/673 698/698/698 701/701/701
f 673/673/673 701/701/701 704/704/704
f 673/673/673 704/704/704 707/707/707
f 673/673/673 707/707/707 710/710/710
f 673/673/673 710/710/710 713/713/713
f 673/673/673 713/713/713 716/716/716
f 673/673/673 716/716/716 675/675/675
f 562/562/562 561/561/561 595/595/595
f 562/562/562 595/595/595 597/597/597
f 584/584/584 583/583/583 627/627/627
f 584/584/584 627/627/627 629/629/629
f 577/577/577 574/574/574 614/614/614
f 577/577/577 614/614/614 618/618/618
f 569/569/569 566/566/566 603/603/603
f 569/569/569 603/603/603 607/607/607
f 560/560/560 559/559/559 592/592/592
f 560/560/560 592/592/592 594/594/594
f 582/582/582 580/580/580 623/623/623
f 582/582/582 623/623/623 626/626/626
f 558/558/558 589/589/589 636/636/636
f 558/558/558 636/636/636 590/590/590
f 575/575/575 572/572/572 612/612/612
f 575/575/575 612/612/612 616/616/616
f 567/567/567 565/565/565 601/601/601
f 567/567/567 601/601/601 604/604/604
f 588/588/588 587/587/587 633/633/633
f 588/588/588 633/633/633 635/635/635
f 581/581/581 578/578/578 620/620/620
f 581/581/581 620/620/620 624/624/624
f 573/573/573 570/570/570 609/609/609
f 573/573/573 609/609/609 613/613/613
f 564/564/564 563/563/563 598/598/598
f 564/564/564 598/598/598 600/600/600
f 586/586/586 585/585/585 630/630/630
f 586/586/586 630/630/630 632/632/632
f 579/579/579 576/576/576 617/617/617
f 579/579/579 617/617/617 621/621/621
f 571/571/571 568/568/568 606/606/606
f 571/571/571 606/606/606 610/610/610
f 646/646/646 648/648/648 686/686/686
f 646/646/646 686/686/686 683/683/683
f 661/661/661 662/662/662 708/708/708
f 661/661/661 708/708/708 706/706/706
f 644/644/644 647/647/647 684/684/684
f 644/644/644 684/684/684 680/680/680
f 659/659/659 660/660/660 705/705/705
f 659/659/659 705/705/705 703/703/703
f 642/642/642 645/645/645 681/681/681
f 642/642/642 681/681/681 677/677/677
f 657/657/657 658/658/658 702/702/702
f 657/657/657 702/702/702 700/700/700
f 640/640/640 643/643/643 678/678/678
f 640/640/640 678/678/678 670/670/670
f 655/655/655 656/656/656 699/699/699
f 655/655/655 699/699/699 697/697/697
f 668/668/668 639/639/639 676/676/676
f 668/668/668 676/676/676 717/717/717
f 638/638/638 641/641/641 671/671/671
f 638/638/638 671/671/671 674/674/674
f 653/653/653 654/654/654 695/695/695
f 653/653/653 695/695/695 693/693/693
f 666/666/666 669/669/669 718/718/718
f 666/666/666 718/718/718 714/714/714
f 651/651/651 652/652/652 692/692/692
f 651/651/651 692/692/692 690/690/690
f 664/664/664 667/667/667 715/715/715
f 664/664/664 715/715/715 711/711/711
f 649/649/649 650/650/650 689/689/689
f 649/649/649 689/689/689 687/687/687
f 663/663/663 665/665/665 712/712/712
f 663/663/663 712/712/712 709/709/709
